<svg xmlns="http://www.w3.org/2000/svg" height="1000" viewBox="0 0 1000 1000" width="1000"><defs><clipPath id="a"><path d="M0 800h800V0H0v800z"/></clipPath><clipPath id="b"><path d="M118.93 270.62c-30.873-26.05-34.658-77.27-23.155-99.18 17.936-34.16 49.738-33.007 61.27-31.31.924-1.738 2.585-4.294 5.294-7.97 5.815-7.893 21.475-3.425 36.658-3.355 5.192.024 10.378-.107 15.254-.237 13.975-.375 25.41-.748 27.193 2.51 3.784 6.917-1.736 11.954-2.922 12.925 9.33-6.933 62.733 1.36 62.733 1.36s-8.682-5.9-3.858-16.558c5.472-12.09 32.477-7.27 38.306 4.38 5.426 10.844-7.512 18.745-9.945 20.11 23.185-12.475 73.35-14.414 90.618.74 17.365 15.237-3.988 45.714-3.988 45.714s-1.265 39.996-30.42 65.4c-34.554 30.107-82.842 8.36-82.842 8.36-14.67 15.437-28.742 2.895-28.742 2.895-11.577 13.505-25.082 3.858-25.082 3.858-18.68 10.777-37.654 14.99-55.35 14.99-29.822 0-56.01-11.967-71.026-24.637m206.44-117.09"/></clipPath><clipPath id="c"><path d="M119.14 311.06h79.637V129.02H119.14v182.04z"/></clipPath><clipPath id="d"><path d="M0 800h800V0H0v800z"/></clipPath><clipPath id="e"><path d="M352.93 223.11h39.005v-34.246H352.93v34.246z"/></clipPath><clipPath id="f"><path d="M331.83 245.86h30.587v-99.043H331.83v99.043z"/></clipPath><clipPath id="g"><path d="M345.17 197.94h39.29v-40.898h-39.29v40.898z"/></clipPath><clipPath id="h"><path d="M406.35 195.45h4.455v-6.663h-4.455v6.663z"/></clipPath><clipPath id="i"><path d="M212.57 543.82h11.26v-17.61h-11.26v17.61z"/></clipPath><clipPath id="j"><path d="M413.74 666.18c-15.76-23.5-11.33-43.96-11.33-43.96l51.64-50.275s7.43-34.797 7.29-38.267c-.14-3.47-2.144-11.376 2.667-19.985 4.81-8.61 7.752-22.22 6.61-30.215-1.143-7.994 10.276-36.54 10.276-36.54s-11.42 0-12.56-9.73c-1.143-9.726 7.992-14.25 22.84-14.36 14.842-.11 15.985 16.095 14.842 28.77-1.14 12.675 3.427 42.137 3.427 42.137s2.665-3.806 9.136-7.202c3.398-1.785 8.626-1.23 13.464-.673 4.37.503 8.423 1.007 10.516-.218 10.276-6.02 25.12-4.468 30.83-2.184 5.71 2.284 9.04 1.536 17.128 0 10.278-1.952 20.555 5.628 28.55 10.195 7.992 4.57 7.992 12.865 7.992 12.865s9.136-10.5 12.56-19.985c3.428-9.487 11.42-13.352 12.562-24.256s13.704-9.65 10.278-19.927c-3.426-10.278 3.426-18.27 17.13-17.13 13.7 1.142 14.67 7.845 14.67 16.23 0 4.176-9.194 12.636-10.865 29.828-.77 7.923-2.664 17.89-3.806 28.302s-8.02 23.752-6.852 52.393c2.283 55.953-82.22 39.967-105.06 37.058-22.837-2.91-43.318-.193-55.88 11.538-6.71 6.27-15.18 22.82-26.097 51.626-6.633 17.502-27.297 22.345-47.382 17.016-5.308 1.137-10.043 2.442-14.148 2.442-4.136 0-7.632-1.326-10.424-5.487"/></clipPath><clipPath id="k"><path d="M0 800h800V0H0v800z"/></clipPath><clipPath id="l"><path d="M429.4 587.96h3.966v-10.09H429.4v10.09z"/></clipPath></defs><path d="M0 1000h1000V0H0v1000z" fill="#fff"/><g clip-path="url(#a)" transform="matrix(1.25 0 0 -1.25 0 1000)"><path d="M102.85 166.91c-10.933-2.73-23.795-13.908-10.933-26.004 12.862-12.097 70.745-26.245 105.47-25.602 34.73.642 68.172-.645 95.184-4.18 27.012-3.538 52.33 9.026 82.24 10.098 16.61.595 35.748 3.01 45.745 11.553 14.58 12.463 5.07 28.834-27.697 31.99" fill="#b8d2a2"/><path d="M417.52 276.47c-2.124-.837-3.718-.902-5.97-.81-1.33.054-2.765-.288-4.204-.745.18.83.348 1.678.566 2.506 1.018 3.886 2.525 8.033 1.794 12.083-.165.91-1.15 1.527-2.014 1.533-3.273.03-10.457 1.01-10.194-4.017.023-.45.59-.758.933-.388 1.32 1.432 4.696.896 7.22.497-.13-2.374-.97-4.77-1.61-7.003-.57-1.974-.68-6.264-2.63-7.242-2.31-1.156-.687-4.828 1.735-4.117 3.652 1.07 7.092 2.622 10.95 2.52 2.425-.063 4.796.59 5.558 3.05.363 1.174-.89 2.622-2.133 2.132" fill="#613e35"/><path d="M410.6 283.66c-1.27-.317-2.374-1.312-3.64-1.766-1.303-.466-2.673-.724-3.952-1.26-.837-.353-.547-1.564.38-1.382 2.59.507 7.568-.188 8.672 2.947.313.887-.637 1.665-1.46 1.46M434.03 300.19c-2.063 1.017-4.646 1.884-7.2 2.414 3.278 2.7 6.09 6.228 8.21 9.675.58.944.072 2.53-1.22 2.49-4.045-.124-7.83.017-11.828.65-1.12.177-1.208-1.38-.356-1.795 2.83-1.372 5.873-1.738 8.95-1.907-2.768-3.41-5.83-6.275-9.45-8.965-1.16-.863-.45-2.972.996-2.953 3.933.047 7.54-2.44 11.39-2.174 1.517.105 1.876 1.89.508 2.564" fill="#613e35"/><path d="M435.52 306.99c-1.716.928-3.456.903-5.377 1.107-2.334.248-4.666.445-6.987.81-.877.14-1.38-1.268-.576-1.685 1.934-1.004 3.918-1.83 5.98-2.53 1.967-.67 4.21-1.42 6.276-1.072 1.497.252 2.13 2.588.684 3.37M453.17 335.26c-1.764-.864-3.428-1.034-5.174-1.02.327.66.6 1.354.844 2.077.377 1.113.58 2.158 1.17 3.2.736 1.288 1.538 2.504 2.154 3.86.675 1.484-1.205 3.313-2.432 1.876-2.074-2.432-6.13-2.135-8.83-3.464-.37-.183-.09-.676.26-.618 1.858.312 3.745.182 5.612.413.148.02.294.048.44.08-.51-.79-.938-1.595-1.117-2.38-.467-2.046-1.074-4.01-2.7-5.432-1.18-1.03-.202-2.933 1.222-2.952 2.963-.042 9.04-1.173 10.612 2.298.625 1.383-.647 2.757-2.062 2.062" fill="#613e35"/><path d="M450.36 339.99c-1.736-.408-3.266-1.28-5.056-1.605-1.838-.334-3.822-.102-5.606-.662-.547-.172-.53-.912 0-1.09 1.832-.617 4.036-.713 5.957-.836 2.138-.138 4.634.008 6.245 1.547 1.19 1.135-.046 2.997-1.54 2.646M472 353.99c-3 0-3-4.03 0-4.03 2 0 2 4.03 0 4.03M478 364.05c-2 0-2-3.58 0-3.58s2 3.58 0 3.58M490 369.48c-3 0-3-4.146 0-4.146 2 0 2 4.146 0 4.146" fill="#613e35"/><path d="M95.775 171.44c-11.502 21.907-7.718 73.13 23.153 99.176 23.926 20.187 76.21 38.588 126.38 9.647 0 0 13.506 9.647 25.082-3.858 0 0 14.073 12.54 28.742-2.895 0 0 48.29 21.747 82.842-8.36 29.155-25.405 30.42-65.4 30.42-65.4s21.353-30.48 3.988-45.716c-17.365-15.24-67.995-13.193-91.004-.53 0 0 16.307-8.374 10.33-20.32-5.828-11.648-32.834-16.468-38.306-4.38-4.824 10.657 3.858 16.558 3.858 16.558s-54.267-8.427-62.95-1.19c0 0 7.36-5.377 3.14-13.094-2.405-4.396-22.372-2.18-42.448-2.273-15.183-.07-30.843-4.538-36.66 3.354-13.504 18.327-.963 8.803-.963 8.803s-43.413-11.78-65.6 30.477" fill="#e38424"/></g><g clip-path="url(#b)" transform="matrix(1.25 0 0 -1.25 0 1000)"><path d="M301.23 253.37c-.165 4.416 2.34 8.215 4.227 12.015 1.536 3.094 2.308 6.26 2.447 9.414 2.35 6.372 3.61 13.16 3.713 19.94.11 7.15-10.947 7.134-11.08 0-.007-.42-.028-.835-.047-1.25-3.91 1.77-8.975-2.264-6.523-7.107.968-1.912 1.966-3.75 2.825-5.65-.35-.095-.695-.216-1.03-.38-.082.21-.167.423-.256.632.075.416.007.853-.26 1.246-.232.34-.486.6-.75.824-1.69 3.002-4.108 5.33-7.21 5.668-2.345.7-4.91-.033-6.563-2.58-1.006-1.552-10.887 5.346-11.305 3.452-.262-.858.974-3.093 2.54-5.58-.237-.292-.418-.637-.496-1.05-1.76-9.365-4.287-17.864-1.506-27.373 2.767-9.465 9.008-17.61 12.4-26.852 2.82-7.68.69-16.12 2.836-23.917 1.833-6.662 8.552-8.563 14.134-5.035 5.14 3.247 8.826 10.452 9.657 16.34 1.213 8.6-1.735 16.6-4.625 24.552-1.487 4.094-2.964 8.304-3.128 12.693M247.31 137.47c-.897.46-1.358-1.582-2.33-1.27-2.853 4.053-6.827 8.504-9.324 10.29-5.26 3.758-11.462 7.018-17.867 7.382-6.204.352-11.323-2.237-16.18-5.777-5.277-3.848-8.467-8.015-9.047-14.642-.617-7.065 6.23-11.288 12.29-11.916 5.787-.597 11.72.423 17.498.786 3.435.214 6.874.308 10.314.327 1.91.01 3.834-.146 5.748-.207.236-.263.474-.525.72-.775 1.44-1.467 3.85-1.795 5.615-.724 1.806 1.093 2.924 2.445 3.523 3.952 3.693 3.364 4.282 9.885-.96 12.574M337.8 137.28c-4.078 4.727-10.825 8.955-17.253 9.078-4.582.09-9.182-.45-13.654-1.443-4.974-1.105-9.403-2.913-14.2-4.376-2.464-.753-3.32-4.507-.756-5.786.872-.436 1.71-.807 2.534-1.15-2.984-6.025-.685-14.5 2.382-19.842 4.706-8.194 15.714-8.945 24.052-7.625 7.157 1.134 15.1 4.203 19.304 10.392 4.513 6.647 2.555 14.998-2.408 20.75" fill="#ffd1ae"/><path d="M319.7 147.6c-7.72.902-34.533-2.038-29.29-15.098.75-1.867 2.02-2.987 4.09-3.112 2.626-.16 6.478 1.13 9.853 1.576 3.984.528 7.894.833 11.862.192 3.612-.584 7.597-1.777 10.525-4.06 3.74-2.92 4.94-7.52 8.35-10.76 4.13-3.928 12.27-2.633 13.51 3.566 3.305 16.53-15.297 26.105-28.9 27.696" fill="#ffd1ae"/><g opacity=".3" clip-path="url(#c)"><path d="M188.14 263.2c-3.596 2.138-7.968 2.727-10.872 5.85-2.834 3.05-3.7 8.287-4.483 12.18-2.1 10.428 3.723 24.523-9.396 29.496-3.533 1.34-8.752-1.46-9.32-5.29-.577-3.908.484-7.4.732-11.17-.95.285-2.015.12-2.946-.302-.453-.206-.865-.464-1.257-.746-1.458 3.176-3.065 6.263-4.824 9.232-5.012 8.457-18.263.75-13.178-7.703.705-1.172 1.365-2.353 2-3.54-.697.095-1.41.164-2.164.175-2.65.042-3.004-3.165-1.227-4.53 12.204-9.364 3.867-28.673 3.856-41.28-.017-17.963 21.37-24.4 35.96-22.98 8.454.82 17.33 3.87 22.937 10.576 8.517 10.184 5.24 23.46-5.82 30.032M147.47 161.05c-1.663 3.74-2.352 9.58-6.437 11.975-6.204 3.633-14.277-1.22-18.22-5.95-2.553-3.063-3.556-6.217-3.666-10.186-.114-4.107 2.28-7.578 1.77-11.686-.102-.82 1.035-1.144 1.544-.64.37.367.7.75 1.014 1.14-.44-3.805.327-7.593 3.225-10.603.5-.52 1.043-.856 1.602-1.068.768-1.506 1.632-2.848 2.538-3.926 1.86-2.213 5.606-.758 6.112 1.824 7.74-2.67 16.822 3.724 15.7 13.54-.633 5.517-2.947 10.553-5.182 15.58" fill="#613e35"/></g></g><g clip-path="url(#d)" transform="matrix(1.25 0 0 -1.25 0 1000)"><path d="M98.695 212.44l-.033.328c-.003.02-.007.073-.01.07v-.06c0-.044.004-.09.012-.14.01-.09.004-.06.01-.105-.013-.114.173-.33.003-.197-.163.113-.87.477-2.04.56-1.153.096-2.687-.118-4.183-.782-1.51-.648-2.973-1.75-4.15-3.37-1.175-1.603-2.085-3.82-2.56-6.325-.467-2.546-.45-5.253.157-7.57.306-1.168.774-2.243 1.412-3.227.31-.497.686-.96 1.09-1.41.2-.228.423-.44.643-.66.103-.113.23-.21.344-.32l.174-.16.044-.04.022-.02c-.3.216-.064.046-.122.087l.135-.1.27-.204c.09-.068.197-.15.195-.14.055-.03.083-.062.15-.112.202-.122.41-.243.635-.35.448-.214.944-.387 1.465-.51 1.043-.255 2.183-.262 3.243-.078 2.15.407 3.816 1.575 4.806 3.362.23.464.47.94.617 1.482.1.256.14.548.218.82l.146.795.08.935c.008.272.01.552 0 .818-.02.534-.08 1.04-.186 1.513-.414 1.88-1.563 3.262-3.02 3.99-1.473.714-2.994.743-4.204.483-1.22-.263-2.337-1-3.17-2.03-.84-1.01-1.402-2.146-1.78-2.942l-.57-1.29s-.314.41-.698 1.285c-.365.875-.847 2.255-.682 4.233.09.982.372 2.11.995 3.268.63 1.142 1.615 2.3 2.946 3.168 2.657 1.79 6.516 2.188 10.04.833 1.768-.663 3.49-1.74 4.916-3.228 1.432-1.477 2.56-3.348 3.23-5.36.336-1.007.573-2.044.706-3.086.066-.523.108-1.037.133-1.567l.014-.864-.007-.617-.052-.847c-.022-.262-.032-.52-.066-.786-.082-.53-.127-1.06-.256-1.602-.2-1.078-.558-2.17-.99-3.252-.464-1.076-1.047-2.13-1.753-3.128-.718-.99-1.566-1.9-2.507-2.71-1.89-1.613-4.152-2.768-6.522-3.412-2.374-.636-4.868-.818-7.35-.457-1.244.176-2.484.482-3.702.934-.608.226-1.21.494-1.8.792-.325.17-.68.375-1.01.572l-.65.41-.142.09-.324.233-.352.258c-.234.175-.474.34-.7.53-.46.366-.905.754-1.335 1.166-.86.82-1.676 1.706-2.396 2.67-1.46 1.918-2.584 4.08-3.336 6.286-1.54 4.443-1.626 8.887-1.053 12.972.598 4.133 2.064 8.162 4.513 11.572 2.416 3.41 5.73 6.01 9.16 7.503 3.442 1.506 6.953 1.99 10.153 1.717 3.197-.267 6.185-1.356 8.494-3.188 2.34-1.8 3.687-4.357 4.11-6.075.123-.448.193-.783.262-1.188.03-.21.055-.403.08-.58l.027-.25.006-.102.02-.33c.2-3.308-2.322-6.152-5.63-6.35-3.22-.194-6 2.205-6.33 5.382" fill="#613e35"/><path d="M358.21 284.54c-10.1 6.054-21.154-17.65-30.957-22.88-2.024-1.08-3.917-2.07-5.643-2.84.373-2.398 1.344-4.188 3.404-4.855 6.574-2.126 16.95 3.966 24.652 4.378 7.703.414 13.7-.21 14.78 8.41 0 0-.26 10.57-6.236 17.787" fill="#ffd1ae"/><path d="M358.21 284.54l.024-.013s-1.118 2.935-4.048 4.417c-4.224 2.136-11.706 4.76-21.72 1.905-13.104-3.738-19.932-8.266-20.87-22.953-.742-11.656 3.38-12.032 10.014-9.076 1.726.77 3.62 1.76 5.643 2.84 9.803 5.23 20.857 28.934 30.957 22.88" fill="#613e35"/><g opacity=".6" clip-path="url(#e)"><path d="M391.94 216.92s-.98.312-2.692.768c-.854.23-1.898.484-3.09.746-.596.134-1.23.27-1.905.38-.672.117-1.367.273-2.106.363-.736.108-1.497.234-2.292.287-.792.07-1.603.183-2.442.192-.837.036-1.69.1-2.56.052-.434-.007-.873-.015-1.316-.02-.44-.017-.88-.08-1.326-.117l-1.34-.124-1.33-.248c-.444-.09-.9-.144-1.338-.266-.435-.13-.872-.258-1.31-.387-.9-.202-1.717-.622-2.564-.967-.876-.296-1.616-.854-2.416-1.295l-.597-.34-.038-.02c.023.017-.077-.053.046.034l-.02-.014-.076-.056-.153-.112-.307-.223-.61-.447-.458-.405c-.622-.525-1.214-1.183-1.694-1.825-.457-.668-.818-1.37-1.085-2.106-.234-.75-.376-1.535-.435-2.346-.08-1.632.162-3.338.497-4.99.33-1.656.712-3.277.976-4.825.28-1.544.418-3.03.29-4.364-.102-1.334-.505-2.473-.992-3.284-.496-.812-1.022-1.32-1.39-1.634l-.585-.456.412.608c.267.387.575 1.01.836 1.803.244.806.315 1.813.19 2.95-.13 1.14-.517 2.41-.986 3.81-.483 1.397-1.107 2.912-1.663 4.625-.555 1.704-1.07 3.63-1.132 5.804-.025 1.088.108 2.227.397 3.36.314 1.13.813 2.227 1.46 3.22.678.978 1.397 1.863 2.312 2.648l.68.595.61.457.302.228.15.113.077.056.106.074.044.026.716.425c.972.533 1.893 1.174 2.94 1.532 1.02.418 2.035.845 3.094 1.064.524.13 1.045.262 1.564.392.522.112 1.05.148 1.57.223l1.547.19 1.526.03c.503 0 1.003.026 1.494.004.49-.04.975-.077 1.454-.114.96-.055 1.884-.2 2.777-.36 1.79-.294 3.435-.75 4.92-1.235 1.49-.458 2.814-1 3.96-1.522 1.158-.492 2.122-1.022 2.91-1.458.79-.426 1.38-.824 1.787-1.08.402-.266.606-.42.606-.42" fill="#a05313"/></g><g opacity=".6" clip-path="url(#f)"><path d="M362.42 245.86s-.14-.41-.456-1.172c-.332-.75-.804-1.868-1.57-3.204-.352-.687-.807-1.406-1.298-2.196l-.774-1.23-.914-1.264c-.628-.874-1.29-1.815-2.08-2.73-.39-.463-.787-.938-1.195-1.426-.4-.496-.838-.977-1.307-1.445l-2.848-2.954-1.5-1.532-1.375-1.576c-1.828-2.214-3.464-4.77-4.782-7.562-1.323-2.796-2.19-5.884-2.62-9.074-.428-3.193-.337-6.504.222-9.75.165-.81.264-1.63.468-2.43l.632-2.518c.095-.43.2-.824.288-1.285l.206-1.537c.06-.965.096-1.91.04-2.838-.166-3.725-1.166-7.102-2.123-10.273-.972-3.176-2.1-6.122-3.042-8.93-.918-2.804-1.753-5.45-2.19-7.92-.414-2.465-.518-4.763-.052-6.698.46-1.933 1.397-3.466 2.372-4.57.523-.517.972-1.015 1.446-1.357.452-.37.84-.688 1.193-.89l1.05-.683-1.163.482c-.39.143-.83.395-1.356.694-.548.265-1.09.705-1.722 1.18-1.195 1.01-2.518 2.553-3.286 4.703-.8 2.133-.985 4.726-.76 7.43.44 5.438 2.46 11.345 4.127 17.537.834 3.09 1.516 6.31 1.646 9.446.04.784-.007 1.558-.06 2.315l-.14 1.03c-.077.388-.2.832-.298 1.246l-.67 2.53c-.233.88-.37 1.79-.55 2.687-.574 3.62-.63 7.347-.098 10.943.507 3.603 1.717 7.023 3.287 10.077 1.562 3.07 3.58 5.726 5.712 7.992l1.653 1.65c.546.496 1.08.96 1.62 1.418l3.068 2.644c1.01.808 1.813 1.74 2.683 2.533.87.794 1.613 1.623 2.32 2.397.357.385.702.76 1.034 1.12l.905 1.09c.586.698 1.133 1.336 1.57 1.953.916 1.205 1.598 2.187 2.04 2.872.437.687.648 1.073.648 1.073" fill="#a05313"/></g><g opacity=".6" clip-path="url(#g)"><path d="M384.46 197.94l-.374-.578c-.256-.367-.613-.925-1.12-1.59-.99-1.346-2.464-3.232-4.4-5.35-.97-1.057-2.035-2.192-3.218-3.338-1.187-1.142-2.464-2.326-3.85-3.483-.673-.598-1.407-1.152-2.138-1.727-.723-.586-1.49-1.14-2.272-1.685-.77-.56-1.566-1.102-2.393-1.608l-1.23-.778-1.276-.723c-.85-.484-1.714-.945-2.61-1.352l-2.545-1.187-1.26-.582c-.393-.195-.742-.397-1.114-.59-.746-.366-1.436-.824-2.128-1.264-.36-.207-.674-.448-.977-.695-.303-.247-.63-.474-.918-.72-.537-.52-1.1-1.02-1.505-1.58-.86-1.094-1.468-2.27-1.672-3.484-.186-1.21-.118-2.405.09-3.47.246-1.057.55-1.992.857-2.75.324-.745.574-1.353.787-1.742l.295-.622-.485.49c-.318.318-.77.804-1.288 1.478-.265.334-.515.736-.814 1.163-.284.438-.533.95-.806 1.498-.496 1.124-.922 2.516-.926 4.14-.023 1.627.513 3.408 1.468 4.987.45.828 1.072 1.512 1.684 2.25.32.348.673.656 1.02.985.347.333.704.657 1.09.93.38.29.765.58 1.152.872.39.288.825.525 1.242.793.42.254.853.532 1.272.77.41.21.823.42 1.237.63.83.42 1.665.84 2.504 1.265.814.378 1.61.82 2.398 1.277l1.197.658 1.167.717c.78.474 1.562.938 2.312 1.45 1.525.977 2.998 2 4.42 3.002 2.837 2.012 5.44 3.993 7.68 5.704 4.467 3.505 7.446 5.84 7.446 5.84" fill="#a05313"/></g><path d="M232.56 149.28c-.36.27-.776.45-1.173.648l-.598.293-.634.22-1.26.442-.628.222-.65.155-2.6.614c-.427.117-.865.194-1.31.242l-1.324.18-2.644.362c-.875.15-1.77.168-2.66.23l-5.327.332c-1.78.02-3.565-.002-5.345 0l-2.672-.005c-.89.003-1.78.004-2.67-.065l-10.68-.596-1.75-.097.85 1.53c.14.253.29.564.428.855.128.303.272.6.384.91.24.612.457 1.236.62 1.868.083.316.175.63.225.95.052.32.143.637.162.957.028.318.08.64.092.955l.006.95c-.02.312-.068.62-.097.93-.012.314-.135.598-.197.897l-.114.444-.184.415c-.136.267-.203.573-.397.81l-.49.76c-.2.23-.418.443-.623.667-.107.11-.2.23-.317.33l-.375.278-.745.562-1.98 1.492 2.384.322c.96.13 2.003.35 2.998.595 1.004.247 2.002.533 2.986.86.988.317 1.956.69 2.923 1.07.963.386 1.908.813 2.844 1.264.93.462 1.844.954 2.74 1.477.89.534 1.767 1.088 2.614 1.69.844.6 1.69 1.206 2.478 1.88.812.647 1.566 1.363 2.318 2.08l1.09 1.113 1.03 1.17c.353.384.666.8.99 1.208.318.41.655.81.94 1.246l.892 1.285.815 1.337c.282.44.524.904.764 1.37.24.464.51.916.73 1.39.43.956.906 1.895 1.257 2.887.186.492.387.98.56 1.476l.478 1.508c.35.997.54 2.038.825 3.058.25 1.03.43 2.074.647 3.114-.127-1.052-.213-2.115-.373-3.166-.2-1.044-.338-2.107-.622-3.136l-.383-1.556c-.144-.514-.315-1.02-.47-1.533-.293-1.033-.715-2.02-1.09-3.026-.432-.98-.853-1.975-1.377-2.915l-.774-1.42-.86-1.37c-.276-.466-.602-.896-.914-1.337-.316-.438-.617-.89-.97-1.3l-1.03-1.252-1.096-1.197c-.756-.772-1.52-1.545-2.342-2.248-.802-.73-1.656-1.4-2.524-2.047-.872-.645-1.776-1.242-2.693-1.82-.924-.565-1.867-1.097-2.828-1.6-.966-.49-1.944-.955-2.94-1.38-1-.42-2.01-.812-3.04-1.15-1.027-.35-2.068-.656-3.12-.922-1.064-.267-2.097-.5-3.237-.662l.405 1.815.923-.68.46-.343c.145-.124.272-.274.41-.41.265-.284.54-.558.794-.852l.647-.98c.238-.316.34-.703.51-1.054l.227-.54.146-.562c.08-.376.22-.75.238-1.13.037-.38.09-.76.11-1.14l-.015-1.13c-.02-.373-.077-.74-.114-1.112-.03-.374-.13-.727-.192-1.09-.063-.367-.165-.717-.262-1.07-.188-.71-.432-1.396-.702-2.07-.278-.684-.56-1.32-.944-2.005l-.9 1.435 10.785.386c.898.058 1.8.013 2.7-.015l2.7-.086 2.697-.086c.9-.037 1.8-.038 2.696-.106l5.376-.587c.893-.108 1.792-.155 2.674-.372l2.652-.54 1.323-.268c.442-.077.88-.184 1.31-.33l2.585-.793.645-.2.623-.265 1.236-.547.615-.275.58-.35c.386-.237.78-.45 1.115-.75M327.3 153.51c-.542.738-1.126 1.434-1.73 2.113-.594.684-1.227 1.334-1.856 1.98-.657.623-1.277 1.274-1.962 1.862l-1.005.9-1.044.854-1.038.854-1.086.796c-.728.526-1.433 1.077-2.196 1.55-.756.48-1.474 1.016-2.26 1.445-.782.438-1.546.903-2.318 1.353-.788.423-1.597.807-2.394 1.212-.792.418-1.61.78-2.435 1.128-.824.348-1.637.725-2.47 1.054-.847.294-1.692.59-2.533.905l-1.264.465-1.295.37c-.865.244-1.726.502-2.588.766-.86.27-1.752.415-2.63.63l-2.638.63-.4.097-.06.326c-.444 2.51-.864 5.025-1.19 7.562.827-2.42 1.56-4.862 2.27-7.31l-.457.423 2.735-.37c.907-.155 1.83-.238 2.728-.45.9-.198 1.8-.403 2.698-.624l1.35-.323 1.32-.42c.884-.275 1.762-.568 2.64-.864.866-.326 1.714-.703 2.572-1.053l1.284-.534c.423-.19.827-.42 1.24-.63.822-.43 1.654-.842 2.464-1.292.79-.485 1.59-.956 2.373-1.455.792-.482 1.516-1.07 2.276-1.6.764-.525 1.477-1.12 2.18-1.725l1.056-.9 1.005-.958c.687-.62 1.31-1.306 1.93-1.994.638-.666 1.208-1.397 1.782-2.117.553-.738 1.113-1.47 1.595-2.256.506-.765.955-1.576 1.348-2.4M299.77 145.14s-1.052-.213-2.913-.468c-1.86-.233-4.525-.59-7.745-.776-1.61-.102-3.356-.182-5.207-.188-1.85-.014-3.807-.004-5.828.13-4.042.23-8.373.775-12.59 2.055-2.094.663-4.162 1.52-6.037 2.728-.944.588-1.81 1.31-2.583 2.114-.395.39-.714.86-1.065 1.284-.34.512-.554.885-.834 1.33-.55.81-1 1.78-1.427 2.704-.236.455-.374.932-.536 1.396-.152.465-.33.916-.452 1.377-.467 1.852-.713 3.65-.647 5.31.037 1.654.283 3.155.658 4.432.335 1.288.796 2.352 1.184 3.213.41.853.797 1.488 1.08 1.906.277.422.446.63.446.63s-.138-.23-.352-.684c-.226-.446-.49-1.134-.813-2-.29-.882-.628-1.958-.817-3.226-.226-1.26-.304-2.704-.237-4.254.03-.388.063-.783.095-1.185.043-.4.14-.804.207-1.214.105-.828.405-1.645.626-2.498.14-.42.33-.83.49-1.25.174-.42.324-.856.56-1.246.44-.8.81-1.63 1.422-2.464.267-.395.58-.885.816-1.214.315-.343.582-.728.933-1.05.688-.654 1.446-1.265 2.293-1.786 1.68-1.057 3.605-1.837 5.588-2.445 1.982-.626 4.034-1.08 6.076-1.428 2.045-.328 4.075-.603 6.053-.78 3.954-.37 7.68-.5 10.875-.554 3.197-.04 5.87-.042 7.74.02l2.945.082M396 182.59c-2 0-2-3.377 0-3.377 3 0 3 3.377 0 3.377" fill="#613e35"/><path d="M401.38 187.69s11.073 29.43-4.49 60.037c0 0 23.5-23.797 15.546-65.09" fill="#ffd1ae"/><path d="M407.11 193.31s-19.61 10.91-33.79-10.954c-13.957-21.516-10.906-39-10.906-39s20.237-2.934 34.47-.08c30.68 6.15 38.01 35.808 18.57 46.272" fill="#ffd1ae"/><path d="M369.72 213.38l.238-.235.658-.633 1.025-.928c.397-.348.85-.72 1.347-1.108.468-.41 1.048-.78 1.594-1.208.602-.374 1.17-.825 1.835-1.185.33-.182.638-.4.974-.584.345-.17.69-.344 1.03-.533.332-.202.698-.345 1.06-.502l1.077-.485 2.224-.816c.764-.19 1.5-.453 2.236-.653.747-.153 1.472-.33 2.167-.515l2.007-.38c.63-.137 1.217-.28 1.743-.34.526-.067.993-.167 1.38-.24.776-.154 1.238-.287 1.238-.287s-.408-.213-1.155-.506c-.373-.142-.83-.328-1.366-.493-.268-.083-.553-.194-.858-.267-.306-.07-.63-.122-.97-.187-.68-.11-1.427-.248-2.224-.306-.797-.013-1.646-.013-2.528.018-.876.078-1.782.244-2.7.415-.907.223-1.813.54-2.712.857-.855.436-1.76.773-2.536 1.32-.803.5-1.556 1.04-2.213 1.656-.697.562-1.244 1.246-1.785 1.846-.484.66-.955 1.26-1.285 1.89-.36.604-.62 1.2-.832 1.727-.225.518-.35 1.007-.458 1.396-.2.792-.21 1.264-.21 1.264M385 175.96c-2 0-2-2.984 0-2.984s2 2.984 0 2.984M409 177.8c-2 0-2-2.804 0-2.804s2 2.804 0 2.804M406 168.57c-1 0-1-2.352 0-2.352 2 0 2 2.352 0 2.352M394 170.34c-2 0-2-3.316 0-3.316s2 3.316 0 3.316M378 166.33c-2 0-2-3.015 0-3.015s2 3.015 0 3.015M391 159.41c-2 0-2-3.315 0-3.315s2 3.315 0 3.315M376 155.29c-2 0-2-2.804 0-2.804s2 2.804 0 2.804M415.41 186.32s10.932-21.732-10.935-33.836c0 0 14.684 6.54 17.14 5.728 0 0 4.085 16.974-6.205 29.476" fill="#613e35"/><path d="M401.38 194.44s3.802 10.25 17.09-.38c6.705-5.362 1.248-8.794 1.248-8.794s-14.753-3.4-18.338 9.174" fill="#613e35"/><g clip-path="url(#h)"><path d="M410.8 195.45s-8.344-.97-2.194-6.663c0 0-.757 4.713 2.194 6.663" fill="#ff8a33"/></g><path d="M654.29 132.19c16-3.192 41.674-14.192 22.837-24.192s-37.837-14-57.337-12-47.104 2.418-64.803 3.71c-17.697 1.29-46.608 17.68 3.803 22.29" fill="#b8d2a2"/><path d="M691.29 201l-.062.462c-.017.306-.135.734-.102 1.315l.016.972c.034.347.092.722.146 1.13.064.403.188.82.29 1.274.115.45.32.894.492 1.378.216.462.444.95.716 1.436.298.47.596.97.983 1.422.716.956 1.647 1.834 2.71 2.612 1.07.778 2.315 1.382 3.636 1.833 1.333.435 2.754.626 4.174.665.808-.054 1.26-.033 2.078-.178.757-.087 1.424-.297 2.096-.484 1.323-.45 2.568-1.057 3.638-1.832 1.063-.78 1.996-1.656 2.71-2.613.39-.454.686-.955.986-1.422.272-.486.5-.974.716-1.436.172-.484.375-.93.49-1.378.104-.455.226-.872.29-1.276.055-.407.113-.782.146-1.13l.015-.962c.032-.573-.085-1.026-.102-1.327l-.063-.46-.11.455c-.078.294-.135.727-.317 1.253l-.273.864c-.134.304-.256.634-.396.98-.31.683-.717 1.414-1.2 2.17-.524.73-1.12 1.486-1.85 2.178-.706.72-1.585 1.314-2.495 1.876-.926.553-1.962.95-3.025 1.275-.544.128-1.097.264-1.606.318-.434.107-1.266.097-1.73.132-1.13-.02-2.257-.16-3.335-.447-1.065-.323-2.1-.723-3.026-1.273-.91-.563-1.793-1.157-2.496-1.877-.73-.693-1.33-1.448-1.852-2.18-.48-.756-.89-1.487-1.2-2.17-.138-.347-.26-.676-.395-.98-.098-.31-.19-.596-.27-.854-.182-.52-.24-.977-.32-1.267l-.107-.453" fill="#613e35"/><path d="M688.04 207.38l-.057.577c-.008.38-.134.92-.075 1.638l.052 1.2c.055.43.137.892.215 1.393.09.498.254 1.01.393 1.567.154.553.413 1.096.636 1.69.276.564.566 1.16.912 1.752.376.57.747 1.184 1.232 1.734.893 1.166 2.05 2.232 3.366 3.168 1.324.928 2.84 1.692 4.466 2.222.825.226 1.655.467 2.517.574.428.07.856.147 1.29.158l1.38.075c1.485-.032 3.45-.274 5.035-.8 1.625-.537 3.142-1.297 4.466-2.226 1.317-.936 2.475-2 3.368-3.166.485-.55.854-1.164 1.232-1.734.345-.59.635-1.19.912-1.754.222-.593.48-1.137.636-1.69.138-.557.3-1.07.392-1.567.078-.502.16-.965.214-1.395.02-.434.035-.83.05-1.19.06-.71-.065-1.275-.074-1.65l-.058-.575-.115.57c-.086.367-.137.91-.345 1.575-.093.33-.196.695-.31 1.092-.154.386-.298.804-.462 1.243-.368.87-.855 1.805-1.447 2.773-.64.938-1.378 1.915-2.295 2.81-.88.927-1.99 1.704-3.14 2.444-1.17.73-2.504 1.226-3.862 1.655-1.43.377-2.646.485-4.35.528.147-.003.032-.065.06-.065H704.222l-.068.06-.135.024-.273.003-.543-.013c-.364.003-.722-.053-1.08-.104-.72-.07-1.414-.26-2.11-.428-1.356-.437-2.692-.927-3.862-1.66-1.15-.74-2.26-1.514-3.14-2.444-.917-.894-1.656-1.87-2.296-2.81-.592-.968-1.08-1.902-1.447-2.773-.166-.442-.32-.858-.463-1.242l-.308-1.083c-.21-.655-.26-1.223-.346-1.587l-.114-.568M634.58 365.78c-4.15 5.562-16.938-1.136-11.894-6.123.554-.546 1.636-.256 1.496.644-.38 2.438 4.428 3.57 5.973 2.57 1.96-1.264 1.215-4.503.385-6.058-.475-.888-.897-1.81-1.316-2.725-1.165-2.546-2.487-5.64-1.664-8.456.927-3.17 4.838-3.467 6.765-1.133 1.013 1.226.322 2.933-.94 3.61.05.34.098.752.187 1.03.504 1.573 1.227 3.08 1.94 4.566 2.062 4.288 1.977 8.18-.932 12.077M637.03 340.37c-.19.028-.38.058-.57.085-2.358.355-4.16-2.2-3.244-4.326.915-2.126 4.008-2.575 5.372-.62l.33.473c1.203 1.724.19 4.076-1.888 4.387" fill="#613e35"/><path d="M601.8 326.6s2.814 14.307-20.82 34.942c-13.687 11.95-12.668 6.944-14.96-4.448-2.288-11.39-12.818-47.736 13.247-51.873" fill="#ffc568"/><path d="M664.67 144.69l.154.037.128.025.262.07c.4.11 1.025.293 1.834.577 1.617.554 3.958 1.502 6.665 2.922 1.34.73 2.798 1.54 4.262 2.52 1.48.962 2.992 2.06 4.485 3.294 1.52 1.21 2.963 2.604 4.407 4.062 1.398 1.496 2.786 3.07 4.02 4.774l.936 1.275.866 1.322c.6.87 1.102 1.79 1.63 2.697 1.033 1.825 1.922 3.702 2.703 5.567.756 1.87 1.427 3.722 1.937 5.523l.397 1.33.314 1.31c.194.862.437 1.69.572 2.502.282 1.62.6 3.112.727 4.453.156 1.338.335 2.51.373 3.48l.207 3.056.308-3.057c.126-.974.147-2.162.217-3.53.1-1.373.038-2.917.03-4.617.002-.85-.1-1.73-.148-2.648-.03-.46-.063-.926-.096-1.4-.055-.472-.114-.95-.172-1.437-.212-1.95-.58-3.997-1.044-6.108-.488-2.106-1.096-4.272-1.874-6.432-.402-1.073-.784-2.174-1.274-3.232l-.704-1.61-.788-1.58c-1.047-2.115-2.287-4.134-3.578-6.088-1.34-1.916-2.72-3.784-4.21-5.46-1.467-1.7-2.99-3.26-4.51-4.665-1.504-1.425-3.03-2.66-4.46-3.783-2.89-2.21-5.494-3.83-7.416-4.884-.957-.533-1.747-.925-2.317-1.196l-.382-.177c-.135-.06-.25-.108-.34-.147l-.23-.1-3.89 11.352z" fill="#ffbf6e"/><path d="M604.11 179.38l-18.826 3.59s-.442-9.037-1.404-20.744c.76-6.795 3.226-24.75 8.338-27.958 0 0-5.324 1.494-11.634-1.66-.402-2.615-.83-5.114-1.29-7.438 5.662 3.84 17.807 5.23 40.314-.373 0 0-34.873 18.663-15.498 54.583M605.65 110.47l1.124.21c-.272.005-.543.012-.818.012 0 0-.108-.082-.306-.222" fill="#ffb642"/><path d="M579.3 125.17c.458 2.324.888 4.823 1.29 7.438 1.448 9.448 2.534 20.366 3.295 29.618.963 11.707 1.404 20.744 1.404 20.744l18.825-3.59c-19.375-35.92 15.498-54.583 15.498-54.583-22.506 5.604-34.652 4.214-40.313.373m51.938 107.57c-9.04 10.985-9.04 31.64 2.583 56.382 11.626 24.744-7.272 50.977-34.442 48.94-34.44-2.582-33.58-26.756-43.915-40.534-10.332-13.776-26.693-9.47-19.805-22.386 6.89-12.916 40.47-23.07 40.47-23.07-9.47-59.234-18.08-113.33-18.08-113.33-15.5-10.263 2.152-12.15 2.152-12.15-32.29-12.504 6.458-23.66 14.208-15.658.6.617 1.17 1.57 1.713 2.8 1.36-3.052 4.062-5.667 7.168-6.734 11.134-3.82 20.58 2.223 22.362 3.47.198.14.305.222.305.222.276 0 .546-.006.82-.01 15.546-.23 26.17-6.78 44.692 1.593 10.078 4.555 18.84 12.137 22.394 24.99 9.428 34.095-33.58 84.495-42.622 95.478" fill="#ffe2b4"/><path d="M615.49 313.45c7.668-4.09 7.983-.69 16.06 3.72 6.808 3.72 17.303 7.286 32.86 7.794 19.693.642 15.4-2.864 9.508-14s-21.993-48.88-46.716-34.467" fill="#ffc568"/><path d="M611.51 310.28c4.17-9.474 14.188-6.33 21.854.527 7.665 6.857 18.83 7.54 32.51 8.322 18.497 1.054 4.363-4.572 2.277-10.052-2.085-5.48-19.762-36.548-39.367-29.403l-5.84 4.227s-15.63 35.91-11.433 26.378" fill="#ffe2b4"/><path d="M582 289.94c7 0 7-11.064 0-11.064s-7 11.064 0 11.064M561 306.99c6 0 6-8.782 0-8.782-5 0-5 8.782 0 8.782" fill="#613e35"/><path d="M538.26 283.5s23.523 5 25.023-9-24.515-13.135-29.257 5.433" fill="#ffb642"/><path d="M537.95 287c5.493-1.93 7.668-4.667 2.668-7.334-5-2.666-6.47-1.537-7.334 2.71-.916 4.5 1.69 5.67 4.666 4.624M555 276.07c2 0 2-2.14 0-2.14-1 0-1 2.14 0 2.14M551 281.02c2 0 2-2.03 0-2.03-1 0-1 2.03 0 2.03M550 272.55c2 0 2-2.094 0-2.094-1 0-1 2.094 0 2.094M545 276.48c1 0 1-1.97 0-1.97-2 0-2 1.97 0 1.97" fill="#613e35"/><path d="M625.79 249l1-4.5s-22.5-10.262-53.822-5.95l.715 4.468s7.328-1.538 16.94-1.352c11.284.22 25.718 2.475 35.167 7.334" fill="#e38424"/><path d="M600.87 304.34c-.405.622-1.498.237-1.242-.523 1.443-4.294 1.404-8.404 1.92-12.82.26-2.208 3.262-2.254 3.47 0 .43 4.686-1.64 9.496-4.148 13.343M572.65 322.24c-2.776.228-6.536.41-8.846-1.428-.894-.712.068-2.32 1.12-1.926 1.973.742 4.497.642 6.57.655 1.308.01 4.943.278 5.99-.68.383-.35 1.202-.147 1.133.47-.288 2.562-3.996 2.748-5.967 2.91" fill="#ffb642"/><path d="M213.92 406.05c-25.723-.102-110.11 2.316-110.11-21.345 0-23.662 74.744-25.27 102.87-17.233 28.13 8.037 48.222-6.43 88.407 3.215 40.185 9.645 53.848 39.37-16.878 40.58" fill="#b8d2a2"/><path d="M105.67 501.69l-.394.052c-.254.054-.634.058-1.103.203-.477.126-1.07.292-1.695.59-.636.28-1.34.664-2.033 1.197-.365.247-.685.572-1.053.88-.334.334-.676.694-.993 1.09-.644.79-1.198 1.72-1.668 2.734-.438 1.023-.79 2.13-.986 3.284-.19 1.156-.24 2.35-.17 3.536.107 1.184.33 2.36.692 3.474.368 1.115.885 2.158 1.477 3.104.624.93 1.32 1.763 2.086 2.442.38.338.777.64 1.164.915.416.243.783.514 1.188.692.775.41 1.535.666 2.21.832.672.187 1.275.243 1.763.285.484.06.877.002 1.133.01.258-.01.396-.017.396-.017l-.368-.153c-.238-.102-.592-.216-1.016-.42-.428-.195-.93-.445-1.475-.77-.544-.32-1.12-.73-1.7-1.21-.58-.482-1.135-1.072-1.663-1.726-.53-.656-.99-1.413-1.415-2.214-.396-.822-.73-1.698-.995-2.616-.234-.926-.41-1.88-.486-2.85-.07-.97-.038-1.943.056-2.895.117-.95.323-1.87.584-2.747.297-.86.63-1.685 1.05-2.42.414-.735.866-1.41 1.356-1.986.494-.57.99-1.073 1.47-1.484.487-.413.928-.745 1.313-1.007.38-.274.727-.453.94-.593.218-.14.335-.213.335-.213" fill="#613e35"/><path d="M98.618 500.5l-.49.087c-.317.082-.793.107-1.374.314-.297.1-.625.205-.983.323-.354.13-.708.318-1.107.498-.78.385-1.636.9-2.477 1.597-.438.33-.824.748-1.265 1.15-.387.44-.805.898-1.167 1.414-.762 1.013-1.406 2.192-1.943 3.47-.498 1.288-.878 2.674-1.084 4.112-.19 1.44-.216 2.918-.093 4.388.164 1.465.468 2.915.935 4.292.486 1.372 1.13 2.662 1.88 3.827.787 1.145 1.663 2.172 2.627 3 .466.427.972.788 1.45 1.134.52.294.986.625 1.49.845.976.493 1.928.804 2.776 1 .43.082.82.194 1.193.232l1.02.09c.61.065 1.1-.013 1.422-.006l.496-.027-.477-.146c-.31-.1-.77-.197-1.324-.41l-.913-.342c-.325-.137-.666-.308-1.03-.475-.72-.355-1.49-.824-2.268-1.39-.776-.575-1.535-1.286-2.256-2.095-.728-.807-1.338-1.78-1.93-2.792-.55-1.043-1.012-2.17-1.39-3.348-.334-1.192-.588-2.427-.716-3.68-.12-1.256-.104-2.52-.006-3.756.13-1.234.373-2.43.697-3.57.377-1.113.772-2.197 1.317-3.144.247-.488.572-.907.836-1.355.316-.403.586-.836.916-1.188.635-.726 1.28-1.358 1.9-1.868.32-.248.62-.48.895-.696l.803-.535c.488-.333.934-.534 1.208-.7l.432-.25" fill="#613e35"/><path d="M150.85 458.39c.756-.417 1.528-.812 2.312-1.19-.784.378-1.556.773-2.312 1.19M154.73 437.6c-.444.176-.933.38-1.458.614.525-.233 1.014-.438 1.458-.614M156.86 436.83c-.105.033-.222.07-.347.112l.347-.112M157.61 436.61l-.107.03.107-.03M155.35 437.36c-.19.07-.386.147-.594.23.208-.083.405-.16.594-.23M156.45 436.96c-.294.098-.638.22-1.024.364.387-.145.73-.266 1.024-.364M157.45 436.65c-.126.035-.306.087-.537.16.23-.073.41-.125.537-.16M159.73 454.64c.753-.227 1.517-.433 2.292-.622-.775.19-1.54.395-2.292.622M156.57 455.72c.856-.33 1.727-.64 2.615-.92-.888.28-1.76.59-2.615.92M157.67 436.59l-.045.012.045-.012M162.8 453.84c.953-.213 1.916-.407 2.903-.56-.987.153-1.95.347-2.903.56M143.89 443.72c-.784.58-1.583 1.202-2.39 1.872.808-.67 1.606-1.292 2.39-1.872M136.16 470.26c-13.72 15.122-19.487 34.557-19.487 34.557.785-19.15 5.413-33.06 11.294-43.117.332.42.642.85.987 1.262 2.197 2.626 4.645 5.026 7.206 7.298M139.32 467.02c-.09.088-.186.173-.276.26.09-.087.185-.172.276-.26M137.77 448.98c.82-.815 1.642-1.58 2.456-2.296-.814.716-1.635 1.48-2.456 2.296M141.46 445.63c-.392.324-.785.66-1.18 1.008.395-.347.788-.684 1.18-1.008M145.1 442.85c-.377.263-.758.536-1.142.82.385-.284.765-.557 1.142-.82M150.49 439.56c-.96.506-1.99 1.09-3.07 1.763 1.082-.672 2.11-1.257 3.07-1.763M147.35 441.37c-.73.455-1.48.947-2.248 1.483.77-.536 1.52-1.03 2.248-1.483M153.93 456.84c.626-.288 1.26-.562 1.905-.824-.644.262-1.28.536-1.905.824M153.19 438.25c-.797.355-1.678.777-2.628 1.277.95-.5 1.83-.922 2.628-1.277M143.57 463.27c.418-.333.845-.658 1.273-.98-.43.322-.855.647-1.273.98M137.34 469.01c.175-.184.352-.366.53-.548-.178.182-.355.364-.53.548M129.11 459.82c-.384.61-.765 1.236-1.14 1.877.375-.64.755-1.267 1.14-1.877M141.62 464.91c.296-.258.594-.515.896-.768-.302.253-.6.51-.896.768M137.7 449.05c-.392.39-.786.792-1.177 1.206.392-.414.785-.815 1.177-1.206M130.23 458.11c-.36.532-.716 1.076-1.07 1.634.354-.558.71-1.102 1.07-1.634M136.47 450.31c-.815.862-1.63 1.776-2.437 2.742.808-.967 1.622-1.88 2.437-2.742M132.73 454.67c-.792 1.02-1.576 2.093-2.346 3.223.77-1.13 1.554-2.204 2.346-3.223M133.92 453.19c-.38.46-.762.93-1.14 1.415.378-.484.76-.955 1.14-1.415M146.14 461.35c.484-.342.973-.678 1.47-1.005-.497.326-.986.664-1.47 1.005M148.54 459.76c.526-.33 1.06-.647 1.6-.958-.54.31-1.074.63-1.6.958" fill="#713e07"/><path d="M140.28 446.63c.395-.347.788-.684 1.18-1.008l.04-.034c.808-.67 1.607-1.292 2.39-1.872l.063-.046c.384-.283.764-.557 1.14-.82.003 0 .005-.002.007-.003.768-.536 1.52-1.03 2.247-1.483l.07-.044c1.08-.67 2.11-1.256 3.07-1.762l.068-.036c.95-.5 1.83-.922 2.628-1.277l.087-.04c.525-.232 1.013-.437 1.458-.614l.022-.007c.208-.082.405-.16.594-.23l.08-.03c.387-.145.73-.266 1.025-.364l.056-.02c.125-.04.24-.08.347-.112l.058-.02c.23-.07.412-.124.537-.158l.05-.015c.042-.01.082-.022.107-.03.006 0 .01 0 .014-.002l.045-.012 8.035 16.684c-.986.15-1.95.345-2.902.558-.263.058-.522.12-.782.184-.775.19-1.54.395-2.292.622-.18.054-.362.102-.54.158-.89.28-1.76.588-2.616.918-.246.096-.487.198-.73.297-.645.262-1.28.537-1.906.825-.257.118-.517.233-.77.357-.785.378-1.557.772-2.313 1.19-.242.133-.476.276-.715.414-.54.31-1.075.628-1.6.958-.31.193-.618.388-.922.588-.497.327-.986.663-1.47 1.005-.438.31-.87.624-1.297.945-.428.32-.855.646-1.273.98-.357.284-.71.573-1.058.866-.302.253-.6.51-.896.768-.786.685-1.554 1.387-2.3 2.106-.09.088-.186.173-.276.26-.4.39-.79.788-1.177 1.186-.177.18-.354.364-.53.547-.395.416-.788.833-1.172 1.256-2.56-2.272-5.008-4.672-7.205-7.297-.344-.413-.654-.843-.987-1.262l.002-.002c.375-.64.756-1.267 1.14-1.877.017-.025.034-.05.05-.078.353-.558.71-1.102 1.07-1.634.05-.072.097-.145.146-.216.77-1.13 1.553-2.204 2.345-3.223l.052-.064c.378-.484.758-.955 1.14-1.415l.115-.138c.807-.966 1.62-1.88 2.436-2.742l.056-.06c.39-.412.784-.814 1.177-1.204l.074-.074c.822-.815 1.642-1.58 2.456-2.296l.054-.046" fill="#975309"/><path d="M199.79 442.62s-.195-24.434-3.897-43.942c25.82 6.4 46.562 2.204 57.305-1.193-4.453 20.136-7.425 49.984-7.425 49.984l-45.983-4.85z" fill="#ffb985"/><path d="M179.51 393.19s-4.52 33.173-4.276 62.075c0 .195.005.393.007.588.013 1.27.034 2.553.062 3.846.008.396.015.793.025 1.192.035 1.428.08 2.868.134 4.32l.054 1.315c.017.41.03.817.05 1.23l.01.003c5.644 2.574 13.49 1.177 19.263 3.31 8.172 3.017 11.376 10.29 12.392 18.403.704 5.632-.498 13.15 2.51 18.134 1.103 1.826 3.974.622 5.294-.16 3.608-2.136 6.472-4.543 10.504-5.982 7.767-2.772 14.885 1.483 20.616 6.314 1.05-1.283 1.893-2.74 2.67-4.192 1.534-2.858 2.385-6.1 3.37-9.18 2.4-7.5 5.038-14.637 10.196-20.708 1.3-1.53 2.773-2.805 4.363-3.875-2.888 27.926-15.47 57.47-15.47 57.47l-59.863 14.58c-8.694-17.93-13-39.48-14.9-60.16-5.4-14.153-13.38-29.65-23.766-35.334-20.897-11.433-6.384-40.345-6.384-40.345s-25.696 3.16-23.286-9.708c1.835-9.79 26.02-11.24 37.477-11.373 2.058 5.85 10.227 12.663 18.95 8.24M292.69 411.27s9.644 23.716-11.252 35.15c-5.245 2.87-9.88 8.245-13.886 14.686.02-.194.034-.388.053-.583 2.497-26.29 7.55-62.693 7.55-62.693s11.104 5.477 15.927-9.225c.025-.08.036-.153.06-.23 9.293.02 18.834 1.644 20.032 8.04 2.412 12.867-18.484 14.855-18.484 14.855" fill="#cc8e11"/><path d="M275.15 397.83s-5.053 36.403-7.55 62.693c-.018.195-.034.39-.053.583-.203 2.156-.4 4.316-.582 6.465-.063.75-.138 1.505-.215 2.26-1.59 1.068-3.064 2.344-4.363 3.873-5.158 6.07-7.795 13.21-10.196 20.71-.984 3.078-1.835 6.32-3.368 9.18-.778 1.45-1.62 2.907-2.672 4.19-5.73-4.832-12.848-9.086-20.615-6.315-4.032 1.44-6.896 3.846-10.504 5.982-1.32.782-4.19 1.986-5.292.16-3.01-4.985-1.807-12.502-2.512-18.134-1.016-8.112-4.22-15.385-12.392-18.404-5.772-2.132-13.62-.735-19.264-3.308l-.01-.004c-.018-.412-.032-.82-.05-1.23-.017-.44-.036-.878-.052-1.315-.054-1.45-.1-2.892-.134-4.32-.01-.4-.017-.795-.026-1.192-.027-1.294-.048-2.577-.06-3.847-.003-.194-.006-.393-.007-.588-.243-28.9 4.277-62.075 4.277-62.075-8.723 4.423-16.892-2.388-18.95-8.24-.37-1.06-.545-2.088-.484-3.012.403-6.026 14.065-15.27 26.663-5.625 4.326 3.312 7.22 12.164 9.154 22.364 3.702 19.507 3.897 43.94 3.897 43.94l45.984 4.85s2.972-29.848 7.425-49.984c1.62-7.317 3.433-13.352 5.37-16.206 7.234-10.65 36.997-7.406 32.572 7.094-.024.078-.034.152-.06.23-4.82 14.704-15.924 9.227-15.924 9.227" fill="#ffe5c5"/><path d="M259.94 571.65c.184 18.5.635 32.908-1.223 44.246-12.132 5.546-31.285 9.786-42.066-10.987 0 0-26.967 30.534-43.79 3.716.34-11.12 3.036-24.665 6.1-41.836 1.157-6.472 2.088-12.852 2.682-18.943.314-.43.626-.857.936-1.278 10.85-14.74-1.714-30.413 34.707-31.62 36.42-1.204 41.243 12.057 38.832 27.73-.773 5.024 1.185 10.132 3.995 15.935-.166 4.244-.216 8.61-.172 13.035" fill="#cc8e11"/><path d="M272.71 627.87l-.006.003.006-.004zM172.86 608.63c16.824 26.818 43.792-3.717 43.792-3.717 10.78 20.773 29.934 16.532 42.066 10.987-1.586 9.674-4.85 17.115-11.412 22.937 0 0 .318-.05.846-.164-40.25 13-67.152-1.69-78.152-8.662 6 3.575 10.3 5.133 10.3 5.133-5.87-7.29-7.77-15.77-7.44-26.513" fill="#975309"/><path d="M172.86 608.63c-.33 10.742 1.538 19.224 7.41 26.513 0 0-4.412-1.558-10.332-5.134-5.698-3.442-12.79-8.752-18.703-16.36-12.056-15.512-30.14-36.95-22.905-56.37 7.233-19.42 10.85-55.586 33.755-55.586 18.514 0 22.06 20.48 19.558 46.157-.594 6.092-1.525 12.472-2.68 18.944-3.066 17.17-5.762 30.715-6.103 41.836M279.51 622.46c-2.214 2.035-4.505 3.83-6.797 5.41l-.006.005c-10.78 7.44-21.588 10.15-24.583 10.795-.527.114-.814.164-.814.164 6.56-5.822 9.826-13.262 11.41-22.937 1.86-11.337 1.41-25.745 1.225-44.246-.044-4.423.006-8.79.172-13.034 1.12-28.65 7.603-51.67 27.276-48.36 22.588 3.802 20.15 40.068 24.06 60.417 3.91 20.352-17.48 38.49-31.943 51.787" fill="#713e07"/><path d="M188.21 525c1.634-8.835 12.056-16.294 38.578-13.37s33.246 10.83 29.707 28.003c-1.55 7.517-12.83 11.086-28.904 18.385l-8.036 20.484-5.626-22.428S184.938 542.688 188.21 525" fill="#ffe5c5"/><path d="M225.35 546.11c-20-2.13-22.403-7.12-11.144-17.253 11.258-10.133 11.258-10.133 21.44 2.19 10.183 12.323 2.91 16.47-10.296 15.063" fill="#713e07"/><g clip-path="url(#i)"><path d="M222.66 543.08c6.08 3.107-13.554-4.42-9.535-8.44 4.018-4.017 9.535-8.438 9.535-8.438s-13.37 10.046 0 16.878" fill="#ff8a33"/></g><path d="M199.79 575.29c0-2.547-2.065-4.612-4.612-4.612s-4.612 2.065-4.612 4.612c0 2.546 2.065 4.61 4.612 4.61s4.612-2.064 4.612-4.61M249.22 578.91c0-2.547-2.065-4.612-4.612-4.612s-4.612 2.065-4.612 4.612c0 2.546 2.065 4.61 4.612 4.61s4.612-2.064 4.612-4.61" fill="#613e35"/><path d="M191.48 597.72c-5.676 1.792-10.096-.65-12.88-5.74-1.22-2.232 1.94-4 3.36-1.965 2.484 3.56 5.53 4.926 9.52 6.26.706.235.724 1.217 0 1.445M242.3 602.66c5.067 3.122 9.95 1.833 13.89-2.424 1.73-1.866-.904-4.35-2.777-2.724-3.278 2.844-6.566 3.426-10.76 3.745-.742.056-1 1.005-.353 1.403" fill="#975309"/><path d="M256.83 669.89c2.122 2.314 2.557 5.13 3.395 8.103.877 3.116 1.735 6.227 2.503 9.372.748 3.06-3.347 4.45-4.616 1.567-1.305-2.963-2.518-5.954-3.718-8.96-1.146-2.868-2.514-5.367-2.24-8.495.18-2.04 3.293-3.095 4.676-1.587M252.16 663.83c-2.226.755-4.714-.472-5.47-2.698-.756-2.225.472-4.714 2.698-5.47 2.226-.755 4.714.472 5.47 2.698.755 2.226-.472 4.715-2.698 5.47" fill="#613e35"/><path d="M489.62 444.94c-19.763-.493-54.51-3.654-54.595-14.525-.086-10.87 32.93-23.57 64.04-19.125 31.11 4.444 60.316 15.237 91.427 11.428 31.11-3.81 67.82-10.793 88.83-5.08s44.5 21.588-21.53 24.762c-66.03 3.174-142.69 3.174-168.17 2.54" fill="#b8d2a2"/><path d="M675.73 655.87s.41.027 1.116-.046c.71-.058 1.706-.235 2.883-.56.573-.19 1.216-.37 1.854-.658.65-.262 1.32-.58 1.988-.965.688-.348 1.334-.83 2.005-1.292.645-.5 1.28-1.046 1.88-1.63.548-.637 1.17-1.207 1.61-1.926.484-.676.93-1.363 1.24-2.1.166-.362.338-.71.486-1.06.12-.36.22-.722.317-1.07.09-.35.18-.687.265-1.014.08-.326.084-.662.12-.97.048-.626.09-1.19.08-1.688-.043-.503-.114-.937-.164-1.29-.107-.703-.204-1.09-.204-1.09s-.165.39-.39 1.044c-.11.326-.252.716-.376 1.16-.175.434-.42.906-.627 1.42-.183.523-.49 1.043-.8 1.587-.146.273-.298.552-.452.838-.194.264-.374.54-.565.817-.202.27-.35.574-.577.838-.225.263-.446.532-.662.81-.407.567-.957 1.047-1.43 1.582-.502.512-1.047.992-1.57 1.478-.566.443-1.078.94-1.644 1.343-.275.214-.544.425-.81.63-.273.2-.542.392-.803.58-.514.397-1.04.717-1.502 1.06l-1.31.886-1.035.68-.923.608" fill="#613e35"/><path d="M675.59 662.78s.546.09 1.51.096c.96.002 2.348-.053 3.98-.38 1.64-.298 3.53-.856 5.44-1.778.96-.452 1.918-1.003 2.84-1.648.932-.632 1.805-1.385 2.632-2.188.805-.824 1.56-1.706 2.188-2.656.314-.473.628-.942.875-1.442.27-.485.52-.973.716-1.476.22-.492.413-.982.556-1.48.165-.486.31-.966.405-1.446.248-.944.33-1.862.425-2.693.04-.84.096-1.6.034-2.278-.036-.674-.065-1.257-.153-1.734-.147-.954-.266-1.486-.266-1.486s-.142.54-.33 1.462c-.074.462-.257 1.012-.393 1.64-.13.63-.394 1.315-.583 2.067-.27.734-.524 1.53-.884 2.33-.16.407-.34.815-.553 1.22-.196.41-.4.825-.645 1.225-.443.826-.994 1.62-1.572 2.402-.587.777-1.236 1.525-1.94 2.224-.7.703-1.447 1.362-2.227 1.966-.78.602-1.58 1.163-2.394 1.664-.804.514-1.624.952-2.406 1.372-.794.394-1.55.784-2.27 1.096-1.44.637-2.687 1.11-3.573 1.433l-1.41.49" fill="#613e35"/><path d="M642.83 584.19c-.023-.003.135.01.19.004.034-.002.077-.005.127-.01.056-.002.18.008.287.01.453.018 1.193.08 2.148.194 1.913.243 4.74.71 8.014 1.71 1.644.485 3.383 1.123 5.176 1.905 1.812.763 3.598 1.76 5.42 2.87 1.776 1.154 3.538 2.475 5.176 4.006 1.595 1.556 3.174 3.248 4.45 5.185 1.367 1.886 2.413 4.003 3.396 6.155.392 1.11.848 2.205 1.198 3.33.293 1.137.668 2.256.898 3.394.206 1.14.458 2.268.623 3.39l.37 3.322c.075 1.088.087 2.155.132 3.192.066 1.04.028 2.043-.01 3.01l-.095 2.79-.246 2.512c-.078.794-.15 1.537-.22 2.224-.086.685-.202 1.307-.288 1.875l-.573 3.576 1.322-3.382c.205-.54.455-1.136.688-1.796.215-.667.45-1.387.697-2.157l.794-2.47.707-2.797c.255-.978.516-2 .683-3.083.186-1.078.413-2.195.58-3.357l.376-3.612c.085-1.24.083-2.52.125-3.832.016-1.31-.118-2.645-.18-4.012-.117-1.36-.356-2.735-.545-4.14-.582-2.76-1.3-5.61-2.467-8.323-1.073-2.76-2.572-5.354-4.2-7.817-1.67-2.437-3.57-4.66-5.554-6.67-2.018-1.957-4.085-3.765-6.18-5.258-2.082-1.518-4.14-2.83-6.102-3.914-3.914-2.21-7.397-3.614-9.92-4.522-1.27-.446-2.293-.768-3.05-.977l-.51-.14-.455-.11-.286-.072-2.697 17.797z" fill="#818a88"/><path d="M468.43 511.65c.145-6.506.313-13.173 2.286-19.432 1.476-4.688 3.583-9.172 5.513-13.69 1.975-4.626 3.95-9.27 6.18-13.782.5-1.003 1.02-1.996 1.537-2.993l.744 43.806-20.554 15.682c-.096-1.876-.224-3.66-.37-5.363 2.227-.028 4.605-1.615 4.664-4.23" fill="#acb8b5"/><path d="M415.93 676.74s-2.892 3.09-7.18 3.492c-2.66.25-5.226-1.363-9.887-2.887-12.186-3.982-13.36-8.228-10.595-20.296 2.766-12.067 10.786-12.878 14.685-.29 6.28 20.268 12.977 19.98 12.977 19.98M637.23 468.39l-.1.242.1-.242M642.34 459.63c-.074.062-.144.143-.215.21.07-.067.14-.148.215-.21M638.45 465.6c-.06.125-.116.255-.175.383.06-.128.115-.258.175-.383M636.62 469.89c-.01.028-.02.057-.032.084.01-.027.02-.056.032-.084M642.98 476.3c7.65.576 11.842 7.383 14.106 13.986 1.637 4.77-2.548 7.585-6.408 7.037-.037.183-.057.358-.102.543-.19.767-.498 1.413-.892 1.944.685 1.902.884 3.846.413 5.78l14.257-17.546-29.69 36.54-28.93-25.12c10.66-7.188 24.36-12.942 27.407-20.556.07-.174.14-.355.21-.532 3.132-1.33 6.39-2.32 9.63-2.076M639.07 464.32c-.066.13-.132.27-.2.406.068-.135.134-.275.2-.406M637.83 466.96c-.047.11-.096.226-.145.337.05-.11.098-.226.145-.337M640.34 462.07c-.08.12-.153.254-.23.38.077-.126.15-.26.23-.38M641.66 460.3c-.08.088-.157.193-.236.287.08-.094.157-.2.236-.287M639.7 463.14l-.215.403c.07-.133.144-.274.215-.403M641 461.12c-.08.107-.158.23-.237.342.08-.113.157-.235.237-.342" fill="#565c5b"/><path d="M664.36 488.05l-14.257 17.546c.47-1.934.272-3.878-.413-5.78.394-.532.7-1.178.892-1.944.045-.185.065-.36.102-.543 3.86.547 8.045-2.27 6.408-7.038-2.264-6.603-6.457-13.41-14.106-13.986-3.24-.244-6.498.744-9.63 2.076 1.065-2.694 2.13-5.635 3.232-8.408.01-.027.02-.056.032-.084.17-.423.34-.84.51-1.255.032-.08.065-.162.1-.242.152-.372.307-.736.462-1.097.05-.11.098-.225.145-.337.145-.333.293-.655.44-.975.058-.128.114-.258.174-.383.14-.3.28-.585.422-.87.067-.135.133-.276.2-.407.137-.268.274-.522.414-.776.07-.135.144-.275.215-.404.14-.242.276-.467.415-.693.076-.126.15-.26.23-.38.136-.216.276-.412.415-.61.08-.114.158-.236.238-.343.14-.19.286-.36.43-.53.08-.095.158-.2.237-.288.154-.17.31-.314.466-.46.073-.068.142-.15.216-.21.23-.2.462-.37.698-.51 3.806-2.284 5.33-12.942 5.33-12.942s-10.66-3.045-6.092-10.658c4.568-7.614 13.703-8.373 27.406-3.806s-5.328 56.334-5.328 56.334" fill="#acb8b5"/><path d="M464.14 521.24c-.76-14.92-3.613-24.057-.665-32.43 1.927-5.472 2.346-11.462 2.576-17.166v.053c1.528-3.97 3.098-7.92 4.76-11.84 2.127-5.022 4.252-9.786 8.96-12.866 1.35-.88 2.714-.998 3.92-.624l-.275-16.176 1.28 75.367-20.555 15.683zM466.21 467.5c-.006.165-.013.333-.018.5.005-.167.012-.335.018-.5M466.3 465.43c-.022.465-.045.934-.065 1.407.02-.473.043-.942.065-1.407M466.46 462.92c-.047.624-.088 1.262-.123 1.906.035-.644.076-1.28.123-1.906" fill="#565c5b"/><path d="M479.77 446.99c-4.71 3.08-6.834 7.844-8.96 12.866-1.663 3.92-3.233 7.87-4.762 11.84 0-.02 0-.036.002-.053.052-1.235.093-2.45.14-3.65l.017-.497.03-.664c.02-.472.042-.942.064-1.406.013-.2.022-.398.033-.596.036-.644.077-1.28.124-1.905.314-4.047-.84-12.562-.84-12.562s-11.144-9.044-2.143-17.128c11.87-10.658 19.94-3.046 19.94-3.046l.275 16.175c-1.207-.374-2.572-.256-3.92.625" fill="#acb8b5"/><path d="M402.41 622.22s-4.428 20.46 11.338 43.964c5.56 8.29 13.914 5.33 24.572 3.045 20.085 5.328 40.75.485 47.382-17.017 10.916-28.806 19.386-45.356 26.098-51.625 12.56-11.732 33.042-14.448 55.88-11.538 22.836 2.91 107.34 18.896 105.06-37.058-1.17-28.64 5.708-41.98 6.85-52.393 1.142-10.413 3.036-20.38 3.806-28.302 1.672-17.193 10.865-25.653 10.865-29.828 0-8.386-.967-15.088-14.67-16.23-13.702-1.142-20.554 6.85-17.128 17.13 3.426 10.276-9.136 9.022-10.278 19.926s-9.134 14.77-12.56 24.256c-3.426 9.487-12.562 19.985-12.562 19.985s0-8.296-7.993-12.864c-7.995-4.568-18.272-12.147-28.55-10.196-8.088 1.536-11.418 2.284-17.127 0-5.71-2.283-20.555-3.835-30.832 2.184-4.407 2.58-17.508-2.504-23.98.892-6.47 3.397-9.135 7.203-9.135 7.203s-4.567-29.463-3.426-42.138c1.14-12.674 0-28.88-14.844-28.77-14.847.11-23.982 4.634-22.84 14.362 1.142 9.726 12.56 9.726 12.56 9.726s-11.418 28.548-10.276 36.54c1.143 7.995-1.8 21.607-6.61 30.217-4.81 8.61-2.806 16.515-2.665 19.985.14 3.47-7.29 38.267-7.29 38.267l-51.626 50.278z" fill="#818a88"/></g><g clip-path="url(#j)" transform="matrix(1.25 0 0 -1.25 0 1000)"><path d="M510.64 459.6c-3.397 3.438-8.412 4.703-12.99 5.566-4.192.79-6.596 5.485-10.026 7.896-2.267 1.596-4.732 2.645-7.307 3.652-1.26.492-3.144.524-4.16 1.458-1.758 1.612-2.486 6.083-3.242 8.3-.984 2.883-1.998 5.53-4.412 7.46-2.626 2.104-6.066 1.936-8.003-1.03-3.743-5.733-.677-13.73.61-19.89 1.374-6.566 7.873-9.83 13.56-11.717 2.168-.72 3.982-2.196 5.683-3.89-2.07-.4-4.13-.917-6.262-1.194-.743.486-1.566.93-2.505 1.312-6.676 2.73-13.344-1.376-17.884-6.083-7.424-7.697-8.543-19.725 1.092-26.014 6.184-4.036 15.088-3.39 22.494-2.19 1.454-.942 2.998-1.76 4.66-2.4 10.383-3.998 23.718-.233 30.013 9.032 5.95 8.755 6.424 21.895-1.32 29.732" fill="#e6e4de"/><path d="M484.81 453.69c-.136.578-.494 1.12-1.14 1.5-.366.212-.722.43-1.08.65-.218.21-.424.416-.608.608-3.285 3.45-6.128 8.91-10.412 11.295-4.138 3.098-11.62-1.24-8.77-7.82.885-2.043 2.81-3.99 4.098-5.837 1.562-2.244 3.184-4.388 5.066-6.373 3.597-3.793 10.91-8.455 15.51-3.554 2.983 3.178.147 6.733-2.664 9.53M702.57 482.06c-5.572 5.572-13.78 4.575-19.104-.6-4.16-4.044-9.4-6.704-13.435-10.884-4.112-4.265-5.61-7.555-11.995-6.925-5.92.585-11.262 4.818-16.878 6.538-4.062 1.246-6.323-3.165-4.937-6.42 4.128-9.683 13.36-16.55 23.482-18.006-4.77-4.285-5.944-11.57-3.56-17.426 2.612-6.41 8.116-10.992 14.948-12.373 7.622-1.537 14.285 1.86 19.985 6.592 8.02 6.657 10.91 16.956 11.134 27.137 6.523 8.746 8.45 24.28.36 32.368" fill="#e6e4de"/></g><g clip-path="url(#k)" transform="matrix(1.25 0 0 -1.25 0 1000)"><path d="M456.34 632.46c1.892 0 3.16-.956 3.827-2.24 2.072 2.4.993 7.088-3.258 7.088-2.812 0-3.885-3.21-3.235-5.68.684.515 1.57.832 2.665.832M416.37 633.9c1.57 0 2.61-.81 3.143-1.887 1.41 2.508.176 6.437-3.713 6.437-3.286 0-4.196-4.378-2.752-6.84.456 1.276 1.56 2.29 3.322 2.29" fill="#2b2e2d"/><path d="M391.6 607.64l5.504 1.63s-5.094-3.346-2.895-21.88l4.942 1.715s2.202-13.385 4.706-19.563l4.122 1.372s11.924-10.216 24.12-13.98c0 0 25.4 2.078 30.206 12.32l3.43-4.86s7.553 10.982 4.12 23.338l7.552-2.134s2.747 13.407-4.12 24.407h5.15s-14.3 24.476-45.51 11.577c-14.846 8.333-36.962 8.71-41.328-13.942" fill="#e6e4de"/><path d="M422.94 580.07s3.712-11.134 12.277-7.422c8.564 3.71 9.63 17.112 9.63 17.112l-21.907-9.69z" fill="#9a9d9d"/><path d="M436.09 586.5c-2.718-1.11-5.404-1.116-8.235-.122-2.018.71-3.866 1.54-5.275 3.047-1.29-6.332-1.667-15.33 6.11-16.723 7.916-1.42 12.916 8.456 14.2 14.26-1.895.25-4.672-.337-6.8-.462" fill="#ff9a82"/><g opacity=".7" clip-path="url(#l)"><path d="M433.37 586.82c-1.116.326-2.262.698-3.393 1.132-1.218-5.023-.114-10.09-.114-10.09.318 3.062 2.207 6.736 3.507 8.958" fill="#bf7462"/></g><path d="M453.52 591.47s-.51-.43-1.496-1.04c-.49-.313-1.102-.662-1.818-1.04-.725-.354-1.537-.792-2.468-1.144-.463-.185-.943-.397-1.448-.582-.508-.18-1.04-.342-1.587-.522-1.09-.36-2.273-.637-3.497-.922l-1.89-.32-.964-.16-.985-.08-1.994-.156c-.67-.032-1.345-.002-2.02-.005-.672.024-1.348-.003-2.016.07s-1.333.15-1.993.223c-1.325.098-2.592.466-3.823.73-1.24.227-2.37.737-3.46 1.1-.536.208-1.077.353-1.563.597l-1.4.707c-.89.46-1.72.84-2.39 1.303-.677.45-1.25.866-1.72 1.203-.94.677-1.448 1.09-1.448 1.09s.644-.19 1.726-.562c.54-.188 1.196-.408 1.927-.69.36-.154.774-.245 1.2-.36l1.33-.378c.918-.274 1.906-.567 2.984-.764 1.073-.2 2.17-.524 3.35-.64 1.175-.142 2.365-.398 3.606-.442.615-.05 1.236-.098 1.86-.147.62-.064 1.25-.023 1.878-.042.628-.006 1.256-.045 1.882-.023.626.027 1.25.055 1.867.08 1.24.01 2.45.216 3.636.284 1.17.178 2.323.27 3.397.472 1.076.197 2.105.36 3.043.57 1.886.39 3.456.792 4.558 1.09l1.28.363.456.135" fill="#565c5b"/><path d="M435.86 621.29c-10.61.555-21.136-3.063-14.086-14.05 7.054-10.99 13.938-12.657 23.666-2.086 9.73 10.572 1.048 15.58-9.58 16.136" fill="#202322"/><path d="M433.53 618.27s-6.013.627-10.02-1.905 3.81-11.428 3.81-11.428-8.213 11.428 6.21 13.333" fill="#454c53"/><path d="M425.83 670.75s-12.727 8.772-15.202 8.202-12.33-17.337-12.33-17.337 4.377-9.136 8.522-17.977c.992 22.543 19.01 24.828 19.01 24.828M459.53 662.51s9.392 11.337 11.762 11.332c2.368-.006 15.26-14.107 15.26-14.107l-.826-9.073-25.652 9.63" fill="#787d7c"/><path d="M467.03 670.52s1.873 3.642 5.65 4.98c2.34.833 5.038-.164 9.61-.612 11.944-1.17 14.016-5.033 14.394-17.365.38-12.33-6.66-14.895-13.18-3.534-10.498 18.293-16.474 16.53-16.474 16.53" fill="#565c5b"/><path d="M427.71 656.25s-13.855 3.924-23.203.37l3.146-4.09s-5.3.142-14.98-6.083l7.128-2.604-7.665-9.328s24.406 13.605 42.105 8.077l3.63 16.852-10.16-3.194zM451.77 653.46s13.01 2.036 21.104-2.22l-3.307-3.366s4.83-.456 12.927-7.175l-6.757-1.577s3.195-5.016 5.93-9.314c0 0-20.654 15.04-37.33 11.97l-1.44 15.7 8.873-4.02z" fill="#e6e4de"/><path d="M401.42 556.71s-.316-.01-.847.03c-.264.01-.587.046-.958.146-.377.08-.81.184-1.237.36-.446.152-.906.37-1.378.635-.49.245-.938.598-1.424.946-.447.39-.93.784-1.33 1.27-.44.455-.79.997-1.158 1.524-.307.567-.642 1.12-.85 1.725-.26.58-.387 1.202-.53 1.785-.08.603-.186 1.174-.16 1.73l.022.798.11.738c.06.47.206.886.332 1.246.104.363.25.664.387.904.256.483.435.734.435.734s.075-.318.153-.83c.027-.254.096-.56.168-.9.07-.342.142-.717.263-1.114.087-.4.213-.817.363-1.247.11-.438.333-.87.48-1.323.215-.44.39-.898.635-1.34.214-.453.49-.884.74-1.328.285-.425.55-.864.86-1.267.284-.423.622-.795.916-1.194.338-.355.622-.756.954-1.074.314-.342.618-.667.922-.95.295-.305.567-.568.82-.8.25-.234.48-.464.69-.63.403-.346.62-.576.62-.576M397.59 548.57s-.41.006-1.105.075c-.348.024-.77.085-1.255.218-.493.11-1.054.25-1.618.485-.288.11-.59.223-.897.357-.297.153-.604.31-.92.474-.644.312-1.24.776-1.887 1.22-.593.505-1.24 1.007-1.78 1.637-.592.585-1.07 1.286-1.572 1.967-.424.735-.883 1.45-1.177 2.24-.364.755-.55 1.57-.76 2.333-.118.792-.284 1.542-.258 2.275 0 .362.002.713.003 1.052l.13.975c.063.62.248 1.17.4 1.647.078.24.138.46.217.662l.264.535c.32.64.533.978.533.978s.036-.42.05-1.102c.002-.168.005-.355.01-.558.03-.206.04-.423.065-.655.044-.462.08-.97.198-1.517.044-.27.09-.55.14-.842.072-.283.15-.576.228-.877.112-.603.393-1.202.574-1.832.28-.606.504-1.245.846-1.852.292-.625.687-1.213 1.044-1.818.412-.574.796-1.168 1.253-1.7.418-.566.916-1.048 1.354-1.567.498-.45.927-.967 1.418-1.36.466-.426.92-.825 1.368-1.16.435-.37.842-.676 1.217-.944.37-.272.707-.533 1.01-.71.584-.385.907-.636.907-.636" fill="#613e35"/></g></svg>