<svg xmlns="http://www.w3.org/2000/svg" height="1000" viewBox="0 0 1000 1000" width="1000"><defs><clipPath id="c"><path d="M0 800h800V0H0v800z"/></clipPath><clipPath id="d"><path d="M0 799h800V-1H0v800z"/></clipPath><clipPath id="e"><path d="M800-1H0v800h800V-1z"/></clipPath><clipPath id="a"><path d="M-32768 32767h65535v-65535h-65535v65535z"/></clipPath><radialGradient id="b" gradientUnits="userSpaceOnUse" cy="0" cx="0" gradientTransform="matrix(400 0 0 -400 400 399)" r="1"><stop stop-opacity="0" stop-color="#fff" offset="0"/><stop stop-opacity="0" stop-color="#fff" offset=".003"/><stop stop-opacity=".4" stop-color="#fff" offset="1"/></radialGradient><mask id="f" height="1" width="1" y="0" x="0" maskUnits="userSpaceOnUse"><g clip-path="url(#a)"><path fill="url(#b)" d="M-32768 32767h65535v-65535h-65535v65535z"/></g></mask><radialGradient id="g" gradientUnits="userSpaceOnUse" cy="0" cx="0" gradientTransform="matrix(400 0 0 -400 400 399)" r="1"><stop stop-color="#fff" offset="0"/><stop stop-color="#fff" offset=".003"/><stop stop-color="#c4e4ff" offset="1"/></radialGradient><clipPath id="h"><path d="M0 800h800V0H0v800z"/></clipPath><clipPath id="i"><path d="M0 800h800V0H0v800z"/></clipPath><clipPath id="j"><path d="M67.903 746.11h46.436v-158.5H67.902v158.5z"/></clipPath><clipPath id="k"><path d="M216.06 758.75h13.634v-99.49H216.06v99.49z"/></clipPath><clipPath id="l"><path d="M735.64 675.52h10.336v-10.336H735.64v10.336z"/></clipPath><clipPath id="m"><path d="M693 611h43v-6h-43v6z"/></clipPath><clipPath id="n"><path d="M517.87 756.8h38.032v-93.31H517.87v93.31z"/></clipPath><clipPath id="o"><path d="M684.19 541.52h6.917v-74.036h-6.917v74.036z"/></clipPath><clipPath id="p"><path d="M710.02 573.62h36.558V447.43H710.02v126.19z"/></clipPath><clipPath id="q"><path d="M651.1 535.68h12.25v-68.196H651.1v68.196z"/></clipPath><clipPath id="r"><path d="M670.3 526.21h5.486v-58.72H670.3v58.72z"/></clipPath><clipPath id="s"><path d="M699.5 536.1h6.917v-68.615H699.5V536.1z"/></clipPath><clipPath id="t"><path d="M507.94 740.04h4.87v-21.142h-4.87v21.142z"/></clipPath><clipPath id="u"><path d="M641.18 249.66h49.433v-72.334H641.18v72.334z"/></clipPath><clipPath id="v"><path d="M631.23 134.61h80.42v-6.952h-80.42v6.952z"/></clipPath><clipPath id="w"><path d="M0 800h800V0H0v800z"/></clipPath><clipPath id="x"><path d="M453.19 265.38h30.705v-30.705H453.19v30.705z"/></clipPath><clipPath id="y"><path d="M565.77 263.18h30.704v-30.705H565.77v30.705z"/></clipPath><clipPath id="z"><path d="M490.72 264.65h30.705v-30.705H490.72v30.705z"/></clipPath><clipPath id="A"><path d="M527.78 264.38h31.644v-31.644H527.78v31.644z"/></clipPath><clipPath id="B"><path d="M180.71 645.6h15.12v-15.12h-15.12v15.12z"/></clipPath><clipPath id="C"><path d="M0 800h800V0H0v800z"/></clipPath><clipPath id="D"><path d="M216.58 616.34h35.755v-35.756H216.58v35.756z"/></clipPath><clipPath id="E"><path d="M0 800h800V0H0v800z"/></clipPath><clipPath id="F"><path d="M249.69 288.38h6.258v-2.385h-6.258v2.385z"/></clipPath><clipPath id="G"><path d="M249.69 291.46h6.258v-2.385h-6.258v2.385z"/></clipPath><clipPath id="H"><path d="M249.69 294.55h6.258v-2.385h-6.258v2.385z"/></clipPath><clipPath id="I"><path d="M243.33 325.8h12.618v-30.446H243.33V325.8z"/></clipPath><clipPath id="J"><path d="M107.02 231.56h45.046V198.5H107.02v33.06z"/></clipPath></defs><path d="M0 1000h1000V0H0v1000z" fill="#ffe"/><g clip-path="url(#c)" transform="matrix(1.25 0 0 -1.25 0 1000)"><g clip-path="url(#e)" opacity=".7"><path fill="url(#g)" d="M800-1H0v800h800V-1z" mask="url(#f)"/></g></g><g clip-path="url(#h)" transform="matrix(1.25 0 0 -1.25 0 1000)"><path d="M550.02 467.82c12.378 12.91 15.87 34.76 7.25 55.032-7.79 18.323-23.375 30.41-39.507 32.6C521.058 578 496.4 601.684 461.6 608.915c-24.155 5.018-46.978.814-60.683-9.575-9.915 5.395-21.938 6.877-33.53 3.123-9.247-2.994-16.764-8.848-21.902-16.26-14.444 2.942-31.604-1.198-45.85-12.476-13.365-10.58-21.193-25.1-22.484-39.02-13.372-3.474-23.903-14.56-25.738-28.85-1.206-9.388 1.57-18.388 7.037-25.37-3.494-10.933-3.312-22.843 1.39-33.9 10.973-25.81 42.35-37.178 70.085-25.387 2.202.936 4.304 2.003 6.322 3.163.4-1.195.832-2.385 1.333-3.563 10.974-25.813 42.352-37.18 70.085-25.39.95.405 1.878.835 2.794 1.28 7.567-8.313 19.966-11.648 31.762-8.034 1.427-4.548 3.282-9.067 5.608-13.487 11.68-22.196 31.945-36.288 52.457-38.906l9.26 8.37c-.136.12-.266.25-.402.373-18.715 5.773-32.316 23.204-32.316 43.814 0 .616.028 1.223.052 1.832 14.25-8.36 32.79-9.934 49.94-2.643 27.724 11.794 41.31 42.277 30.336 68.09-1.842 4.332-4.27 8.247-7.148 11.724" fill="#277d96"/><path d="M526.82 388.01c27.733 11.79 41.32 42.274 30.345 68.086-1.842 4.333-4.27 8.247-7.148 11.725 5.85 6.1 9.71 14.198 11.25 23.18-35.138 26.21-79.574 27.375-102.77 1.355-9.362-10.502-13.93-23.937-14.074-38.324-1.53.418-3.068.82-4.624 1.195-52.718 12.662-103.75-4.135-126.37-38.336 5.516.6 11.073 2.007 16.49 4.31 2.203.937 4.305 2.003 6.323 3.164.4-1.196.832-2.386 1.333-3.564 10.974-25.812 42.352-37.18 70.086-25.388.95.404 1.877.834 2.793 1.28 7.568-8.314 19.967-11.65 31.763-8.035 1.427-4.548 3.282-9.068 5.608-13.487 11.68-22.195 31.945-36.288 52.457-38.905l9.26 8.37c-.136.12-.266.25-.402.373-18.714 5.773-32.315 23.204-32.315 43.814 0 .615.03 1.222.053 1.83 14.257-8.355 32.796-9.93 49.947-2.637" fill="#4dd194"/><path d="M526.82 388.01c27.733 11.79 41.32 42.274 30.345 68.086-1.842 4.333-4.27 8.247-7.148 11.725 5.85 6.1 9.71 14.198 11.25 23.18-35.138 26.21-79.574 27.375-102.77 1.355-9.362-10.502-13.93-23.937-14.074-38.324-1.53.418-3.068.82-4.624 1.195-52.718 12.662-103.75-4.135-126.37-38.336 5.516.6 11.073 2.007 16.49 4.31 2.203.937 4.305 2.003 6.323 3.164.4-1.196.832-2.386 1.333-3.564 10.974-25.812 42.352-37.18 70.086-25.388.95.404 1.877.834 2.793 1.28 7.568-8.314 19.967-11.65 31.763-8.035 1.427-4.548 3.282-9.068 5.608-13.487 11.68-22.195 31.945-36.288 52.457-38.905l9.26 8.37c-.136.12-.266.25-.402.373-18.714 5.773-32.315 23.204-32.315 43.814 0 .615.03 1.222.053 1.83 14.257-8.355 32.796-9.93 49.947-2.637z" stroke="#fff" stroke-miterlimit="10" stroke-width="5.709" fill="none"/><path d="M557.16 456.1c-1.842 4.332-4.27 8.247-7.148 11.724 12.378 12.91 15.87 34.762 7.25 55.032-7.79 18.323-23.375 30.412-39.507 32.6 3.295 22.548-21.362 46.233-56.164 53.464-24.152 5.018-46.975.815-60.68-9.575-.39.213-11.658-13.196-14.1-21.828-8.97-31.71 13.075-65.712 49.243-75.944 10.96-3.1 21.952-3.65 32.21-2.044-1.895-14.242 1.558-28.268 10.897-38.923 5.632-6.426 12.78-10.908 20.732-13.478-2.01-15.544 8.967-26.628 25.257-27.332 28.224-1.218 34.907 22.02 35.595 22.07-.447 4.807-1.613 9.596-3.585 14.234" fill="#ff4d7d"/><path d="M557.16 456.1c-1.842 4.332-4.27 8.247-7.148 11.724 12.378 12.91 15.87 34.762 7.25 55.032-7.79 18.323-23.375 30.412-39.507 32.6 3.295 22.548-21.362 46.233-56.164 53.464-24.152 5.018-46.975.815-60.68-9.575-.39.213-11.658-13.196-14.1-21.828-8.97-31.71 13.075-65.712 49.243-75.944 10.96-3.1 21.952-3.65 32.21-2.044-1.895-14.242 1.558-28.268 10.897-38.923 5.632-6.426 12.78-10.908 20.732-13.478-2.01-15.544 8.967-26.628 25.257-27.332 28.224-1.218 34.907 22.02 35.595 22.07-.447 4.807-1.613 9.596-3.585 14.234z" stroke="#fff" stroke-miterlimit="10" stroke-width="5.709" fill="none"/><path d="M344.51 482.1c9.286 10.153 9.065 26.032-.774 36.202-8.427 8.71-21.272 10.502-31.355 5.22-7.486 7.547-17.73 12.2-29.033 12.2-2.085 0-6.184-.83-6.2-1.01-13.374-3.474-23.906-14.56-25.74-28.85-1.207-9.388 1.57-18.387 7.036-25.37-3.493-10.933-3.31-22.843 1.39-33.9 10.975-25.81 42.353-37.178 70.086-25.387 2.2.936 4.303 2.003 6.322 3.163.06-.177 15.058 13.717 13.566 34.605-.592 8.294-1.912 16.168-5.298 23.127" fill="#c7e640"/><path d="M344.51 482.1c9.286 10.153 9.065 26.032-.774 36.202-8.427 8.71-21.272 10.502-31.355 5.22-7.486 7.547-17.73 12.2-29.033 12.2-2.085 0-6.184-.83-6.2-1.01-13.374-3.474-23.906-14.56-25.74-28.85-1.207-9.388 1.57-18.387 7.036-25.37-3.493-10.933-3.31-22.843 1.39-33.9 10.975-25.81 42.353-37.178 70.086-25.387 2.2.936 4.303 2.003 6.322 3.163.06-.177 15.058 13.717 13.566 34.605-.592 8.294-1.912 16.168-5.298 23.127z" stroke="#fff" stroke-miterlimit="10" stroke-width="5.709" fill="none"/><path d="M463.31 579.03v53.957c0 14.813 12.008 26.822 26.82 26.822h162.74c11.13 0 20.154-9.024 20.154-20.154v-17.98c0-11.13 9.023-20.153 20.153-20.153h46.7c12.034 0 21.79-9.755 21.79-21.79v-112.76c0-14.158-11.48-25.635-25.637-25.635H522.626" stroke="#9fe3d2" stroke-linecap="round" stroke-miterlimit="10" stroke-width="1.903" fill="none"/><path d="M470.46 579.43c0-3.95-3.204-7.154-7.154-7.154-3.95 0-7.155 3.203-7.155 7.154s3.205 7.154 7.156 7.154c3.95 0 7.154-3.203 7.154-7.154" fill="#fff"/><path d="M457.11 579.43c0 3.42 2.782 6.203 6.203 6.203s6.203-2.782 6.203-6.203-2.782-6.203-6.203-6.203-6.203 2.782-6.203 6.203m14.31 0c0 4.47-3.638 8.106-8.107 8.106s-8.106-3.637-8.106-8.106 3.637-8.106 8.106-8.106 8.106 3.637 8.106 8.106" fill="#9fe3d2"/><path d="M352.84 560.48v111.04c0 14.813-12.008 26.82-26.82 26.82H201.78c-12.975 0-23.493-10.517-23.493-23.49v-10.152c0-8.132-6.593-14.725-14.726-14.725h-26.68" stroke="#9fe3d2" stroke-linecap="round" stroke-miterlimit="10" stroke-width="1.903" fill="none"/><path d="M359.99 560.88c0-3.95-3.204-7.154-7.154-7.154-3.95 0-7.155 3.203-7.155 7.154s3.205 7.154 7.156 7.154c3.95 0 7.154-3.203 7.154-7.154" fill="#fff"/><path d="M346.63 560.88c0 3.42 2.782 6.203 6.203 6.203s6.203-2.782 6.203-6.203-2.782-6.203-6.203-6.203-6.203 2.782-6.203 6.203m14.31 0c0 4.47-3.638 8.106-8.107 8.106s-8.106-3.637-8.106-8.106 3.637-8.106 8.106-8.106 8.106 3.637 8.106 8.106" fill="#9fe3d2"/><path d="M276.77 469.75H103.11c-12.812 0-23.198-10.386-23.198-23.197v-29.708c0-10.977 8.9-19.875 19.875-19.875h106.76c10.976 0 19.874-8.898 19.874-19.875v-2.264c0-10.976-8.897-19.874-19.873-19.874h-67.66c-10.977 0-19.875-8.898-19.875-19.875v-8.894" stroke="#9fe3d2" stroke-linecap="round" stroke-miterlimit="10" stroke-width="1.903" fill="none"/><path d="M276.37 476.91c3.95 0 7.154-3.204 7.154-7.154 0-3.95-3.203-7.155-7.154-7.155s-7.154 3.205-7.154 7.156c0 3.95 3.203 7.154 7.154 7.154" fill="#fff"/><path d="M276.37 463.55c-3.42 0-6.203 2.782-6.203 6.203s2.782 6.203 6.203 6.203 6.203-2.782 6.203-6.203-2.782-6.203-6.203-6.203 3.42 0 0 0m0 14.31c-4.47 0-8.106-3.638-8.106-8.107s3.637-8.106 8.106-8.106 8.106 3.637 8.106 8.106-3.637 8.106-8.106 8.106 4.47 0 0 0" fill="#9fe3d2"/><path d="M301.21 441.85V183.815c0-14.813-12.008-26.82-26.82-26.82h-85.205" stroke="#9fe3d2" stroke-linecap="round" stroke-miterlimit="10" stroke-width="1.903" fill="none"/><path d="M294.06 441.44c0 3.95 3.204 7.154 7.154 7.154 3.95 0 7.155-3.203 7.155-7.154s-3.205-7.154-7.156-7.154c-3.95 0-7.154 3.203-7.154 7.154" fill="#fff"/><path d="M307.42 441.44c0-3.42-2.782-6.203-6.203-6.203s-6.203 2.782-6.203 6.203 2.782 6.203 6.203 6.203 6.203-2.782 6.203-6.203m-14.31 0c0-4.47 3.638-8.106 8.107-8.106s8.106 3.637 8.106 8.106-3.637 8.106-8.106 8.106-8.106-3.637-8.106-8.106" fill="#9fe3d2"/><path d="M463.31 429.26V326.74c0-14.813 12.008-26.82 26.82-26.82h191.45c14.227 0 25.76-11.534 25.76-25.76V109.02c0-14.226-11.533-25.76-25.76-25.76H423.055c-14.813 0-26.82 12.01-26.82 26.823v305.99" stroke="#9fe3d2" stroke-linecap="round" stroke-miterlimit="10" stroke-width="1.903" fill="none"/><path d="M456.15 428.86c0 3.95 3.204 7.154 7.154 7.154 3.95 0 7.155-3.203 7.155-7.154s-3.205-7.154-7.156-7.154c-3.95 0-7.154 3.203-7.154 7.154" fill="#fff"/><path d="M469.51 428.86c0-3.42-2.782-6.203-6.203-6.203s-6.203 2.782-6.203 6.203 2.782 6.203 6.203 6.203 6.203-2.782 6.203-6.203m-14.31 0c0-4.47 3.638-8.106 8.107-8.106s8.106 3.637 8.106 8.106-3.637 8.106-8.106 8.106-8.106-3.637-8.106-8.106" fill="#9fe3d2"/><path d="M403.39 415.67c0 3.95-3.204 7.154-7.154 7.154-3.95 0-7.155-3.203-7.155-7.154s3.205-7.154 7.156-7.154c3.95 0 7.154 3.203 7.154 7.154" fill="#fff"/><path d="M390.03 415.67c0-3.42 2.782-6.203 6.203-6.203s6.203 2.782 6.203 6.203-2.782 6.203-6.203 6.203-6.203-2.782-6.203-6.203m14.31 0c0-4.47-3.638-8.106-8.107-8.106s-8.106 3.637-8.106 8.106 3.637 8.106 8.106 8.106 8.106-3.637 8.106-8.106" fill="#9fe3d2"/></g><g font-family="Exo" font-style="italic" fill="#277d96"><text transform="matrix(1.25 0 0 1.25 693.69 889.28)" font-size="17.487"><tspan y="0" x="0 9.4606295">ax</tspan></text><text transform="matrix(1.25 0 0 1.25 716.98 882)" font-size="10.195"><tspan y="0" x="0 6.0660844">2</tspan></text><text transform="matrix(1.25 0 0 1.25 727.74 889.28)" font-size="17.487"><tspan y="0" x="0 9.023447 13.395272 22.383743 31.547089 35.918915 44.94236 49.314186 57.987888">+ bx + c</tspan></text><text transform="matrix(1.25 0 0 1.25 518.64 754.49)" font-size="15.223"><tspan y="0" x="0 8.2356434">ax</tspan></text><text transform="matrix(1.25 0 0 1.25 538.9 748.15)" font-size="8.875"><tspan y="0" x="0 5.2806249">2</tspan></text><text transform="matrix(1.25 0 0 1.25 548.27 754.49)" font-size="15.223"><tspan y="0" x="0 7.8550682 11.660818 19.485439 27.462292 31.268042 39.123112 42.92886 50.479469 54.285217 61.39436 65.200111 74.973274">+ bx + c = 0</tspan></text></g><g clip-path="url(#i)" transform="matrix(1.25 0 0 -1.25 0 1000)"><path d="M48.853 542.75v8.96l7.76 4.482 7.76-4.48v-8.962l-7.76-4.48-7.76 4.48z" fill="#ff4d7d"/><path d="M58.64 560.42v8.96l7.76 4.482 7.76-4.48v-8.962l-7.76-4.48-7.76 4.48z" fill="#5ad0d6"/><path d="M76.82 569.38v-8.96" stroke="#5ad0d6" stroke-miterlimit="10" stroke-width=".527" fill="none"/><path d="M86.785 551.71v-8.96" stroke="#c7e640" stroke-miterlimit="10" stroke-width=".676" fill="none"/><path d="M55.98 560.42v8.96" stroke="#5ad0d6" stroke-miterlimit="10" stroke-width=".527" fill="none"/><path d="M46.015 542.75v8.96" stroke="#ff4d7d" stroke-miterlimit="10" stroke-width=".676" fill="none"/><path d="M68.426 542.75v8.96l7.76 4.482 7.76-4.48v-8.962l-7.76-4.48-7.76 4.48z" fill="#c7e640"/><path d="M94.684 551.71v-8.96l7.76-4.482 7.76 4.48v8.962l-7.76 4.48-7.76-4.48z" fill="#ff4d7d"/><path d="M104.47 534.05v-8.96l7.76-4.482 7.76 4.48v8.962l-7.76 4.48-7.76-4.48z" fill="#5ad0d6"/><path d="M122.65 525.09v8.96" stroke="#5ad0d6" stroke-miterlimit="10" stroke-width=".527" fill="none"/><path d="M132.62 542.75v8.96" stroke="#c7e640" stroke-miterlimit="10" stroke-width=".676" fill="none"/><path d="M101.81 534.05v-8.96" stroke="#5ad0d6" stroke-miterlimit="10" stroke-width=".527" fill="none"/><path d="M91.846 551.71v-8.96" stroke="#ff4d7d" stroke-miterlimit="10" stroke-width=".676" fill="none"/><path d="M114.26 551.71v-8.96l7.76-4.482 7.76 4.48v8.962l-7.76 4.48-7.76-4.48z" fill="#c7e640"/><path d="M312.86 698.84c0-4.856-3.936-8.792-8.792-8.792-4.855 0-8.792 3.936-8.792 8.792s3.937 8.792 8.792 8.792c4.856 0 8.792-3.936 8.792-8.792" fill="#ffe"/><path d="M304.07 691.92c-3.826 0-6.927 3.1-6.927 6.927s3.1 6.927 6.927 6.927 6.927-3.1 6.927-6.927-3.1-6.927-6.927-6.927m12.193 4.103s-.26.16-.653.38c-.377.212-.895.478-1.418.717.097.56.15 1.138.15 1.727s-.053 1.166-.15 1.727c.523.24 1.04.505 1.418.718.394.22.653.38.653.38.13.054.23.177.28.34.05.16.048.357-.01.556 0 0-.015.06-.05.16l-.142.42c-.06.173-.14.37-.224.584-.087.212-.19.433-.293.656-.11.217-.218.437-.33.636-.115.198-.218.385-.317.54l-.238.37c-.03.046-.053.08-.07.103l-.025.036c-.12.168-.272.293-.428.355-.158.06-.315.06-.44-.01 0 0-.286-.102-.703-.273-.403-.164-.933-.402-1.446-.66-.766.864-1.678 1.595-2.7 2.154.14.56.25 1.122.323 1.555.074.45.11.748.11.748.04.137.003.29-.092.43-.047.07-.11.135-.183.194-.075.057-.162.106-.26.144 0 0-.055.024-.155.063-.1.04-.243.092-.417.15-.173.06-.376.128-.597.188l-.34.096-.355.083c-.475.11-.96.185-1.322.228-.18.024-.333.036-.44.044l-.166.013c-.205.018-.397-.03-.542-.115-.145-.084-.243-.206-.267-.346 0 0-.098-.285-.224-.722-.124-.422-.27-.98-.387-1.54-1.19-.06-2.325-.33-3.37-.768-.35.457-.723.894-1.017 1.22-.305.34-.516.553-.516.553-.084.115-.225.182-.393.195-.084.006-.175 0-.267-.022-.09-.023-.184-.06-.273-.112l-.145-.084c-.094-.052-.223-.133-.376-.232l-.248-.16-.27-.19c-.093-.066-.19-.133-.285-.206-.095-.074-.19-.15-.287-.224-.193-.148-.373-.312-.546-.46-.172-.152-.323-.302-.455-.428s-.234-.24-.308-.316l-.115-.12c-.28-.308-.34-.71-.146-.924 0 0 .165-.256.425-.626.13-.184.285-.397.454-.62.16-.21.333-.428.51-.643-.67-.93-1.182-1.982-1.5-3.114-.28.006-.558.006-.822 0-.28-.007-.542-.02-.767-.033-.45-.028-.754-.06-.754-.06-.14.007-.287-.06-.398-.185-.113-.123-.2-.302-.233-.506l-.08-.605c-.016-.18-.03-.393-.048-.62-.012-.228-.015-.47-.02-.713.005-.243.008-.485.02-.713.017-.227.032-.44.05-.62l.077-.606c.033-.204.12-.383.232-.506.11-.125.258-.192.4-.185 0 0 .302-.032.753-.06.225-.014.486-.026.767-.033.264-.006.542-.006.82 0 .32-1.133.833-2.184 1.502-3.115-.177-.216-.35-.435-.51-.644-.17-.223-.324-.435-.453-.62-.26-.37-.424-.626-.424-.626-.193-.214-.133-.615.146-.923l.115-.12c.074-.077.176-.19.308-.317.132-.126.283-.276.455-.427.173-.15.353-.313.546-.46l.287-.225c.095-.073.192-.14.285-.206s.183-.13.27-.19l.248-.16c.153-.1.282-.18.376-.232l.145-.084c.09-.05.182-.09.273-.112.092-.022.183-.028.267-.022.168.013.31.08.393.195 0 0 .21.214.516.552.294.326.666.763 1.017 1.22 1.045-.44 2.18-.707 3.37-.767.118-.562.263-1.12.386-1.54.125-.438.223-.723.223-.723.024-.14.122-.262.267-.346.145-.085.337-.133.542-.115l.167.012s.257.02.438.044c.363.043.847.117 1.323.23.12.027.24.054.356.082l.34.095c.22.06.424.13.597.188.174.06.318.11.417.15l.156.063c.097.038.184.087.26.144.073.06.135.126.182.195.095.14.13.292.092.43 0 0-.036.298-.11.747-.073.432-.184.996-.323 1.555 1.02.56 1.933 1.29 2.7 2.155.512-.26 1.042-.496 1.445-.66.417-.172.703-.275.703-.275.125-.068.282-.07.44-.01.156.063.31.188.428.356l.025.037c.017.023.04.057.07.102l.238.37s.202.342.316.54c.113.2.22.42.33.637.103.222.207.443.294.655.083.213.165.41.225.584s.11.318.143.42c.035.1.05.16.05.16.058.2.06.397.01.557-.05.162-.15.285-.28.34" fill="#9fe3d2"/><path d="M200.52 469.75c0-4.856-3.936-8.792-8.792-8.792-4.855 0-8.792 3.936-8.792 8.792s3.937 8.792 8.792 8.792c4.856 0 8.792-3.936 8.792-8.792" fill="#ffe"/><path d="M191.73 462.82c-3.826 0-6.927 3.1-6.927 6.927s3.1 6.927 6.927 6.927 6.927-3.1 6.927-6.927-3.1-6.927-6.927-6.927m12.193 4.103s-.26.16-.653.38c-.377.212-.895.478-1.418.717.097.56.15 1.138.15 1.727s-.053 1.166-.15 1.727c.523.24 1.04.505 1.418.718.394.22.653.38.653.38.13.054.23.177.28.34.05.16.048.357-.01.556 0 0-.015.06-.05.16l-.142.42c-.06.173-.14.37-.224.584-.087.212-.19.433-.293.656-.11.217-.218.437-.33.636-.115.198-.218.385-.317.54l-.238.37c-.03.046-.053.08-.07.103l-.025.036c-.12.168-.272.293-.428.355-.158.06-.315.06-.44-.01 0 0-.286-.102-.703-.273-.403-.164-.933-.402-1.446-.66-.766.863-1.678 1.595-2.7 2.154.14.56.25 1.122.323 1.555.074.45.11.748.11.748.04.137.003.29-.092.43-.047.07-.11.135-.183.194-.075.057-.162.106-.26.144 0 0-.055.024-.155.063-.1.04-.243.092-.417.15-.173.06-.376.128-.597.188l-.34.096-.355.083c-.475.11-.96.185-1.322.228-.18.024-.333.036-.44.044l-.166.013c-.205.018-.397-.03-.542-.115-.145-.084-.243-.206-.267-.346 0 0-.098-.285-.224-.722-.124-.422-.27-.98-.387-1.54-1.19-.06-2.325-.33-3.37-.768-.35.457-.723.894-1.017 1.22-.305.34-.516.553-.516.553-.084.115-.225.182-.393.195-.084.006-.175 0-.267-.022-.09-.023-.184-.06-.273-.112l-.145-.084c-.094-.052-.223-.133-.376-.232l-.248-.16-.27-.19c-.093-.066-.19-.133-.285-.206-.095-.074-.19-.15-.287-.224-.193-.148-.373-.312-.546-.46-.172-.152-.323-.302-.455-.428s-.234-.24-.308-.316l-.115-.12c-.28-.308-.34-.71-.146-.924 0 0 .165-.256.425-.626.13-.185.285-.397.454-.62.16-.21.333-.428.51-.643-.67-.93-1.182-1.982-1.5-3.114-.28.006-.558.006-.822 0-.28-.007-.542-.02-.767-.033-.45-.028-.754-.06-.754-.06-.14.007-.287-.06-.398-.185-.113-.123-.2-.302-.233-.506l-.078-.605c-.018-.18-.033-.393-.05-.62-.012-.228-.015-.47-.02-.713.005-.243.008-.485.02-.713.017-.227.032-.44.05-.62l.077-.606c.033-.204.12-.383.232-.506.11-.125.258-.192.4-.185 0 0 .302-.032.753-.06.225-.014.486-.026.767-.033.264-.006.542-.006.82 0 .32-1.133.833-2.184 1.502-3.115-.177-.216-.35-.435-.51-.644-.17-.223-.323-.435-.453-.62-.26-.37-.424-.626-.424-.626-.193-.214-.133-.615.146-.923l.115-.12c.074-.077.176-.19.308-.317.132-.126.283-.276.455-.427.173-.15.353-.313.546-.46l.287-.225c.095-.073.192-.14.285-.206s.183-.13.27-.19l.248-.16c.153-.1.282-.18.376-.232l.145-.084c.09-.05.182-.09.273-.112.092-.022.183-.028.267-.022.168.013.31.08.393.195 0 0 .21.214.516.552.294.326.666.763 1.017 1.22 1.045-.44 2.18-.707 3.37-.767.118-.562.263-1.12.386-1.54.125-.438.223-.723.223-.723.024-.14.122-.262.267-.346.145-.085.337-.133.542-.115l.167.012s.257.02.438.044c.363.043.847.117 1.323.23.12.027.24.054.356.082l.34.095c.22.06.424.13.597.188.174.06.318.11.417.15l.156.063c.097.038.184.087.26.144.073.06.135.126.182.195.095.14.13.292.092.43 0 0-.036.298-.11.747-.073.432-.184.996-.323 1.555 1.02.56 1.933 1.29 2.7 2.155.512-.26 1.042-.496 1.445-.66.417-.172.703-.275.703-.275.125-.068.282-.07.44-.01.156.063.31.188.428.356l.025.037c.017.023.04.057.07.102l.238.37s.202.342.316.54c.113.2.22.42.33.637.103.222.207.443.294.655.083.213.165.41.225.584s.11.318.143.42c.035.1.05.16.05.16.058.2.06.397.01.557-.05.162-.15.285-.28.34" fill="#9fe3d2"/><path d="M598.81 299.92c0-7.445-6.036-13.48-13.48-13.48-7.447 0-13.483 6.035-13.483 13.48s6.036 13.48 13.482 13.48c7.444 0 13.48-6.035 13.48-13.48" fill="#ffe"/><path d="M585.32 289.3c-5.866 0-10.622 4.756-10.622 10.622s4.756 10.622 10.622 10.622 10.622-4.756 10.622-10.622-4.756-10.622-10.622-10.622m18.696 6.292s-.397.244-1 .58c-.58.327-1.374.735-2.175 1.102.15.86.23 1.745.23 2.648s-.08 1.787-.23 2.648c.802.367 1.597.775 2.175 1.1.604.337 1 .582 1 .582.203.084.354.273.433.52.073.246.072.55-.017.856 0 0-.023.09-.076.245l-.218.644c-.09.266-.217.57-.345.896-.132.325-.292.664-.448 1.005-.17.333-.334.67-.507.975-.175.303-.333.59-.485.827-.15.236-.277.432-.366.57-.044.07-.08.12-.106.157l-.04.055c-.182.258-.416.45-.655.544-.243.092-.483.092-.675-.014 0 0-.44-.158-1.078-.42-.618-.252-1.43-.616-2.218-1.013-1.174 1.325-2.573 2.446-4.138 3.303.214.858.383 1.722.494 2.387.116.688.17 1.146.17 1.146.06.21.005.444-.14.658-.073.107-.168.21-.28.3-.116.087-.25.162-.398.22l-.24.095c-.152.06-.372.14-.64.23-.265.09-.576.195-.915.287l-.52.146-.546.128c-.73.172-1.472.286-2.028.35-.278.04-.51.057-.674.07l-.256.018c-.315.028-.61-.044-.832-.175-.222-.13-.372-.316-.41-.532 0 0-.148-.435-.342-1.105-.19-.647-.41-1.5-.592-2.364-1.824-.09-3.565-.5-5.167-1.175-.54.7-1.11 1.372-1.562 1.873-.466.518-.79.846-.79.846-.128.177-.345.28-.603.3-.128.01-.268 0-.41-.034-.14-.036-.28-.093-.418-.172l-.223-.13c-.143-.08-.34-.203-.577-.355l-.38-.246c-.133-.09-.27-.188-.413-.29-.142-.102-.292-.205-.438-.316l-.44-.342c-.296-.227-.572-.48-.837-.707-.264-.23-.495-.462-.698-.654-.202-.194-.36-.368-.473-.484l-.177-.187c-.427-.47-.52-1.086-.223-1.414 0 0 .252-.392.65-.96.2-.283.436-.608.695-.95.244-.32.51-.657.783-.986-1.025-1.428-1.813-3.04-2.302-4.775-.427.007-.855.006-1.26-.003-.43-.01-.83-.03-1.176-.05-.69-.043-1.155-.092-1.155-.092-.217.01-.442-.093-.612-.283-.173-.19-.304-.464-.358-.777l-.118-.927c-.027-.28-.05-.604-.075-.953-.02-.35-.024-.72-.032-1.093.008-.372.013-.744.032-1.093.025-.35.048-.676.075-.954l.118-.928c.054-.312.185-.586.358-.776.17-.19.395-.294.612-.283 0 0 .464-.05 1.155-.093.346-.02.746-.04 1.177-.05.404-.01.832-.01 1.26-.003.488-1.736 1.276-3.346 2.3-4.774-.27-.33-.538-.666-.782-.986-.26-.342-.495-.668-.695-.95-.398-.568-.65-.96-.65-.96-.297-.33-.204-.945.223-1.416l.176-.186c.113-.117.27-.29.472-.484.203-.193.434-.424.697-.655.264-.228.54-.48.837-.707l.44-.343c.145-.112.295-.215.437-.317.143-.1.28-.2.413-.29l.38-.245c.236-.15.434-.276.577-.355l.223-.13c.137-.078.28-.136.42-.172.14-.032.28-.043.408-.033.258.02.475.122.602.3 0 0 .325.327.79.846.453.5 1.024 1.172 1.562 1.872 1.6-.674 3.342-1.084 5.166-1.176.18-.862.403-1.717.592-2.363.194-.67.343-1.108.343-1.108.038-.215.188-.4.41-.53.222-.132.517-.204.832-.177l.256.02s.396.03.674.068c.556.065 1.297.18 2.027.35l.544.128.52.147c.34.092.65.197.917.288.268.09.488.168.64.23l.24.094c.147.058.282.133.397.22.113.09.208.193.28.3.146.214.2.447.14.657 0 0-.053.46-.17 1.147-.11.665-.28 1.528-.493 2.387 1.565.857 2.964 1.98 4.138 3.305.787-.397 1.6-.762 2.218-1.014.64-.26 1.078-.42 1.078-.42.192-.104.432-.104.675-.012.24.094.473.285.656.544l.038.055c.025.035.062.088.106.157.09.137.215.334.366.57.152.236.31.523.485.827.173.306.337.643.507.976.156.34.316.68.45 1.005.127.328.253.63.344.897l.218.643c.053.155.077.246.077.246.09.305.09.61.018.855-.08.248-.23.437-.432.522" fill="#9fe3d2"/><path d="M414.91 243.45c0-10.313-8.36-18.673-18.673-18.673-10.314 0-18.674 8.36-18.674 18.673s8.36 18.673 18.674 18.673c10.313 0 18.673-8.36 18.673-18.673" fill="#ffe"/><path d="M392.87 229.13c-7.91 1.857-12.818 9.776-10.96 17.686 1.857 7.91 9.775 12.818 17.686 10.96 7.91-1.857 12.817-9.775 10.96-17.685-1.857-7.91-9.775-12.817-17.686-10.96m27.203 2.565s-.458.456-1.165 1.1c-.678.624-1.62 1.425-2.584 2.174.474 1.112.86 2.28 1.146 3.497.286 1.218.46 2.436.53 3.643 1.198.24 2.398.54 3.28.796.922.263 1.535.467 1.535.467.3.05.563.257.747.566.176.307.27.718.248 1.157 0 0-.003.13-.026.356l-.09.937c-.04.387-.113.836-.182 1.317-.077.48-.185.988-.287 1.497-.124.503-.24 1.01-.375 1.476-.14.465-.262.902-.392 1.268l-.313.885c-.037.107-.07.19-.094.246-.02.055-.034.085-.034.085-.164.406-.42.74-.712.94-.298.202-.623.278-.915.197 0 0-.642-.075-1.587-.225-.914-.145-2.125-.38-3.312-.665-1.162 2.16-2.694 4.115-4.533 5.766.56 1.09 1.062 2.2 1.422 3.062.372.89.59 1.492.59 1.492.148.265.148.596.02.93-.064.168-.16.336-.284.494-.128.155-.285.298-.465.423l-.293.202c-.185.132-.457.31-.79.513-.328.207-.714.447-1.143.678l-.657.363-.693.345c-.93.462-1.894.85-2.624 1.114-.363.14-.67.238-.886.305l-.34.107c-.415.136-.836.132-1.177.026-.34-.104-.6-.308-.72-.587 0 0-.34-.54-.813-1.383-.46-.812-1.03-1.894-1.546-3-2.49.454-4.966.452-7.34.05-.504 1.115-1.06 2.2-1.512 3.02-.465.846-.8 1.39-.8 1.39-.115.28-.374.487-.716.595-.17.054-.36.084-.562.085-.2-.004-.41-.037-.62-.1l-.34-.103c-.22-.062-.525-.167-.89-.298l-.592-.21c-.208-.08-.424-.17-.65-.26-.223-.093-.457-.185-.69-.29l-.7-.323c-.472-.213-.924-.465-1.354-.69-.428-.227-.813-.466-1.148-.66-.333-.2-.6-.383-.79-.505l-.297-.195c-.725-.5-1.044-1.3-.75-1.837 0 0 .217-.61.575-1.5.18-.445.394-.96.635-1.502.228-.51.482-1.047.745-1.577-1.836-1.6-3.407-3.523-4.617-5.71-.573.146-1.15.28-1.698.396-.585.122-1.13.222-1.603.303-.945.16-1.587.243-1.587.243-.29.083-.625.015-.915-.188-.293-.202-.557-.53-.728-.934 0 0-.18-.485-.453-1.213-.124-.366-.258-.798-.403-1.26-.135-.465-.26-.965-.388-1.464-.108-.505-.22-1.008-.305-1.484-.076-.48-.148-.925-.2-1.31l-.134-1.287c-.026-.44.065-.85.238-1.16.17-.31.44-.522.736-.577 0 0 .61-.212 1.528-.49.46-.137.993-.29 1.57-.44.544-.14 1.12-.276 1.698-.4.11-2.497.662-4.918 1.593-7.168-.47-.358-.937-.727-1.368-1.082-.458-.378-.88-.743-1.238-1.062-.716-.638-1.18-1.09-1.18-1.09-.505-.348-.575-1.206-.148-1.977l.178-.308c.117-.194.273-.477.483-.803.214-.325.453-.71.734-1.104.286-.392.578-.82.907-1.22.163-.2.325-.402.484-.6.162-.197.33-.383.49-.566.16-.182.315-.36.466-.522l.435-.452c.27-.28.497-.51.665-.662l.26-.244c.16-.15.333-.273.51-.366.18-.09.364-.147.54-.174.355-.056.68.014.908.213 0 0 .54.34 1.335.89.767.533 1.75 1.257 2.697 2.03 1.947-1.415 4.164-2.52 6.595-3.22-.03-1.22 0-2.443.05-3.375.05-.964.112-1.6.112-1.6-.017-.302.125-.6.384-.846.26-.247.634-.438 1.068-.5l.35-.055c.224-.036.543-.085.93-.122.772-.088 1.807-.17 2.845-.17h.775l.75.032c.486.017.938.06 1.326.1.388.034.71.07.935.107l.352.05c.217.033.422.092.605.173.18.087.342.194.474.315.264.243.412.54.398.843 0 0 .072.635.133 1.6.062.93.107 2.15.09 3.374 2.383.66 4.625 1.73 6.627 3.145.936-.784 1.916-1.533 2.67-2.07.78-.555 1.32-.906 1.32-.906.226-.204.55-.28.907-.233.352.05.728.235 1.057.525l.07.062c.046.04.112.1.193.178l.674.653c.28.27.583.608.916.962.33.357.658.76.993 1.154.317.41.64.818.922 1.214.277.4.543.77.75 1.1l.498.798c.12.192.18.307.18.307.217.382.315.792.295 1.146-.027.36-.172.66-.417.84M124.35 679.39v52.3c2.798.164 5.023 2.463 5.023 5.302v3.784c0 2.944-2.387 5.33-5.332 5.33h-19.4c-2.944 0-5.33-2.386-5.33-5.33v-3.784c0-2.84 2.224-5.138 5.02-5.3V679.39c-20.83-4.58-36.425-23.134-36.425-45.342 0-25.645 20.79-46.435 46.436-46.435s46.436 20.79 46.436 46.435c0 22.208-15.594 40.763-36.426 45.342" fill="#9fe3d2"/><path d="M114.34 594.42c21.888 0 39.63 17.744 39.63 39.63H74.71c0-21.886 17.742-39.63 39.63-39.63" fill="#5ad0d6"/><path d="M135.65 634.05c0-4.914-3.984-8.898-8.898-8.898s-8.897 3.984-8.897 8.898 3.983 8.898 8.897 8.898 8.898-3.984 8.898-8.898M141.93 654.72c0-2.89-2.343-5.234-5.234-5.234-2.89 0-5.234 2.343-5.234 5.234s2.344 5.234 5.234 5.234 5.234-2.343 5.234-5.234M122.89 665.57c0-1.698-1.376-3.074-3.074-3.074s-3.075 1.376-3.075 3.074 1.378 3.074 3.076 3.074 3.074-1.376 3.074-3.074M104.33 649.49c0-4.208-3.41-7.62-7.62-7.62-4.208 0-7.62 3.412-7.62 7.62s3.412 7.62 7.62 7.62c4.21 0 7.62-3.412 7.62-7.62" fill="#5ad0d6"/><path d="M99.75 622.98c0-2.53-2.05-4.58-4.58-4.58-2.53 0-4.58 2.05-4.58 4.58s2.05 4.58 4.58 4.58c2.53 0 4.58-2.05 4.58-4.58M127.05 604.99c0-1.665-1.35-3.015-3.015-3.015s-3.015 1.35-3.015 3.015 1.35 3.015 3.015 3.015 3.015-1.35 3.015-3.015M138.79 622.01c0-1.734-1.406-3.14-3.14-3.14-1.735 0-3.14 1.406-3.14 3.14s1.405 3.14 3.14 3.14c1.734 0 3.14-1.406 3.14-3.14" fill="#9fe3d2"/><g opacity=".45" clip-path="url(#j)"><path d="M114.34 746.11h-9.7c-2.945 0-5.332-2.387-5.332-5.332v-3.784c0-2.838 2.225-5.137 5.023-5.3v-52.3c-20.832-4.58-36.425-23.135-36.425-45.343 0-25.644 20.79-46.434 46.435-46.434v158.49z" fill="#fff"/></g><path d="M241.12 758.75H218.274c-1.216 0-2.21-.995-2.21-2.21s.994-2.212 2.21-2.212h.368v-84.015c0-6.08 4.975-11.054 11.055-11.054s11.055 4.973 11.055 11.053v84.015h.368c1.216 0 2.21.995 2.21 2.21s-.994 2.212-2.21 2.212" fill="#9fe3d2"/><path d="M229.83 662.61h-.27c-4.54 0-8.254 3.714-8.254 8.253v58.853h16.777v-58.853c0-4.54-3.714-8.253-8.253-8.253" fill="#ff4d7d"/><g opacity=".45" clip-path="url(#k)"><path d="M229.7 758.75h-11.423c-1.216 0-2.21-.995-2.21-2.21s.994-2.212 2.21-2.212h.368v-84.015c0-6.08 4.975-11.054 11.055-11.054v99.49z" fill="#fff"/></g><path d="M236.83 725.44h-3.914M236.83 721.16h-3.914M236.83 704.04h-3.914M236.83 699.76h-3.914M236.83 695.48h-3.914M236.83 691.2h-3.914M236.83 686.92h-3.914M236.83 682.64h-3.914M236.83 678.36h-3.914M236.83 716.88h-3.914M236.83 712.6h-3.914M236.83 708.32h-3.914" stroke="#277d96" stroke-miterlimit="10" stroke-width=".618" fill="none"/><path d="M192.17 724.33c-1.892 0-3.588-.842-4.74-2.168l-9.706 5.105c.398 1.103.625 2.286.625 3.525 0 1.446-.297 2.823-.83 4.076l7.567 4.543c.805-.665 1.826-1.08 2.953-1.08 2.582 0 4.668 2.086 4.668 4.67 0 2.573-2.086 4.664-4.668 4.664-2.576 0-4.664-2.09-4.664-4.665 0-.407.068-.793.164-1.168l-7.503-4.506c-1.908 2.362-4.824 3.875-8.096 3.875-5.75 0-10.41-4.662-10.41-10.408 0-5.748 4.66-10.408 10.41-10.408 3.483 0 6.558 1.716 8.447 4.34l9.703-5.102c-.13-.504-.208-1.03-.208-1.575 0-3.466 2.82-6.283 6.288-6.283 3.468 0 6.284 2.817 6.284 6.283 0 3.467-2.816 6.283-6.284 6.283" fill="#c7e640"/><path d="M169.61 733.72c0-2.124-1.722-3.847-3.847-3.847-2.124 0-3.846 1.723-3.846 3.847s1.722 3.847 3.846 3.847c2.125 0 3.847-1.723 3.847-3.847M189.38 743.74c0-1.17-.948-2.117-2.117-2.117-1.17 0-2.118.948-2.118 2.117s.948 2.117 2.118 2.117 2.117-.948 2.117-2.117M193.7 719.42c0-1.445-1.17-2.616-2.616-2.616s-2.617 1.17-2.617 2.616 1.172 2.616 2.617 2.616 2.616-1.17 2.616-2.616" fill="#ffe"/><path d="M82.907 760.86c-.28 1.158-1.05 2.07-2.032 2.58l1.682 6.7c.734-.08 1.492-.043 2.25.14.886.216 1.685.602 2.372 1.115l3.905-3.957c-.288-.592-.39-1.278-.223-1.968.384-1.58 1.972-2.548 3.553-2.164 1.576.383 2.545 1.97 2.16 3.552-.382 1.577-1.972 2.544-3.548 2.16-.248-.06-.474-.158-.69-.273l-3.873 3.923c1.16 1.52 1.654 3.53 1.168 5.532-.856 3.522-4.403 5.68-7.92 4.826-3.52-.854-5.678-4.4-4.823-7.92.517-2.133 2.024-3.76 3.912-4.526l-1.68-6.698c-.33.005-.663-.026-.996-.107-2.122-.516-3.427-2.66-2.91-4.783.515-2.124 2.657-3.43 4.78-2.913 2.122.514 3.427 2.657 2.91 4.78" fill="#4dd194"/><path d="M83.87 778.17c0-1.396-1.132-2.527-2.528-2.527s-2.527 1.13-2.527 2.527 1.13 2.527 2.527 2.527 2.527-1.13 2.527-2.527M79.29 760.39c0-.706-.57-1.28-1.278-1.28-.706 0-1.278.574-1.278 1.28s.572 1.28 1.278 1.28c.707 0 1.28-.574 1.28-1.28M93.96 766.96c0-.482-.39-.872-.873-.872s-.872.39-.872.872.39.872.872.872.872-.39.872-.872" fill="#ffe"/><path d="M43.92 699.1l16.365 13.542L63.83 691.7l-19.91 7.4z" stroke="#5ad0d6" stroke-miterlimit="10" stroke-width="1.289" fill="none"/><path d="M69.06 689.76c-1.073-2.888-4.285-4.36-7.173-3.285-2.888 1.073-4.358 4.285-3.285 7.172 1.074 2.888 4.285 4.36 7.173 3.286 2.888-1.074 4.358-4.285 3.285-7.173M65.514 710.7c-1.073-2.888-4.285-4.36-7.173-3.285-2.886 1.073-4.357 4.285-3.284 7.172 1.074 2.888 4.285 4.36 7.173 3.286 2.887-1.074 4.357-4.285 3.284-7.173M49.15 697.16c-1.074-2.888-4.286-4.36-7.174-3.285-2.888 1.073-4.358 4.285-3.285 7.172 1.075 2.888 4.286 4.36 7.174 3.286 2.888-1.074 4.358-4.285 3.285-7.173" fill="#5ad0d6"/><path d="M61.554 712.88c-.78-.973-2.2-1.13-3.172-.35-.973.78-1.13 2.2-.35 3.172.78.973 2.2 1.13 3.172.35.973-.78 1.13-2.2.35-3.172M65.713 692.08c-.78-.973-2.2-1.13-3.172-.35-.972.78-1.128 2.2-.35 3.172.78.973 2.2 1.13 3.173.35.973-.78 1.13-2.2.35-3.172M45.37 699.35c-.78-.973-2.2-1.13-3.173-.35-.973.78-1.13 2.2-.35 3.172.78.973 2.2 1.13 3.172.35.972-.78 1.128-2.2.35-3.172" fill="#ffe"/><path d="M712.57 613.88l28.236 56.475-62.51 57.572" stroke="#277d96" stroke-miterlimit="10" stroke-width="3.806" fill="none"/><path d="M684.59 727.25c0-5.62-4.557-10.178-10.178-10.178s-10.178 4.557-10.178 10.178 4.557 10.178 10.178 10.178 10.178-4.557 10.178-10.178" fill="#277d96"/><path d="M667.38 696.58c-4.333-4.213-11.26-4.115-15.474.22-4.213 4.332-4.115 11.26.218 15.473 4.334 4.213 11.262 4.115 15.475-.22 4.21-4.332 4.113-11.26-.22-15.473" fill="#c7e640"/><path d="M745.97 670.35c0-2.854-2.314-5.168-5.168-5.168s-5.168 2.314-5.168 5.168 2.314 5.168 5.168 5.168 5.168-2.314 5.168-5.168" fill="#277d96"/><g opacity=".5" clip-path="url(#l)"><path d="M745.97 670.35c0-2.854-2.314-5.168-5.168-5.168s-5.168 2.314-5.168 5.168 2.314 5.168 5.168 5.168 5.168-2.314 5.168-5.168" fill="#277d96"/></g><path d="M736.11 604.53h-43.042v4.026c0 3.99 3.235 7.224 7.225 7.224h28.593c3.99 0 7.224-3.234 7.224-7.224v-4.026z" fill="#277d96"/><path d="M693.22 611c-.117-1-.222-1.894-.222-2.445V605h43v3.555c0 .55.013 1.445-.104 2.445H693.22z" fill="#277d96"/><g opacity=".5" clip-path="url(#m)"><path d="M693.22 611c-.117-1-.222-1.894-.222-2.445V605h43v3.555c0 .55.013 1.445-.104 2.445H693.22z" fill="#277d96"/></g><path d="M682.81 689.9c8.148 12.66 4.49 29.526-8.167 37.674-12.66 8.148-29.526 4.492-37.675-8.166L682.81 689.9z" fill="#277d96"/><path d="M680.04 727.63c0-2.973-2.41-5.384-5.384-5.384-2.973 0-5.383 2.41-5.383 5.384s2.41 5.384 5.383 5.384c2.974 0 5.384-2.41 5.384-5.384" fill="#277d96"/><path d="M517.87 663.49v93.31h76.064v-93.31H517.87z" fill="#c7e640"/><path d="M517.87 663.49v93.31h76.064v-93.31H517.87z" stroke="#c7e640" stroke-miterlimit="10" stroke-width="1.214" fill="none"/><g opacity=".3" clip-path="url(#n)"><path d="M555.9 663.49h-38.032v93.31H555.9v-93.31z" fill="#fff"/></g><path d="M593.94 762.47h-70.83c-2.878 0-5.234-2.356-5.234-5.234 0-2.88 2.356-5.235 5.235-5.235h70.83v10.47z" fill="#fff"/><path d="M593.94 762.47h-70.83c-2.878 0-5.234-2.356-5.234-5.234 0-2.88 2.356-5.235 5.235-5.235h70.83v10.47z" stroke="#c7e640" stroke-miterlimit="10" stroke-width="1.214" fill="none"/><path d="M517.87 757.23h76.064M518.96 759.8h74.976M517.87 754.66h76.064" stroke="#c7e640" stroke-miterlimit="10" stroke-width=".91" fill="none"/><path d="M582.91 730.45l-5.31 4.855-5.31-4.855v22.303h10.62V730.45z" fill="#fff"/><path d="M620.03 674.81v1.62c0 5.352 4.252 9.75 9.544 10.01-.164.007-.325.024-.49.024h-61.457c-5.52 0-10.035-4.516-10.035-10.035v-1.62c0-5.52 4.515-10.035 10.035-10.035h61.456c.166 0 .327.017.49.025-5.29.26-9.543 4.657-9.543 10.01" fill="#9fe3d2"/><path d="M558.7 682.41h62.25M558.7 679.02h60.906M558.7 675.62h60.456M558.7 672.23h60.72M558.7 668.83h62.25" stroke="#f4f4f4" stroke-linecap="round" stroke-miterlimit="10" stroke-width="1.672" fill="none"/><path d="M629.09 664.78h-61.456c-5.52 0-10.035 4.516-10.035 10.035v1.62c0 5.518 4.515 10.033 10.034 10.033h61.456" stroke="#ff4d7d" stroke-linecap="round" stroke-miterlimit="10" stroke-width="2.509" fill="none"/><path d="M558.52 699.87v1.62c0 5.352-4.252 9.75-9.544 10.01.164.007.325.024.49.024h61.457c5.52 0 10.035-4.516 10.035-10.035v-1.62c0-5.52-4.515-10.035-10.035-10.035h-61.456c-.166 0-.327.017-.49.025 5.29.26 9.543 4.657 9.543 10.01" fill="#9fe3d2"/><path d="M619.84 707.47h-62.25M619.84 704.07h-60.906M619.84 700.68h-60.456M619.84 697.28h-60.72M619.84 693.89h-62.25" stroke="#f4f4f4" stroke-linecap="round" stroke-miterlimit="10" stroke-width="1.672" fill="none"/><path d="M549.46 689.83h61.456c5.52 0 10.035 4.516 10.035 10.035v1.62c0 5.518-4.515 10.033-10.034 10.033H549.46" stroke="#4dd194" stroke-linecap="round" stroke-miterlimit="10" stroke-width="2.509" fill="none"/><path d="M691.11 467.49h-13.834v74.035h13.834V467.49z" fill="#c7e640"/><g fill="#277d96"><path d="M689.17 530.36h-9.953v5.417h9.953v-5.417zM689.17 528.32h-9.953v-2.935h9.953v2.935zM689.17 478.74h-9.953v-5.417h9.953v5.417zM689.17 480.78h-9.953v2.935h9.953v-2.935z"/></g><g opacity=".3" clip-path="url(#o)"><path d="M691.11 467.49h-6.917v74.035h6.917V467.49z" fill="#fff"/></g><path d="M746.58 449.4l-17.543-3.924-27.786 124.23 17.544 3.924L746.58 449.4z" fill="#5ad0d6"/><path d="M720.52 554.34l-12.62-2.823-2.034 9.09 12.62 2.822 2.034-9.09zM721.29 550.92l-12.62-2.823 1.1-4.925 12.622 2.824-1.102 4.924zM739.9 467.73l-12.62-2.823 2.03-9.09 12.623 2.824-2.033 9.09zM739.13 471.15l-12.62-2.823-1.103 4.924 12.62 2.824 1.103-4.924z" fill="#277d96"/><g opacity=".3" clip-path="url(#p)"><path d="M746.58 449.4l-8.77-1.962-27.788 124.23 8.772 1.962L746.58 449.4z" fill="#fff"/></g><path d="M663.36 467.49h-24.5v68.196h24.5V467.49z" fill="#ff4d7d"/><path d="M663.36 521.91h-24.5v6.98h24.5v-6.98zM663.36 474.35h-24.5v6.98h24.5v-6.98z" fill="#277d96"/><g opacity=".3" clip-path="url(#q)"><path d="M663.36 467.49h-12.25v68.196h12.25V467.49z" fill="#fff"/></g><path d="M675.78 467.49h-10.972v58.72h10.972v-58.72z" fill="#4dd194"/><path d="M673.01 471.82h-5.42v50.055h5.42V471.82z" fill="#277d96"/><g opacity=".3" clip-path="url(#r)"><path d="M675.78 467.49h-5.486v58.72h5.486v-58.72z" fill="#fff"/></g><path d="M706.42 467.49h-13.834v68.614h13.834V467.49z" fill="#ff4d7d"/><path d="M706.42 497.9h-13.834v7.784h13.834V497.9z" fill="#277d96"/><g opacity=".3" clip-path="url(#s)"><path d="M706.42 467.49h-6.917v68.614h6.917V467.49z" fill="#fff"/></g><path d="M704.37 454.17v1.418c0 4.688 3.724 8.54 8.358 8.766-.143.007-.284.022-.43.022h-79.654c-4.834 0-8.788-3.954-8.788-8.788v-1.418c0-4.834 3.954-8.788 8.788-8.788H712.3c.144 0 .285.014.428.022-4.634.227-8.358 4.077-8.358 8.766" fill="#9fe3d2"/><path d="M624.82 460.83h80.35M624.82 457.86h79.172M624.82 454.88h78.78M624.82 451.91h79.01M624.82 448.93h80.35" stroke="#f4f4f4" stroke-linecap="round" stroke-miterlimit="10" stroke-width="1.465" fill="none"/><path d="M712.3 445.38h-79.655c-4.833 0-8.788 3.955-8.788 8.788v1.418c0 4.834 3.955 8.79 8.788 8.79H712.3" stroke="#ff4d7d" stroke-linecap="round" stroke-miterlimit="10" stroke-width="2.197" fill="none"/><path d="M512.81 725.98l-4.87-7.088-4.87 7.088 4.87 14.054 4.87-14.054z" fill="#277d96"/><g opacity=".35" clip-path="url(#t)"><path d="M512.81 725.98l-4.87-7.088v21.142l4.87-14.054z" fill="#fff"/></g><path d="M509.14 665.01h-2.397v55.88h2.397v-55.88z" fill="#277d96"/><path d="M509.14 726.16c0-.662-.536-1.198-1.198-1.198s-1.2.536-1.2 1.198.538 1.198 1.2 1.198 1.198-.536 1.198-1.198" fill="#f4f4f4"/><path d="M509.07 719.26h-2.262c-.473 0-.86.387-.86.86v.182c0 .474.387.86.86.86h2.262c.473 0 .86-.386.86-.86v-.182c0-.473-.387-.86-.86-.86" fill="#277d96"/><path d="M518.1 56.783h-78.147c-4.865 0-8.845 3.98-8.845 8.845v103.8c0 4.865 3.98 8.845 8.845 8.845H518.1c4.865 0 8.845-3.98 8.845-8.845v-103.8c0-4.86-3.98-8.84-8.845-8.84" fill="#9fe3d2"/><path d="M511.1 137.43h-64.142c-1.987 0-3.612 1.626-3.612 3.612v19.988c0 1.987 1.625 3.613 3.612 3.613H511.1c1.987 0 3.612-1.626 3.612-3.613v-19.988c0-1.986-1.625-3.612-3.612-3.612" fill="#5ad0d6"/><path d="M511.1 137.43h-64.142c-1.987 0-3.612 1.626-3.612 3.612v19.988c0 1.987 1.625 3.613 3.612 3.613H511.1c1.987 0 3.612-1.626 3.612-3.613v-19.988c0-1.986-1.625-3.612-3.612-3.612z" stroke="#277d96" stroke-miterlimit="10" stroke-width="1.844" fill="none"/><path d="M443.34 130.87h71.367" stroke="#277d96" stroke-miterlimit="10" stroke-width="1.844" fill="#5ad0d6"/><path d="M453.31 111.56h-8.888c-.592 0-1.077.485-1.077 1.077v8.888c0 .592.485 1.077 1.077 1.077h8.888c.592 0 1.077-.485 1.077-1.077v-8.888c0-.592-.485-1.077-1.077-1.077M468.39 111.56h-8.888c-.592 0-1.077.485-1.077 1.077v8.888c0 .592.485 1.077 1.077 1.077h8.888c.592 0 1.077-.485 1.077-1.077v-8.888c0-.592-.485-1.077-1.077-1.077M483.47 111.56h-8.888c-.592 0-1.077.485-1.077 1.077v8.888c0 .592.485 1.077 1.077 1.077h8.888c.592 0 1.077-.485 1.077-1.077v-8.888c0-.592-.485-1.077-1.077-1.077M498.55 111.56h-8.888c-.592 0-1.077.485-1.077 1.077v8.888c0 .592.485 1.077 1.077 1.077h8.888c.592 0 1.077-.485 1.077-1.077v-8.888c0-.592-.485-1.077-1.077-1.077M513.63 111.56h-8.888c-.592 0-1.077.485-1.077 1.077v8.888c0 .592.485 1.077 1.077 1.077h8.888c.592 0 1.077-.485 1.077-1.077v-8.888c0-.592-.485-1.077-1.077-1.077M453.31 97.152h-8.888c-.592 0-1.077.485-1.077 1.077v8.887c0 .592.485 1.077 1.077 1.077h8.888c.592 0 1.077-.485 1.077-1.077V98.23c0-.593-.485-1.078-1.077-1.078M468.39 97.152h-8.888c-.592 0-1.077.485-1.077 1.077v8.887c0 .592.485 1.077 1.077 1.077h8.888c.592 0 1.077-.485 1.077-1.077V98.23c0-.593-.485-1.078-1.077-1.078M483.47 97.152h-8.888c-.592 0-1.077.485-1.077 1.077v8.887c0 .592.485 1.077 1.077 1.077h8.888c.592 0 1.077-.485 1.077-1.077V98.23c0-.593-.485-1.078-1.077-1.078M498.55 97.152h-8.888c-.592 0-1.077.485-1.077 1.077v8.887c0 .592.485 1.077 1.077 1.077h8.888c.592 0 1.077-.485 1.077-1.077V98.23c0-.593-.485-1.078-1.077-1.078M513.63 97.152h-8.888c-.592 0-1.077.485-1.077 1.077v8.887c0 .592.485 1.077 1.077 1.077h8.888c.592 0 1.077-.485 1.077-1.077V98.23c0-.593-.485-1.078-1.077-1.078M453.31 82.744h-8.888c-.592 0-1.077.485-1.077 1.077v8.89c0 .59.485 1.076 1.077 1.076h8.888c.592 0 1.077-.485 1.077-1.077v-8.89c0-.59-.485-1.076-1.077-1.076M468.39 82.744h-8.888c-.592 0-1.077.485-1.077 1.077v8.89c0 .59.485 1.076 1.077 1.076h8.888c.592 0 1.077-.485 1.077-1.077v-8.89c0-.59-.485-1.076-1.077-1.076M483.47 82.744h-8.888c-.592 0-1.077.485-1.077 1.077v8.89c0 .59.485 1.076 1.077 1.076h8.888c.592 0 1.077-.485 1.077-1.077v-8.89c0-.59-.485-1.076-1.077-1.076" fill="#277d96"/><path d="M507.72 82.744h-17.66c-.81 0-1.47.662-1.47 1.47v8.1c0 .81.66 1.472 1.47 1.472h17.66c.81 0 1.47-.662 1.47-1.47v-8.1c0-.81-.66-1.472-1.47-1.472" fill="#ff4d7d"/><path d="M513.26 73.858h-8.148c-.796 0-1.447.65-1.447 1.447V92.34c0 .796.65 1.447 1.447 1.447h8.148c.796 0 1.447-.65 1.447-1.447V75.305c0-.796-.65-1.447-1.447-1.447" fill="#ff4d7d"/><path d="M453.31 68.336h-8.888c-.592 0-1.077.485-1.077 1.077V78.3c0 .593.485 1.078 1.077 1.078h8.888c.592 0 1.077-.485 1.077-1.077v-8.887c0-.592-.485-1.077-1.077-1.077M468.39 68.336h-8.888c-.592 0-1.077.485-1.077 1.077V78.3c0 .593.485 1.078 1.077 1.078h8.888c.592 0 1.077-.485 1.077-1.077v-8.887c0-.592-.485-1.077-1.077-1.077M483.47 68.336h-8.888c-.592 0-1.077.485-1.077 1.077V78.3c0 .593.485 1.078 1.077 1.078h8.888c.592 0 1.077-.485 1.077-1.077v-8.887c0-.592-.485-1.077-1.077-1.077M498.55 68.336h-8.888c-.592 0-1.077.485-1.077 1.077V78.3c0 .593.485 1.078 1.077 1.078h8.888c.592 0 1.077-.485 1.077-1.077v-8.887c0-.592-.485-1.077-1.077-1.077" fill="#277d96"/><path d="M513.63 68.336h-8.888c-.592 0-1.077.485-1.077 1.077V78.3c0 .593.485 1.078 1.077 1.078h8.888c.592 0 1.077-.485 1.077-1.077v-8.887c0-.592-.485-1.077-1.077-1.077M632.79 234.79c-10.94-17.006-6.005-39.74 11-50.68l5.905 9.177c-2.066 1.33-3.878 2.906-5.423 4.666l-2.934-2.57c-.286.327-.57.665-.84 1.005l3.044 2.437c-1.308 1.632-2.398 3.403-3.26 5.268l-3.538-1.633c-.182.395-.36.8-.523 1.202l3.605 1.476c-.788 1.92-1.342 3.928-1.652 5.976l-3.845-.577c-.065.432-.12.87-.166 1.3l3.866.406c-.22 2.05-.194 4.132.085 6.198l-3.84.526c.058.43.127.865.205 1.292l3.812-.695c.364 2.012.97 4 1.834 5.922l-3.525 1.587c.177.395.367.793.563 1.182l3.45-1.74c.406.805.857 1.597 1.355 2.372.638.992 1.335 1.924 2.08 2.798l-2.942 2.508c.28.33.574.658.87.978l2.83-2.634c1.437 1.538 3.035 2.87 4.75 3.986l-2.117 3.245c.366.24.74.472 1.115.693l1.972-3.34c1.796 1.06 3.706 1.89 5.684 2.483l-1.122 3.72c.417.127.842.245 1.263.352l.96-3.77c2.005.508 4.07.776 6.147.793l-.036 3.895c.434.004.874 0 1.31-.016l-.135-3.895c2.05-.073 4.106-.392 6.117-.966l1.067 3.753c.417-.12.838-.25 1.253-.388l-1.235-3.7c1.99-.666 3.927-1.585 5.77-2.77l5.903 9.178c-17.004 10.94-39.74 6.006-50.68-11" fill="#ff4d7d"/><path d="M641.17 180.51l9.894-6.365 6.51 10.12-3.454 2.22.573.89 3.453-2.222 2.86 4.447-3.453 2.22.572.89 3.454-2.22 2.86 4.446-3.454 2.22.572.89 3.454-2.22 2.86 4.446-3.453 2.22.57.89 3.454-2.22 2.86 4.446-3.453 2.22.574.89 3.453-2.22 2.86 4.446-3.453 2.22.572.89 3.454-2.22 2.86 4.446-3.453 2.22.572.89 3.453-2.22 2.86 4.446-3.453 2.22.572.89 3.453-2.22 2.86 4.446-3.453 2.22.573.89 3.453-2.22 2.86 4.446-3.453 2.22.572.89 3.454-2.22 6.51 10.118-9.894 6.365-44.486-69.15z" fill="#ff4d7d"/><g opacity=".3" clip-path="url(#u)"><path d="M690.61 246.48l-44.486-69.15-4.947 3.182 44.486 69.15 4.947-3.182z" fill="#fff"/></g><g><path d="M709.07 141.6h-44.246l44.246 68.703V141.6zm7.17-5.03v1.34h5.405v4.816h-5.405v1.34h5.405v4.815h-5.405v1.343h5.405v4.814h-5.405v1.34h5.405v4.816h-5.405v1.34h5.405v4.816h-5.405v1.34h5.405v4.815h-5.405v1.34h5.405v4.816h-5.405v1.342h5.405v4.815h-5.405v1.34h5.405v4.816h-5.405v1.34h5.405v4.816h-5.405v1.34h5.405v4.815h-5.405v1.34h5.405v4.816h-5.405v1.342h5.405v4.815h-5.405v1.34h5.405v4.816h-5.405v1.34h5.405v4.816h-5.405v1.34h5.405v4.815h-5.405v1.34h5.405v16.122l-80.42-124.87h80.42v8.915h-5.405z" fill="#277d96"/></g><g><g opacity=".3" clip-path="url(#v)"><path d="M635.7 134.61l-4.477-6.952h80.42v6.952H635.7z" fill="#fff"/></g></g></g><g font-family="Exo" font-style="italic" fill="#277d96"><text transform="matrix(1.25 0 0 1.25 734.8 917.31)" font-size="17.487"><tspan y="0" x="0">x</tspan></text><text transform="matrix(1.25 0 0 1.25 746.25 910.03)" font-size="10.195"><tspan y="0" x="0 6.0660844">2</tspan></text><text transform="matrix(1.25 0 0 1.25 757.02 917.31)" font-size="17.487"><tspan y="0" x="0">y</tspan></text></g><g clip-path="url(#w)" transform="matrix(1.25 0 0 -1.25 0 1000)"><path d="M480.34 234.68h-23.598c-1.954 0-3.553 1.6-3.553 3.554v23.597c0 1.956 1.598 3.555 3.552 3.555h23.598c1.955 0 3.554-1.6 3.554-3.554v-23.596c0-1.955-1.6-3.554-3.554-3.554" fill="#ff4d7d"/><g opacity=".5" clip-path="url(#x)"><path d="M480.34 234.68h-23.598c-1.954 0-3.553 1.6-3.553 3.554v23.597c0 1.956 1.598 3.555 3.552 3.555h23.598c1.955 0 3.554-1.6 3.554-3.554v-23.596c0-1.955-1.6-3.554-3.554-3.554" fill="#ff4d7d"/></g><path d="M479.61 236.15h-23.598c-1.954 0-3.553 1.6-3.553 3.554V263.3c0 1.956 1.598 3.555 3.552 3.555h23.598c1.954 0 3.554-1.6 3.554-3.554v-23.596c0-1.955-1.6-3.554-3.554-3.554" fill="#ff4d7d"/><path d="M460.32 251.5h14.97" stroke="#ffe" stroke-linecap="round" stroke-miterlimit="10" stroke-width="2.854" fill="none"/><path d="M592.92 232.47h-23.598c-1.954 0-3.553 1.6-3.553 3.554v23.597c0 1.956 1.598 3.555 3.552 3.555h23.598c1.954 0 3.554-1.6 3.554-3.554v-23.596c0-1.955-1.6-3.554-3.554-3.554" fill="#5ad0d6"/><g clip-path="url(#y)"><path d="M592.92 232.47h-23.598c-1.954 0-3.553 1.6-3.553 3.554v23.597c0 1.956 1.598 3.555 3.552 3.555h23.598c1.954 0 3.554-1.6 3.554-3.554v-23.596c0-1.955-1.6-3.554-3.554-3.554" fill="#5ad0d6"/></g><path d="M592.19 233.94h-23.598c-1.954 0-3.553 1.6-3.553 3.554v23.597c0 1.956 1.598 3.555 3.552 3.555h23.598c1.954 0 3.554-1.6 3.554-3.554v-23.596c0-1.955-1.6-3.554-3.554-3.554" fill="#5ad0d6"/><path d="M572.9 252.49h14.97M572.9 246.1h14.97" stroke="#ffe" stroke-linecap="round" stroke-miterlimit="10" stroke-width="2.854" fill="none"/><path d="M517.87 233.94h-23.598c-1.954 0-3.553 1.6-3.553 3.554v23.597c0 1.956 1.598 3.555 3.552 3.555h23.598c1.955 0 3.554-1.6 3.554-3.554v-23.596c0-1.955-1.6-3.554-3.554-3.554" fill="#4dd194"/><g clip-path="url(#z)"><path d="M517.87 233.94h-23.598c-1.954 0-3.553 1.6-3.553 3.554v23.597c0 1.956 1.598 3.555 3.552 3.555h23.598c1.955 0 3.554-1.6 3.554-3.554v-23.596c0-1.955-1.6-3.554-3.554-3.554" fill="#4dd194"/></g><path d="M517.13 235.42h-23.597c-1.955 0-3.554 1.6-3.554 3.554v23.597c0 1.956 1.598 3.555 3.553 3.555h23.597c1.955 0 3.554-1.6 3.554-3.554v-23.596c0-1.955-1.6-3.554-3.554-3.554" fill="#4dd194"/><path d="M497.85 250.77h14.97M505.33 243.28v14.97" stroke="#ffe" stroke-linecap="round" stroke-miterlimit="10" stroke-width="2.854" fill="none"/><path d="M555.4 233.21h-23.597c-1.955 0-3.554 1.6-3.554 3.554v23.597c0 1.956 1.598 3.555 3.553 3.555H555.4c1.955 0 3.554-1.6 3.554-3.554v-23.596c0-1.955-1.6-3.554-3.554-3.554" fill="#c7e640"/><path d="M555.4 233.21h-23.597c-1.955 0-3.554 1.6-3.554 3.554v23.597c0 1.956 1.598 3.555 3.553 3.555H555.4c1.955 0 3.554-1.6 3.554-3.554v-23.596c0-1.955-1.6-3.554-3.554-3.554z" stroke="#c7e640" stroke-miterlimit="10" stroke-width=".939" fill="none"/><g opacity=".91" clip-path="url(#A)" transform="translate(555.4 233.21)"><path d="M0 0h-23.597c-1.955 0-3.554 1.6-3.554 3.554V27.15c0 1.956 1.598 3.555 3.553 3.555H0c1.955 0 3.554-1.6 3.554-3.554V3.555C3.554 1.6 1.954 0 0 0" fill="#c7e640"/><path d="M0 0h-23.597c-1.955 0-3.554 1.6-3.554 3.554V27.15c0 1.956 1.598 3.555 3.553 3.555H0c1.955 0 3.554-1.6 3.554-3.554V3.555C3.554 1.6 1.954 0 0 0z" stroke="#c7e640" stroke-miterlimit="10" stroke-width=".939" fill="none"/></g><path d="M554.66 234.68h-23.597c-1.955 0-3.554 1.6-3.554 3.554v23.597c0 1.956 1.598 3.555 3.553 3.555h23.597c1.955 0 3.554-1.6 3.554-3.554v-23.596c0-1.955-1.6-3.554-3.554-3.554" fill="#c7e640"/><path d="M554.66 234.68h-23.597c-1.955 0-3.554 1.6-3.554 3.554v23.597c0 1.956 1.598 3.555 3.553 3.555h23.597c1.955 0 3.554-1.6 3.554-3.554v-23.596c0-1.955-1.6-3.554-3.554-3.554z" stroke="#c7e640" stroke-miterlimit="10" stroke-width=".939" fill="none"/><path d="M537.57 244.74l10.586 10.586" stroke="#ffe" stroke-linecap="round" stroke-miterlimit="10" stroke-width="2.854" fill="none"/><path d="M540.14 254.59c0-1.017-.824-1.84-1.84-1.84-1.017 0-1.84.823-1.84 1.84s.823 1.84 1.84 1.84c1.016 0 1.84-.823 1.84-1.84M549.26 245.48c0-1.017-.824-1.84-1.84-1.84-1.017 0-1.84.823-1.84 1.84s.823 1.84 1.84 1.84c1.016 0 1.84-.823 1.84-1.84" fill="#ffe"/><path d="M573.47 150.71l-18.59 10.113.07 38.162 18.59-10.113-.07-38.162z" fill="#5ad0d6"/><path stroke-linejoin="round" d="M573.47 150.71l-18.59 10.113.07 38.162 18.59-10.113-.07-38.162z" stroke="#277d96" stroke-linecap="round" stroke-miterlimit="10" stroke-width="1.632" fill="none"/><path d="M573.54 188.87l-18.59 10.113 35.357 4.97 18.59-10.114-35.357-4.97z" fill="#5ad0d6"/><path stroke-linejoin="round" d="M573.54 188.87l-18.59 10.113 35.357 4.97 18.59-10.114-35.357-4.97z" stroke="#277d96" stroke-linecap="round" stroke-miterlimit="10" stroke-width="1.632" fill="none"/><path stroke-linejoin="round" d="M608.9 193.84l-.07-38.162-35.358-4.97.07 38.163 35.358 4.97z" stroke="#277d96" stroke-linecap="round" stroke-miterlimit="10" stroke-width="1.632" fill="none"/><path stroke-linejoin="round" d="M554.88 160.82l35.023 4.97.07 38.16M608.83 155.68l-18.925 10.113" stroke="#277d96" stroke-linecap="round" stroke-miterlimit="10" stroke-dasharray="2.527, 4.211" stroke-width="1.632" fill="none"/><path d="M287.61 209.31h-60.205v38.823l30.103 20.614 30.102-20.614V209.31z" fill="#9fe3d2"/><path stroke-linejoin="round" d="M287.61 209.31h-60.205v38.823l30.103 20.614 30.102-20.614V209.31z" stroke="#ffe" stroke-linecap="round" stroke-miterlimit="10" stroke-width="1.527" fill="none"/><path d="M275.95 209.31h-36.887c-1.38 0-2.497 1.118-2.497 2.497v48.974c0 1.38 1.118 2.498 2.497 2.498h36.887c1.38 0 2.497-1.118 2.497-2.497v-48.973c0-1.38-1.118-2.497-2.497-2.497" fill="#fff"/><path stroke-linejoin="round" d="M275.95 209.31h-36.887c-1.38 0-2.497 1.118-2.497 2.497v48.974c0 1.38 1.118 2.498 2.497 2.498h36.887c1.38 0 2.497-1.118 2.497-2.497v-48.973c0-1.38-1.118-2.497-2.497-2.497z" stroke="#9fe3d2" stroke-linecap="round" stroke-miterlimit="10" stroke-width="1.303" fill="none"/><path d="M287.61 209.31h-60.205v38.823l30.103-20.614 30.102 20.613V209.31z" fill="#9fe3d2"/><path stroke-linejoin="round" d="M287.61 209.31h-60.205v38.823l30.103-20.614 30.102 20.613V209.31z" stroke="#ffe" stroke-linecap="round" stroke-miterlimit="10" stroke-width="1.527" fill="none"/><path stroke-linejoin="round" d="M242.25 259.28h30.514M242.25 255.11h30.514M242.25 250.95h30.514M242.25 246.79h30.514M242.25 242.62h30.514M242.25 238.46h30.514M242.25 234.29h30.514M242.25 230.13h30.514" stroke="#9fe3d2" stroke-linecap="round" stroke-miterlimit="10" stroke-width="1.303" fill="#fff"/><path stroke-linejoin="round" d="M227.41 209.31l22.418 23.47M287.24 209.31l-22.418 23.47" stroke="#ffe" stroke-linecap="round" stroke-miterlimit="10" stroke-width="1.527" fill="#9fe3d2"/><path d="M180.71 630.48h15.12v15.12" fill="#5ad0d6"/><g opacity=".49" clip-path="url(#B)"><path d="M180.71 630.48h15.12v15.12" fill="#fff"/></g><path d="M195.83 645.6v-15.12h-15.12v-61.163h58.768V645.6H195.83z" fill="#5ad0d6"/><path d="M200.46 631.09h33.22M186.86 617.44h46.463M186.86 612.23h46.463M186.86 607.02h46.463M186.86 601.81h46.463M186.86 596.6h46.463M186.86 591.39h46.463" stroke="#fff" stroke-miterlimit="10" stroke-width=".868" fill="none"/></g><text transform="matrix(1.25 0 0 1.25 250.91 207.84)" font-size="5.211" font-family="Exo" fill="#fff"><tspan y="0" x="0 2.7460916 6.2685924 9.3585968 12.313121 16.486971 17.789671 18.904783 21.932257 24.975365 28.503077">LOREM IPSUM</tspan></text><g clip-path="url(#C)" transform="matrix(1.25 0 0 -1.25 0 1000)"><path d="M220.03 602.81c1.135 3.82 3.698 6.965 7.218 8.857 3.865 2.078 8.44 2.358 12.553.77 3.32-1.283 6.087-3.707 7.79-6.826 1.92-3.514 2.35-7.556 1.214-11.38-1.135-3.82-3.698-6.966-7.218-8.857-3.865-2.077-8.44-2.357-12.552-.77-3.32 1.284-6.086 3.708-7.79 6.826-1.92 3.513-2.35 7.555-1.214 11.38m-3.88-14.174c2.365-4.33 6.207-7.696 10.815-9.476 4.69-1.813 9.815-1.87 14.47-.234l13.856-24.424c.866-1.524 2.802-2.058 4.326-1.194l.68.385c1.524.865 2.058 2.802 1.194 4.326l-13.83 24.38c3.205 2.596 5.555 6.087 6.754 10.123 1.58 5.31.98 10.923-1.686 15.803-2.364 4.33-6.205 7.696-10.814 9.476-5.71 2.206-12.062 1.816-17.428-1.068-4.887-2.626-8.446-6.993-10.022-12.297-1.578-5.31-.978-10.922 1.687-15.8" fill="#277d96"/><g opacity=".3" clip-path="url(#D)"><path d="M229.04 584.6c-3.32 1.283-6.086 3.707-7.79 6.825-1.92 3.514-2.35 7.556-1.214 11.38 1.135 3.82 3.698 6.966 7.218 8.858 3.865 2.078 8.44 2.358 12.553.77 3.32-1.283 6.085-3.707 7.788-6.826 1.92-3.515 2.35-7.557 1.215-11.382-1.135-3.82-3.7-6.965-7.218-8.856-3.865-2.078-8.44-2.358-12.552-.77m20.957 22.69c-4.877 8.582-15.788 11.586-24.372 6.71-8.583-4.877-11.587-15.788-6.71-24.372 4.876-8.583 15.788-11.587 24.37-6.71 8.584 4.876 11.588 15.788 6.712 24.37" fill="#fff"/></g><path d="M599.57 547.32c-2.282-4.88.925-11.2 7.162-14.116 6.237-2.916 13.142-1.324 15.424 3.555 2.28 4.88-.925 11.2-7.162 14.115s-13.142 1.325-15.424-3.555" fill="#fff"/><path d="M599.57 547.32c-2.282-4.88.925-11.2 7.162-14.116 6.237-2.916 13.142-1.324 15.424 3.555 2.28 4.88-.925 11.2-7.162 14.115s-13.142 1.325-15.424-3.555z" stroke="#277d96" stroke-miterlimit="10" stroke-width="1.832" fill="none"/><path d="M565.93 563.05c-2.282-4.88.925-11.2 7.162-14.116 6.237-2.916 13.142-1.324 15.424 3.555 2.282 4.88-.925 11.2-7.162 14.115s-13.142 1.325-15.424-3.555" fill="#fff"/><path d="M565.93 563.05c-2.282-4.88.925-11.2 7.162-14.116 6.237-2.916 13.142-1.324 15.424 3.555 2.282 4.88-.925 11.2-7.162 14.115s-13.142 1.325-15.424-3.555zM599.57 547.32s1.164 2.49-4.427 5.103c-5.462 2.554-6.626.065-6.626.065M565.93 563.05l3.907 21.535c.308 1.7-1.546 2.96-3.013 2.048l-3.03-1.884" stroke="#277d96" stroke-miterlimit="10" stroke-width="1.832" fill="none"/></g><text transform="matrix(1.25 0 0 1.25 661.26 254.34)" font-style="italic" font-size="34" font-family="Exo" fill="#277d96"><tspan y="0" x="0 21.76 40.153999 60.452 79.288002 97.236603">AaBbCc</tspan></text><g clip-path="url(#E)" transform="matrix(1.25 0 0 -1.25 0 1000)"><path d="M529.53 582.84h115.21" stroke="#277d96" stroke-miterlimit="10" stroke-width="1.355" fill="none"/><path d="M243.33 313.19c0 7.277 6.16 13.115 13.55 12.585 6.185-.444 11.19-5.432 11.65-11.617.33-4.423-1.623-8.405-4.8-10.898-.644-.505-1.02-1.278-1.02-2.096v-3.132c0-1.477-1.196-2.675-2.674-2.675h-8.176c-1.478 0-2.675 1.198-2.675 2.675v3.132c0 .817-.374 1.59-1.017 2.096-2.945 2.31-4.838 5.897-4.838 9.93" fill="#c7e640"/><path d="M250.88 292.17h10.132c.66 0 1.193.534 1.193 1.192 0 .66-.534 1.193-1.193 1.193H250.88c-.66 0-1.192-.534-1.192-1.193 0-.658.533-1.192 1.192-1.192M250.88 289.08h10.132c.66 0 1.193.534 1.193 1.192 0 .66-.534 1.193-1.193 1.193H250.88c-.66 0-1.192-.534-1.192-1.193 0-.658.533-1.192 1.192-1.192M250.88 285.99h10.132c.66 0 1.193.534 1.193 1.192 0 .66-.534 1.193-1.193 1.193H250.88c-.66 0-1.192-.534-1.192-1.193 0-.658.533-1.192 1.192-1.192" fill="#277d96"/><g opacity=".3" clip-path="url(#F)"><path d="M250.88 288.38h5.066v-2.385h-5.066c-.66 0-1.192.534-1.192 1.193 0 .658.533 1.192 1.192 1.192" fill="#fff"/></g><g opacity=".3" clip-path="url(#G)"><path d="M250.88 291.46h5.066v-2.385h-5.066c-.66 0-1.192.534-1.192 1.193 0 .658.533 1.192 1.192 1.192" fill="#fff"/></g><g opacity=".3" clip-path="url(#H)"><path d="M250.88 294.55h5.066v-2.385h-5.066c-.66 0-1.192.534-1.192 1.193 0 .658.533 1.192 1.192 1.192" fill="#fff"/></g><g opacity=".3" clip-path="url(#I)"><path d="M255.95 325.8v-30.447h-4.088c-1.478 0-2.675 1.198-2.675 2.675v3.132c0 .817-.374 1.59-1.017 2.096-2.945 2.31-4.838 5.897-4.838 9.93 0 6.968 5.65 12.613 12.618 12.614" fill="#fff"/></g><path d="M279.43 316.57c-1.873 11.428-11.89 20.058-23.813 19.858-11.937-.2-21.666-9.18-23.14-20.682" stroke="#c7e640" stroke-miterlimit="10" stroke-dasharray="2.784, 7.655" stroke-width="8.57" fill="none"/><path d="M119.02 326.19V157h108.39" stroke="#9fe3d2" stroke-linecap="round" stroke-miterlimit="10" stroke-width="1.903" fill="none"/><path d="M236.59 92.112H76.04c-3.567 0-6.487 2.92-6.487 6.487v87.446c0 3.568 2.92 6.487 6.487 6.487h160.55c3.568 0 6.487-2.92 6.487-6.487V98.6c0-3.568-2.92-6.487-6.487-6.487" fill="#ffe"/><path d="M236.59 92.112H76.04c-3.567 0-6.487 2.92-6.487 6.487v87.446c0 3.568 2.92 6.487 6.487 6.487h160.55c3.568 0 6.487-2.92 6.487-6.487V98.6c0-3.568-2.92-6.487-6.487-6.487z" stroke="#277d96" stroke-miterlimit="10" stroke-width="5.709" fill="none"/><path d="M172.56 71.327h-28.274v20.785h28.274V71.327z" fill="#277d96"/><path d="M182.37 64.54h-47.905v2.798c0 3.24 2.65 5.89 5.89 5.89h36.124c3.24 0 5.89-2.65 5.89-5.89V64.54z" fill="#277d96"/><path stroke-linejoin="round" d="M99.334 107.28h-3.176v66.282h3.176M111.67 107.28v66.282M127.18 107.28v66.282M142.7 107.28v66.282M158.21 107.28v66.282M173.72 107.28v66.282M189.24 107.28v66.282M204.75 107.28v66.282M220.26 107.28v66.282M92.372 113.23h3.787M92.372 124.11h3.787M92.372 134.98h3.787M92.372 145.86h3.787M92.372 156.73h3.787M92.372 167.61h3.787" stroke="#9fe3d2" stroke-linecap="round" stroke-miterlimit="10" stroke-width=".634" fill="#fff"/><path d="M207.83 115.34h-87.047v6.658h87.047v-6.658z" fill="#5ad0d6"/><path d="M178.85 115.34H96.156v6.658h82.694v-6.658z" fill="#ff4d7d"/><path d="M128.98 115.34H96.163v6.658h32.817v-6.658z" fill="#9fe3d2"/><path d="M220.26 126.22h-99.482v6.658h99.482v-6.658z" fill="#5ad0d6"/><path d="M178.85 126.22H96.156v6.658h82.694v-6.658z" fill="#ff4d7d"/><path d="M112.57 126.22H96.16v6.658h16.41v-6.658z" fill="#9fe3d2"/><path d="M207.83 137.09h-87.047v6.658h87.047v-6.658z" fill="#5ad0d6"/><path d="M195.39 137.09H96.157v6.658h99.233v-6.658z" fill="#ff4d7d"/><path d="M162.31 137.09H96.154v6.658h66.156v-6.658z" fill="#9fe3d2"/><path d="M220.26 147.96h-99.482v6.658h99.482v-6.658z" fill="#5ad0d6"/><path d="M178.85 147.96H96.156v6.658h82.694v-6.658z" fill="#ff4d7d"/><path d="M145.78 147.96H96.163v6.658h49.617v-6.658z" fill="#9fe3d2"/><path d="M162.31 158.84H96.154v6.658h66.156v-6.658z" fill="#5ad0d6"/><path d="M146.04 158.84h-34.37v6.658h34.37v-6.658z" fill="#ff4d7d"/><path d="M112.57 158.84H96.16v6.658h16.41v-6.658z" fill="#9fe3d2"/><path d="M203.02 151.15c0-3.09-2.505-5.595-5.595-5.595s-5.596 2.505-5.596 5.595 2.505 5.595 5.595 5.595 5.595-2.505 5.595-5.595" fill="#f2f2f2"/><path d="M203.02 151.15c0-3.09-2.505-5.595-5.595-5.595s-5.596 2.505-5.596 5.595 2.505 5.595 5.595 5.595 5.595-2.505 5.595-5.595z" stroke="#5ad0d6" stroke-miterlimit="10" stroke-width="1.385" fill="none"/><path d="M156.37 118.25c0-3.09-2.505-5.595-5.595-5.595s-5.596 2.505-5.596 5.595 2.505 5.595 5.595 5.595 5.595-2.505 5.595-5.595" fill="#f2f2f2"/><path d="M156.37 118.25c0-3.09-2.505-5.595-5.595-5.595s-5.596 2.505-5.596 5.595 2.505 5.595 5.595 5.595 5.595-2.505 5.595-5.595z" stroke="#ff4d7d" stroke-miterlimit="10" stroke-width="1.385" fill="none"/><path d="M78.888 177.94l3.016 6.63 2.97-6.65-5.986.02zM151.92 227.35l-34.813-28.89-45.046 4.17 34.814 28.89 45.046-4.17z" fill="#5ad0d6"/><g opacity=".38" clip-path="url(#J)"><path d="M152.07 227.39l-34.813-28.89-10.233 33.06 45.046-4.17z" fill="#5ad0d6"/></g><path d="M117.93 196.16l-26.686 2.34 3.402-10.99c1.468-4.74 13.825-5.127 26.78-1.117 12.957 4.01 22.936 11.31 21.47 16.05l-3.515 11.35-21.45-17.633z" fill="#5ad0d6"/><path d="M81.974 204.44l-.073-20.713" stroke="#5ad0d6" stroke-miterlimit="10" stroke-width="1.245" fill="none"/><path d="M84.125 183.55c-.004-1.228-1.004-2.22-2.232-2.216-1.228.004-2.22 1.003-2.216 2.232.004 1.228 1.003 2.22 2.232 2.216 1.227-.004 2.22-1.004 2.215-2.232" fill="#5ad0d6"/><path d="M192.03 279.46H56.05c-1.446 0-2.62 1.172-2.62 2.62v41.606c0 1.446 1.174 2.618 2.62 2.618h135.98c1.446 0 2.62-1.172 2.62-2.618V282.08c0-1.448-1.174-2.62-2.62-2.62" fill="#fff"/><path d="M192.03 279.46H56.05c-1.446 0-2.62 1.172-2.62 2.62v41.606c0 1.446 1.174 2.618 2.62 2.618h135.98c1.446 0 2.62-1.172 2.62-2.618V282.08c0-1.448-1.174-2.62-2.62-2.62z" stroke="#277d96" stroke-miterlimit="10" stroke-width="1.473" fill="none"/><path d="M75.37 315.34h-4.29c-.546 0-.99.443-.99.99v4.29c0 .546.444.99.99.99h4.29c.547 0 .99-.444.99-.99v-4.29c0-.547-.443-.99-.99-.99M84.61 315.34h-4.29c-.547 0-.99.443-.99.99v4.29c0 .546.443.99.99.99h4.29c.546 0 .99-.444.99-.99v-4.29c0-.547-.444-.99-.99-.99M93.848 315.34h-4.29c-.546 0-.99.443-.99.99v4.29c0 .546.444.99.99.99h4.29c.547 0 .99-.444.99-.99v-4.29c0-.547-.443-.99-.99-.99M103.09 315.34H98.8c-.546 0-.99.443-.99.99v4.29c0 .546.444.99.99.99h4.29c.547 0 .99-.444.99-.99v-4.29c0-.547-.443-.99-.99-.99M112.33 315.34h-4.29c-.546 0-.99.443-.99.99v4.29c0 .546.444.99.99.99h4.29c.547 0 .99-.444.99-.99v-4.29c0-.547-.443-.99-.99-.99M121.56 315.34h-4.29c-.546 0-.99.443-.99.99v4.29c0 .546.444.99.99.99h4.29c.547 0 .99-.444.99-.99v-4.29c0-.547-.443-.99-.99-.99M130.8 315.34h-4.29c-.546 0-.99.443-.99.99v4.29c0 .546.444.99.99.99h4.29c.547 0 .99-.444.99-.99v-4.29c0-.547-.443-.99-.99-.99M140.04 315.34h-4.29c-.546 0-.99.443-.99.99v4.29c0 .546.444.99.99.99h4.29c.547 0 .99-.444.99-.99v-4.29c0-.547-.443-.99-.99-.99M149.28 315.34h-4.29c-.546 0-.99.443-.99.99v4.29c0 .546.444.99.99.99h4.29c.547 0 .99-.444.99-.99v-4.29c0-.547-.443-.99-.99-.99M158.52 315.34h-4.29c-.546 0-.99.443-.99.99v4.29c0 .546.444.99.99.99h4.29c.547 0 .99-.444.99-.99v-4.29c0-.547-.443-.99-.99-.99M167.76 315.34h-4.29c-.546 0-.99.443-.99.99v4.29c0 .546.444.99.99.99h4.29c.547 0 .99-.444.99-.99v-4.29c0-.547-.443-.99-.99-.99M177 315.34h-4.29c-.546 0-.99.443-.99.99v4.29c0 .546.444.99.99.99H177c.547 0 .99-.444.99-.99v-4.29c0-.547-.443-.99-.99-.99M186.24 315.34h-4.29c-.546 0-.99.443-.99.99v4.29c0 .546.444.99.99.99h4.29c.547 0 .99-.444.99-.99v-4.29c0-.547-.443-.99-.99-.99M66.132 304.94h-4.29c-.546 0-.99.443-.99.99v4.29c0 .546.444.99.99.99h4.29c.547 0 .99-.444.99-.99v-4.29c0-.547-.443-.99-.99-.99M75.37 304.94h-4.29c-.546 0-.99.443-.99.99v4.29c0 .546.444.99.99.99h4.29c.547 0 .99-.444.99-.99v-4.29c0-.547-.443-.99-.99-.99M84.61 304.94h-4.29c-.547 0-.99.443-.99.99v4.29c0 .546.443.99.99.99h4.29c.546 0 .99-.444.99-.99v-4.29c0-.547-.444-.99-.99-.99M93.848 304.94h-4.29c-.546 0-.99.443-.99.99v4.29c0 .546.444.99.99.99h4.29c.547 0 .99-.444.99-.99v-4.29c0-.547-.443-.99-.99-.99M103.09 304.94H98.8c-.546 0-.99.443-.99.99v4.29c0 .546.444.99.99.99h4.29c.547 0 .99-.444.99-.99v-4.29c0-.547-.443-.99-.99-.99M112.33 304.94h-4.29c-.546 0-.99.443-.99.99v4.29c0 .546.444.99.99.99h4.29c.547 0 .99-.444.99-.99v-4.29c0-.547-.443-.99-.99-.99M121.56 304.94h-4.29c-.546 0-.99.443-.99.99v4.29c0 .546.444.99.99.99h4.29c.547 0 .99-.444.99-.99v-4.29c0-.547-.443-.99-.99-.99M130.8 304.94h-4.29c-.546 0-.99.443-.99.99v4.29c0 .546.444.99.99.99h4.29c.547 0 .99-.444.99-.99v-4.29c0-.547-.443-.99-.99-.99M140.04 304.94h-4.29c-.546 0-.99.443-.99.99v4.29c0 .546.444.99.99.99h4.29c.547 0 .99-.444.99-.99v-4.29c0-.547-.443-.99-.99-.99M149.28 304.94h-4.29c-.546 0-.99.443-.99.99v4.29c0 .546.444.99.99.99h4.29c.547 0 .99-.444.99-.99v-4.29c0-.547-.443-.99-.99-.99M158.52 304.94h-4.29c-.546 0-.99.443-.99.99v4.29c0 .546.444.99.99.99h4.29c.547 0 .99-.444.99-.99v-4.29c0-.547-.443-.99-.99-.99M167.76 304.94h-4.29c-.546 0-.99.443-.99.99v4.29c0 .546.444.99.99.99h4.29c.547 0 .99-.444.99-.99v-4.29c0-.547-.443-.99-.99-.99M66.132 294.55h-4.29c-.546 0-.99.443-.99.99v4.29c0 .546.444.99.99.99h4.29c.547 0 .99-.444.99-.99v-4.29c0-.547-.443-.99-.99-.99M75.37 294.55h-4.29c-.546 0-.99.443-.99.99v4.29c0 .546.444.99.99.99h4.29c.547 0 .99-.444.99-.99v-4.29c0-.547-.443-.99-.99-.99M84.61 294.55h-4.29c-.547 0-.99.443-.99.99v4.29c0 .546.443.99.99.99h4.29c.546 0 .99-.444.99-.99v-4.29c0-.547-.444-.99-.99-.99M93.848 294.55h-4.29c-.546 0-.99.443-.99.99v4.29c0 .546.444.99.99.99h4.29c.547 0 .99-.444.99-.99v-4.29c0-.547-.443-.99-.99-.99M103.09 294.55H98.8c-.546 0-.99.443-.99.99v4.29c0 .546.444.99.99.99h4.29c.547 0 .99-.444.99-.99v-4.29c0-.547-.443-.99-.99-.99M112.33 294.55h-4.29c-.546 0-.99.443-.99.99v4.29c0 .546.444.99.99.99h4.29c.547 0 .99-.444.99-.99v-4.29c0-.547-.443-.99-.99-.99M121.56 294.55h-4.29c-.546 0-.99.443-.99.99v4.29c0 .546.444.99.99.99h4.29c.547 0 .99-.444.99-.99v-4.29c0-.547-.443-.99-.99-.99M130.8 294.55h-4.29c-.546 0-.99.443-.99.99v4.29c0 .546.444.99.99.99h4.29c.547 0 .99-.444.99-.99v-4.29c0-.547-.443-.99-.99-.99M140.04 294.55h-4.29c-.546 0-.99.443-.99.99v4.29c0 .546.444.99.99.99h4.29c.547 0 .99-.444.99-.99v-4.29c0-.547-.443-.99-.99-.99M149.28 294.55h-4.29c-.546 0-.99.443-.99.99v4.29c0 .546.444.99.99.99h4.29c.547 0 .99-.444.99-.99v-4.29c0-.547-.443-.99-.99-.99M158.52 294.55h-4.29c-.546 0-.99.443-.99.99v4.29c0 .546.444.99.99.99h4.29c.547 0 .99-.444.99-.99v-4.29c0-.547-.443-.99-.99-.99M167.76 294.55h-4.29c-.546 0-.99.443-.99.99v4.29c0 .546.444.99.99.99h4.29c.547 0 .99-.444.99-.99v-4.29c0-.547-.443-.99-.99-.99M177 294.55h-4.29c-.546 0-.99.443-.99.99v4.29c0 .546.444.99.99.99H177c.547 0 .99-.444.99-.99v-4.29c0-.547-.443-.99-.99-.99" fill="#277d96"/><path d="M184.09 311.21H172.87c-.636 0-1.153-.517-1.153-1.155v-3.96c0-.637.517-1.154 1.154-1.154h6.93c.638 0 1.155-.516 1.155-1.154v-8.084c0-.638.517-1.155 1.155-1.155h3.96c.638 0 1.155.517 1.155 1.155v14.354c0 .637-.517 1.154-1.155 1.154h-1.98z" fill="#ff4d7d"/><path d="M66.132 284.15h-4.29c-.546 0-.99.443-.99.99v4.29c0 .546.444.99.99.99h4.29c.547 0 .99-.444.99-.99v-4.29c0-.547-.443-.99-.99-.99M75.37 284.15h-4.29c-.546 0-.99.443-.99.99v4.29c0 .546.444.99.99.99h4.29c.547 0 .99-.444.99-.99v-4.29c0-.547-.443-.99-.99-.99M84.61 284.15h-4.29c-.547 0-.99.443-.99.99v4.29c0 .546.443.99.99.99h4.29c.546 0 .99-.444.99-.99v-4.29c0-.547-.444-.99-.99-.99M93.848 284.15h-4.29c-.546 0-.99.443-.99.99v4.29c0 .546.444.99.99.99h4.29c.547 0 .99-.444.99-.99v-4.29c0-.547-.443-.99-.99-.99" fill="#277d96"/><path d="M157.78 290.42H98.923c-.615 0-1.114-.5-1.114-1.114v-4.042c0-.615.5-1.113 1.114-1.113H158.4c.614 0 1.112.5 1.112 1.114v4.042c0 .615-.498 1.114-1.113 1.114h-.62z" fill="#ff4d7d"/><path d="M167.76 284.15h-4.29c-.546 0-.99.443-.99.99v4.29c0 .546.444.99.99.99h4.29c.547 0 .99-.444.99-.99v-4.29c0-.547-.443-.99-.99-.99M177 284.15h-4.29c-.546 0-.99.443-.99.99v4.29c0 .546.444.99.99.99H177c.547 0 .99-.444.99-.99v-4.29c0-.547-.443-.99-.99-.99M186.24 284.15h-4.29c-.546 0-.99.443-.99.99v4.29c0 .546.444.99.99.99h4.29c.547 0 .99-.444.99-.99v-4.29c0-.547-.443-.99-.99-.99" fill="#277d96"/><path d="M283.39 29.138c0-.703.11-1.3.328-1.795.218-.494.517-.866.897-1.115.38-.25.795-.377 1.244-.377.455 0 .87.12 1.25.358.375.237.676.602.9 1.09.226.492.338 1.107.338 1.84 0 .69-.112 1.284-.337 1.782-.224.496-.528.876-.91 1.14-.384.262-.804.393-1.26.393-.474 0-.898-.135-1.272-.404-.374-.27-.663-.655-.87-1.16s-.308-1.087-.308-1.752m5.1-3.81v.258c-.348-.398-.69-.723-1.03-.972-.34-.25-.706-.442-1.102-.57-.396-.133-.827-.196-1.296-.196-.62 0-1.196.13-1.725.394-.528.262-.986.638-1.37 1.126-.39.487-.68 1.06-.88 1.718s-.3 1.37-.3 2.137c0 1.62.396 2.886 1.188 3.79.79.905 1.833 1.358 3.125 1.358.747 0 1.377-.127 1.89-.382.513-.257 1.013-.653 1.5-1.183v3.827c0 .532.106.934.32 1.206.21.273.513.408.906.408.392 0 .694-.125.906-.375.213-.25.32-.617.32-1.105V25.33c0-.495-.114-.865-.343-1.112-.23-.246-.523-.37-.884-.37-.355 0-.648.128-.88.384-.23.258-.345.623-.345 1.097M294.85 29.954h4.702c-.063.887-.304 1.55-.718 1.99-.415.44-.96.66-1.638.66-.646 0-1.177-.222-1.59-.668-.416-.447-.667-1.108-.756-1.982m5.07-1.473h-5.07c.006-.587.124-1.106.356-1.555.23-.45.54-.79.92-1.017.385-.228.807-.34 1.27-.34.31 0 .593.034.85.107.256.074.504.186.746.343.24.154.46.32.664.498.202.178.464.42.788.723.133.112.323.17.57.17.267 0 .48-.074.645-.22.164-.146.248-.35.248-.617 0-.234-.093-.507-.276-.82-.185-.315-.462-.615-.83-.904-.373-.29-.837-.527-1.398-.717-.56-.19-1.204-.285-1.933-.285-1.664 0-2.96.475-3.883 1.424-.925.95-1.387 2.24-1.387 3.866 0 .766.114 1.477.342 2.132.228.656.56 1.217.997 1.686.436.47.974.827 1.614 1.078.64.25 1.35.374 2.128.374 1.012 0 1.88-.212 2.606-.64.726-.427 1.27-.98 1.63-1.657.36-.677.54-1.368.54-2.07 0-.652-.186-1.074-.56-1.27-.372-.19-.9-.29-1.577-.29M311.74 27.24c0-.717-.173-1.33-.523-1.84-.347-.51-.862-.896-1.543-1.16-.68-.262-1.508-.393-2.483-.393-.93 0-1.728.143-2.393.428-.664.284-1.156.642-1.472 1.068-.317.428-.475.856-.475 1.288 0 .286.1.53.304.73s.46.305.77.305c.272 0 .48-.067.626-.2.146-.132.286-.32.417-.56.267-.463.586-.806.956-1.035.37-.228.875-.342 1.515-.342.52 0 .945.116 1.278.347.332.232.498.496.498.794 0 .455-.172.786-.518.995-.345.21-.914.41-1.705.6-.892.22-1.618.453-2.18.698-.56.242-1.007.564-1.343.962-.335.4-.503.89-.503 1.473 0 .52.155 1.01.465 1.473.31.462.767.83 1.373 1.106.603.277 1.333.414 2.188.414.672 0 1.276-.07 1.81-.21.536-.137.983-.326 1.34-.56.358-.234.63-.493.816-.777.187-.286.28-.564.28-.837 0-.297-.1-.54-.298-.732-.2-.188-.483-.285-.85-.285-.267 0-.493.075-.68.228-.186.152-.4.38-.64.683-.197.254-.427.457-.693.61-.267.152-.628.227-1.084.227-.468 0-.857-.1-1.167-.3-.31-.198-.465-.446-.465-.744 0-.273.113-.496.34-.67.23-.175.536-.32.923-.432.388-.113.918-.25 1.597-.416.803-.198 1.46-.432 1.97-.704.51-.27.896-.593 1.16-.964.262-.37.393-.792.393-1.267M315.67 32.918v-7.493c0-.52-.124-.913-.37-1.18s-.56-.397-.94-.397-.69.135-.927.408c-.238.272-.356.662-.356 1.17v7.417c0 .512.118.898.356 1.158.237.26.546.39.926.39s.692-.13.94-.39.37-.62.37-1.082m-1.283 2.678c-.36 0-.67.11-.925.333-.257.22-.385.533-.385.94 0 .367.13.668.394.906.264.24.57.357.917.357.336 0 .634-.108.893-.323.26-.216.39-.53.39-.94 0-.4-.127-.712-.38-.936-.254-.225-.554-.338-.903-.338M319.52 29.204c0-1.05.23-1.846.688-2.384.46-.54 1.053-.807 1.78-.807.43 0 .838.116 1.22.346.385.23.696.58.938 1.044.24.466.36 1.03.36 1.695 0 1.056-.232 1.88-.698 2.468-.466.59-1.078.884-1.838.884-.742 0-1.335-.282-1.78-.846-.447-.562-.67-1.364-.67-2.402m7.513 3.286v-7.53c0-.862-.093-1.604-.277-2.225-.182-.62-.477-1.133-.882-1.538-.406-.404-.936-.706-1.59-.9-.656-.198-1.47-.296-2.447-.296-.893 0-1.69.126-2.394.376-.702.25-1.243.573-1.624.97-.38.394-.57.8-.57 1.22 0 .316.107.575.323.773.215.2.475.3.778.3.38 0 .714-.17 1-.504.137-.17.28-.345.43-.52.15-.174.315-.322.494-.446.18-.122.398-.214.65-.275.254-.058.546-.09.875-.09.67 0 1.19.093 1.562.28.37.187.63.45.78.785.148.334.235.693.26 1.077s.044 1 .057 1.85c-.4-.56-.86-.985-1.384-1.276-.522-.29-1.144-.435-1.866-.435-.867 0-1.625.222-2.275.665-.648.443-1.147 1.063-1.495 1.86-.35.8-.522 1.72-.522 2.765 0 .778.105 1.482.317 2.108.213.628.515 1.157.908 1.587.392.43.845.755 1.357.974.513.218 1.077.327 1.69.327.735 0 1.372-.14 1.91-.42.538-.284 1.04-.725 1.5-1.327v.352c0 .45.11.797.333 1.045.222.246.507.37.856.37.5 0 .83-.163.995-.49.165-.325.248-.796.248-1.41M331.15 32.956v-.313c.455.6.954 1.043 1.496 1.325.54.28 1.163.423 1.866.423.684 0 1.295-.15 1.833-.447s.94-.718 1.206-1.26c.173-.32.283-.662.333-1.028.05-.368.078-.836.078-1.406v-4.825c0-.52-.12-.913-.356-1.18-.238-.265-.546-.397-.926-.397-.387 0-.7.135-.94.408-.242.272-.36.662-.36 1.17v4.32c0 .855-.12 1.51-.358 1.96-.238.453-.71.68-1.42.68-.462 0-.883-.137-1.263-.412-.38-.277-.66-.656-.836-1.136-.125-.387-.19-1.108-.19-2.165v-3.248c0-.526-.12-.92-.364-1.184-.244-.262-.56-.392-.945-.392-.373 0-.68.135-.92.408-.24.272-.362.662-.362 1.17v7.492c0 .494.108.863.323 1.107.216.243.51.366.884.366.228 0 .434-.053.62-.162.18-.108.33-.27.44-.483.11-.216.166-.48.166-.79M341.86 29.954h4.7c-.062.887-.3 1.55-.716 1.99-.415.44-.96.66-1.638.66-.646 0-1.177-.222-1.592-.668-.415-.447-.665-1.108-.754-1.982m5.07-1.473h-5.07c.007-.587.125-1.106.356-1.555.23-.45.538-.79.922-1.017.382-.228.805-.34 1.267-.34.31 0 .594.034.85.107.256.074.505.186.747.343.24.154.46.32.665.498.2.178.464.42.787.723.133.112.323.17.57.17.266 0 .482-.074.646-.22.165-.146.247-.35.247-.617 0-.234-.092-.507-.276-.82s-.46-.615-.83-.904c-.37-.29-.835-.527-1.396-.717-.56-.19-1.205-.285-1.933-.285-1.664 0-2.96.475-3.884 1.424-.924.95-1.386 2.24-1.386 3.866 0 .766.114 1.477.34 2.132.23.656.563 1.217 1 1.686.436.47.975.827 1.614 1.078.64.25 1.35.374 2.128.374 1.012 0 1.88-.212 2.606-.64.725-.427 1.268-.98 1.63-1.657.36-.677.54-1.368.54-2.07 0-.652-.186-1.074-.56-1.27-.373-.19-.898-.29-1.577-.29M352.4 29.138c0-.703.108-1.3.327-1.795.218-.494.518-.866.9-1.115.378-.25.793-.377 1.242-.377.455 0 .872.12 1.248.358.377.237.678.602.902 1.09.225.492.338 1.107.338 1.84 0 .69-.113 1.284-.338 1.782-.224.496-.528.876-.912 1.14-.383.262-.802.393-1.258.393-.474 0-.9-.135-1.273-.404-.373-.27-.663-.655-.87-1.16s-.307-1.087-.307-1.752m5.1-3.81v.258c-.35-.398-.692-.723-1.03-.972-.34-.25-.706-.442-1.102-.57-.395-.133-.828-.196-1.296-.196-.622 0-1.196.13-1.724.394-.53.262-.987.638-1.373 1.126-.387.487-.68 1.06-.878 1.718-.2.66-.3 1.37-.3 2.137 0 1.62.396 2.886 1.187 3.79.792.905 1.834 1.358 3.125 1.358.747 0 1.377-.127 1.89-.382.512-.257 1.013-.653 1.5-1.183v3.827c0 .532.106.934.318 1.206.212.273.515.408.908.408.392 0 .694-.125.906-.375.212-.25.32-.617.32-1.105V25.33c0-.495-.115-.865-.343-1.112-.23-.246-.523-.37-.884-.37-.355 0-.648.128-.88.384-.23.258-.346.623-.346 1.097M368.22 29.062c0-1.032.236-1.824.708-2.378.47-.555 1.09-.833 1.856-.833.652 0 1.215.284 1.686.852.472.567.708 1.38.708 2.436 0 .684-.098 1.274-.294 1.767-.197.494-.475.876-.836 1.144-.36.268-.783.403-1.264.403-.493 0-.934-.135-1.32-.404-.386-.27-.69-.66-.912-1.17-.22-.507-.332-1.115-.332-1.818m-.124 7.703v-3.96c.488.506.985.895 1.492 1.163.506.27 1.133.404 1.88.404.862 0 1.616-.205 2.266-.612.648-.41 1.152-1.002 1.51-1.777.357-.775.537-1.696.537-2.76 0-.785-.1-1.504-.298-2.16-.2-.655-.49-1.224-.87-1.704-.38-.483-.84-.856-1.38-1.118-.543-.263-1.14-.394-1.792-.394-.4 0-.775.047-1.125.143-.352.095-.652.22-.898.376-.246.154-.457.314-.632.48-.174.163-.404.41-.69.74v-.256c0-.488-.116-.857-.35-1.108-.233-.25-.53-.374-.893-.374-.367 0-.66.124-.878.374-.22.25-.328.62-.328 1.108v11.322c0 .525.106.923.318 1.19.212.27.51.405.888.405.4 0 .706-.128.922-.384.215-.258.322-.622.322-1.098M379.14 23.524l.237.58-3.19 8.035c-.197.46-.296.797-.296 1.006 0 .222.06.427.172.616.115.19.27.343.47.456.2.116.407.172.623.172.373 0 .654-.12.845-.356s.358-.577.503-1.02l2.195-6.383 2.08 5.937c.164.48.313.857.446 1.13.133.272.273.456.422.55.15.095.36.143.632.143.197 0 .385-.052.566-.157.18-.104.32-.245.417-.423.1-.177.15-.363.15-.56-.027-.12-.067-.29-.125-.513-.058-.22-.126-.447-.21-.674l-3.38-8.852c-.292-.778-.577-1.388-.855-1.83-.28-.445-.647-.787-1.107-1.023-.46-.238-1.078-.356-1.857-.356-.76 0-1.33.083-1.708.247-.382.166-.57.466-.57.903 0 .297.09.527.27.688.18.162.448.244.802.244.14 0 .276-.02.41-.06.163-.036.306-.056.426-.056.297 0 .532.044.703.134.17.088.323.24.46.46.135.218.293.54.47.964M416.7 34.166h.618v.778c0 .815.1 1.457.307 1.938.204.478.555.826 1.047 1.045.49.217 1.163.326 2.016.326 1.52 0 2.273-.367 2.273-1.114 0-.24-.078-.446-.24-.617-.154-.168-.342-.255-.557-.255-.1 0-.278.018-.527.06-.238.032-.453.055-.624.055-.467 0-.766-.14-.905-.415-.127-.276-.195-.67-.195-1.185v-.617h.633c.99 0 1.48-.297 1.48-.895 0-.418-.126-.69-.39-.804-.263-.114-.625-.17-1.09-.17h-.633v-6.872c0-.51-.12-.9-.37-1.168-.24-.273-.553-.406-.942-.406-.367 0-.67.133-.918.406-.244.267-.364.657-.364 1.168v6.87h-.714c-.388 0-.682.085-.893.263-.208.17-.314.4-.314.677 0 .624.435.932 1.304.932M425.19 27.592v-2.168c0-.523-.133-.92-.374-1.18-.247-.265-.56-.394-.937-.394-.383 0-.69.13-.928.4-.237.264-.36.656-.36 1.174v7.223c0 1.166.42 1.75 1.26 1.75.434 0 .743-.136.934-.41.19-.273.295-.673.317-1.208.308.534.624.934.948 1.208.333.273.764.408 1.31.408.55 0 1.073-.135 1.586-.408.516-.274.77-.637.77-1.085 0-.315-.11-.58-.325-.782-.22-.208-.453-.31-.705-.31-.1 0-.33.062-.692.18-.365.113-.69.172-.963.172-.38 0-.692-.102-.932-.297-.242-.206-.43-.498-.564-.887-.13-.395-.22-.865-.273-1.404-.047-.543-.07-1.204-.07-1.982M432.04 29.96h4.7c-.06.884-.297 1.55-.713 1.985-.418.443-.96.66-1.64.66-.646 0-1.177-.22-1.592-.668-.414-.447-.668-1.105-.755-1.978m5.074-1.476h-5.074c.01-.588.124-1.11.354-1.558.236-.446.54-.786.925-1.017.384-.228.803-.34 1.268-.34.31 0 .593.033.85.11.253.07.504.186.745.34.242.154.46.32.664.5.202.176.466.418.79.72.134.114.324.174.568.174.27 0 .48-.074.65-.222.165-.147.243-.35.243-.617 0-.235-.09-.508-.268-.82-.187-.316-.463-.615-.836-.905-.374-.286-.84-.528-1.397-.714-.56-.19-1.206-.286-1.932-.286-1.67 0-2.964.472-3.887 1.422-.924.952-1.39 2.242-1.39 3.868 0 .766.116 1.478.346 2.134.225.66.558 1.216 1 1.688.435.47.97.828 1.612 1.078.637.25 1.346.374 2.128.374 1.01 0 1.88-.214 2.606-.645.724-.424 1.274-.978 1.63-1.656.36-.68.54-1.368.54-2.074 0-.648-.188-1.07-.56-1.266-.374-.193-.898-.29-1.576-.29M442.83 29.96h4.7c-.062.884-.303 1.55-.714 1.985-.42.443-.962.66-1.642.66-.646 0-1.176-.22-1.593-.668-.412-.447-.666-1.105-.75-1.978m5.073-1.476h-5.073c.006-.588.125-1.11.355-1.558.23-.446.54-.786.92-1.017.383-.228.806-.34 1.272-.34.308 0 .593.033.845.11.258.07.505.186.75.34.242.154.46.32.664.5.2.176.464.418.788.72.135.114.326.174.568.174.27 0 .484-.074.65-.222.166-.147.24-.35.24-.617 0-.235-.086-.508-.273-.82-.177-.316-.456-.615-.83-.905-.37-.286-.84-.528-1.396-.714-.558-.19-1.208-.286-1.935-.286-1.668 0-2.96.472-3.888 1.422-.923.952-1.388 2.242-1.388 3.868 0 .766.116 1.478.347 2.134.228.66.56 1.216.998 1.688.435.47.972.828 1.614 1.078.637.25 1.35.374 2.13.374 1.007 0 1.877-.214 2.612-.645.72-.424 1.266-.978 1.62-1.656.36-.68.546-1.368.546-2.074 0-.648-.19-1.07-.562-1.266-.375-.193-.9-.29-1.575-.29M458.66 29.17c0 .683-.107 1.272-.315 1.762-.208.492-.5.867-.866 1.128-.368.262-.783.396-1.233.396-.714 0-1.32-.284-1.81-.844-.49-.566-.738-1.395-.738-2.493 0-1.027.243-1.834.734-2.407.488-.573 1.086-.858 1.813-.858.43 0 .83.125 1.197.372.37.253.665.626.884 1.126.22.502.332 1.108.332 1.816m-5.084 3.767v-.31c.486.6.994 1.04 1.524 1.323.52.284 1.12.427 1.783.427.795 0 1.535-.208 2.207-.617.67-.414 1.198-1.016 1.588-1.807.39-.795.586-1.73.586-2.813 0-.796-.112-1.532-.336-2.2-.223-.67-.537-1.228-.928-1.68-.394-.45-.856-.803-1.39-1.047-.542-.24-1.11-.363-1.727-.363-.74 0-1.365.148-1.866.447-.503.292-.982.733-1.44 1.306V21.71c0-1.136-.417-1.71-1.245-1.71-.49 0-.81.146-.972.44-.15.298-.233.723-.233 1.29v11.194c0 .495.106.86.32 1.107.215.24.512.366.885.366.37 0 .666-.125.895-.375.236-.252.35-.61.35-1.083M465.16 32.924v-7.502c0-.516-.124-.908-.37-1.172-.25-.27-.56-.4-.94-.4-.382 0-.686.133-.93.406-.233.276-.355.665-.355 1.166v7.428c0 .51.122.894.356 1.154.244.265.548.392.93.392.38 0 .69-.127.94-.392.246-.26.37-.622.37-1.08m-1.284 2.68c-.363 0-.67.113-.923.334-.26.222-.388.532-.388.936 0 .368.13.67.397.91.262.235.566.356.914.356.34 0 .636-.107.893-.32.26-.218.39-.534.39-.946 0-.4-.127-.71-.378-.935-.254-.223-.555-.337-.906-.337M473.52 25.033l-2.284 3.766-1.408-1.33v-2.065c0-.5-.133-.882-.397-1.15-.256-.272-.565-.406-.905-.406-.4 0-.715.13-.94.4-.227.263-.344.656-.344 1.174v11.063c0 .573.115 1.01.332 1.314.222.305.545.453.953.453.4 0 .713-.137.95-.41.233-.272.353-.675.353-1.203v-6.294l2.916 3.063c.362.375.632.64.827.777.19.14.42.208.69.208.326 0 .594-.103.816-.308.21-.206.32-.466.32-.774 0-.38-.354-.888-1.055-1.52l-1.376-1.264 2.66-4.184c.193-.313.338-.543.423-.706.084-.16.13-.32.13-.462 0-.413-.114-.734-.34-.975-.225-.236-.524-.354-.886-.354-.316 0-.563.08-.733.255-.17.173-.407.484-.697.928" fill="#9fe3d2"/><g><path d="M479.16 23.85c-.392 0-.727.126-1.014.38-.284.25-.428.606-.428 1.065 0 .386.137.72.41.996.274.28.607.42 1.008.42.397 0 .735-.14 1.022-.413.28-.275.422-.612.422-1.002 0-.452-.143-.807-.422-1.06-.287-.26-.62-.385-.998-.385" fill="#9fe3d2"/></g><g><path d="M492.06 27.06c0-.32-.097-.668-.29-1.034-.192-.37-.49-.718-.887-1.05-.394-.332-.89-.602-1.495-.804-.6-.202-1.28-.306-2.03-.306-1.607 0-2.858.47-3.758 1.4-.895.937-1.346 2.19-1.346 3.76 0 1.068.204 2.007.62 2.825.407.815 1.003 1.448 1.78 1.895.78.448 1.717.67 2.795.67.672 0 1.287-.098 1.85-.295.562-.196 1.033-.452 1.426-.76.387-.314.686-.643.89-.99.207-.353.307-.682.307-.99s-.113-.57-.342-.786c-.235-.215-.515-.324-.838-.324-.22 0-.398.057-.54.166-.145.112-.306.29-.48.542-.317.478-.646.842-.996 1.08-.343.242-.78.36-1.313.36-.762 0-1.384-.296-1.854-.896-.47-.596-.704-1.42-.704-2.454 0-.488.062-.94.183-1.348.116-.407.29-.756.52-1.044.23-.287.503-.505.825-.654.324-.153.68-.226 1.064-.226.52 0 .965.12 1.336.36.376.242.702.608.986 1.103.158.29.327.517.51.683.18.163.408.25.675.25.316 0 .58-.124.786-.363.21-.24.317-.5.317-.77" fill="#9fe3d2"/></g><g><path d="M500.64 29.12c0 1.06-.234 1.88-.698 2.47-.463.594-1.09.887-1.874.887-.508 0-.955-.132-1.343-.394-.387-.262-.68-.65-.89-1.164s-.315-1.114-.315-1.8c0-.68.102-1.268.31-1.773.207-.51.5-.898.885-1.166.386-.266.835-.404 1.353-.404.784 0 1.41.296 1.874.892.464.59.698 1.41.698 2.452m2.604 0c0-.77-.123-1.484-.356-2.14-.247-.65-.592-1.212-1.05-1.677-.455-.47-1.002-.83-1.632-1.08-.64-.248-1.35-.375-2.138-.375-.785 0-1.493.127-2.12.382-.624.25-1.172.615-1.627 1.082-.46.477-.808 1.035-1.05 1.677-.23.643-.352 1.354-.352 2.13 0 .786.124 1.506.36 2.158.24.655.588 1.212 1.038 1.673.45.463.993.818 1.63 1.07.644.25 1.35.375 2.122.375.784 0 1.498-.125 2.138-.38.638-.252 1.183-.616 1.644-1.08.458-.475.803-1.03 1.04-1.672.233-.652.354-1.36.354-2.143" fill="#9fe3d2"/></g><g><path d="M513.14 28.93v-3.446c0-.547-.12-.95-.37-1.228-.25-.272-.57-.408-.977-.408-.392 0-.714.136-.95.408-.248.277-.373.68-.373 1.228v4.13c0 .654-.02 1.163-.063 1.525-.046.353-.168.654-.363.882-.196.235-.508.35-.93.35-.85 0-1.408-.29-1.677-.88-.268-.576-.406-1.413-.406-2.506v-3.502c0-.538-.12-.947-.36-1.224-.25-.273-.568-.412-.966-.412-.395 0-.716.14-.966.412-.252.277-.376.686-.376 1.224v7.42c0 .488.11.86.335 1.11.23.257.526.382.89.382.356 0 .65-.123.89-.356.237-.238.355-.566.355-.984v-.245c.454.536.935.932 1.445 1.18.516.26 1.082.387 1.713.387.65 0 1.21-.13 1.677-.39.47-.26.854-.655 1.16-1.176.44.53.91.924 1.41 1.18.5.258 1.053.387 1.663.387.706 0 1.32-.142 1.834-.42.51-.277.892-.678 1.147-1.194.222-.473.33-1.21.33-2.217v-5.062c0-.547-.12-.95-.366-1.228-.246-.272-.575-.408-.98-.408-.394 0-.713.14-.964.412-.25.277-.376.686-.376 1.224v4.36c0 .56-.024 1.004-.07 1.34-.046.336-.176.62-.382.846-.212.227-.53.343-.953.343-.343 0-.668-.106-.975-.307-.307-.198-.547-.477-.72-.813-.186-.438-.285-1.213-.285-2.323" fill="#9fe3d2"/></g><g><path d="M392.44 29.748c-.002.005-.002.01-.002.018 0-.008 0-.013.002-.018" fill="#9fe3d2"/></g><g><path d="M392.57 28.92h.003c-.05.235-.088.47-.12.7.032-.232.07-.468.117-.7" fill="#9fe3d2"/></g><g><path d="M393.42 26.513l-.017.033c.006-.012.01-.023.017-.033" fill="#9fe3d2"/></g><g><path d="M393.34 26.673c-.023.044-.044.09-.065.134.02-.047.042-.09.065-.134" fill="#9fe3d2"/></g><g><path d="M392.81 27.992c.127-.4.28-.788.457-1.158-.18.378-.33.766-.454 1.158h-.003z" fill="#9fe3d2"/></g><g><path d="M402.47 39.685c.5 0 .87-.04 1.295-.11l.12.76s-1.17.362-2.71.236l-.122.416c.48.1.838.526.838 1.034 0 .582-.473 1.054-1.056 1.054s-1.055-.472-1.055-1.054c0-.508.357-.934.835-1.034l.133-.463c-1.634-.225-2.935-.862-2.935-.862l.23-.704c.99.33 1.847.53 2.625.613.76.08 1.335.115 1.802.115" fill="#9fe3d2"/></g><g><path d="M393.4 35.826l.006.008c.038.05.076.096.113.142l-.314.226-.488.356c-.027-.038-.795-.744-1.4-2.047-.026.042-.057.082-.09.12-.182.198-.436.3-.76.294h-.014c-.2 0-.337.066-.427.147.09.114.144.257.144.414 0 .368-.3.67-.67.67-.368 0-.667-.302-.667-.67 0-.37.3-.67.668-.67.06 0 .114.01.168.022.165-.183.425-.342.808-.334.197.002.34-.05.437-.156.11-.12.15-.295.16-.427 0-.003 0-.006-.003-.006-.436-1.19-.31-2.67-.31-2.67l1.056-.042c.022.54.1 1.482.372 2.23.526 1.45 1.185 2.356 1.212 2.394" fill="#9fe3d2"/></g><g><path d="M411.67 38.8c-.368 0-.67-.298-.67-.668 0-.058.01-.112.024-.165-.183-.166-.342-.428-.336-.81.002-.198-.048-.34-.155-.437-.085-.075-.19-.115-.296-.14-.787 1.102-1.756 1.775-1.756 1.775l-.757-.814c.573-.52 1.16-1.174 1.728-1.99.395-.562.8-1.29 1.137-2.014l1.024.487s-.466 1.155-1.125 2.19c.115.04.23.104.33.193.202.18.3.437.294.758-.002.208.066.35.148.442.114-.087.257-.143.412-.143.37 0 .67.3.67.67 0 .37-.3.668-.67.668" fill="#9fe3d2"/></g><g><path d="M409.01 29.6c-1.41-.688-3.728-1.595-6.78-2.02-1.2-.167-2.36-.228-3.43-.228-1.39 0-2.62.103-3.562.223-1.076.135-1.917.3-2.432.418.123-.392.273-.78.454-1.16.003-.008.007-.02.012-.026.022-.044.043-.09.066-.134.02-.044.043-.087.065-.127.006-.01.01-.023.017-.033.302-.57.666-1.095 1.08-1.55 1.44-1.574 2.907-1.823 2.92-1.825l.024-.003.022-.008c.013-.005 1.314-.424 3.29-.424 1.946 0 3.856.392 5.675 1.167 1.35.69 2.623 1.736 3.255 2.67.488.722.84 1.493 1.05 2.293.11.426.2 1.108.147 1.826-.396-.268-1.023-.648-1.872-1.06" fill="#9fe3d2"/></g><g><path d="M397.89 36.228c1.557 0 2.817-1.262 2.817-2.817 0-1.555-1.26-2.814-2.817-2.814-1.555 0-2.816 1.26-2.816 2.815 0 1.556 1.26 2.818 2.816 2.818m8.242-.07c.96 0 1.743-.78 1.743-1.742s-.782-1.745-1.743-1.745c-.962 0-1.743.784-1.743 1.746s.78 1.743 1.742 1.743m-12.27-.668c-.04-.06-.652-.925-1.135-2.253-.362-.996-.346-2.445-.346-2.46v-.004c0-.34.02-.677.058-1.01 0-.01 0-.013.002-.018.004-.043.01-.084.015-.127.03-.23.07-.465.12-.7.7-.18 4.877-1.154 9.547-.503 2.927.407 5.15 1.272 6.5 1.926 1.12.544 1.84 1.036 2.12 1.24-.278 1.027-1.043 2.64-1.744 3.645-2.005 2.865-4.167 3.6-5.278 3.783-.423.07-.762.11-1.243.11-.447 0-1.002-.035-1.743-.114-.743-.077-1.572-.272-2.532-.595-1.348-.45-2.567-1.16-3.527-2.047l-.033-.03c-.142-.13-.44-.407-.78-.84" fill="#9fe3d2"/></g></g></svg>