<svg xmlns="http://www.w3.org/2000/svg" height="99.002mm" width="111.69mm" viewBox="0 0 395.76917 350.79581"><defs><clipPath id="a"><path d="M0 800h800V0H0v800z"/></clipPath></defs><g clip-path="url(#a)" transform="matrix(1.25 0 0 -1.25 -310.4 767.39)"><path d="M449 475.1c4.015 4.187 5.147 11.275 2.352 17.85-2.527 5.943-7.582 9.864-12.815 10.574 1.07 7.314-6.93 14.996-18.217 17.342-7.835 1.628-15.238.264-19.683-3.106-3.216 1.75-7.116 2.23-10.876 1.013-2.998-.97-5.436-2.87-7.103-5.274-4.685.953-10.25-.39-14.872-4.048-4.335-3.432-6.874-8.14-7.293-12.657-4.337-1.126-7.753-4.722-8.348-9.357-.392-3.045.51-5.965 2.282-8.23-1.133-3.546-1.074-7.41.45-10.995 3.56-8.372 13.738-12.06 22.734-8.235.714.304 1.396.65 2.05 1.026.13-.387.27-.773.433-1.155 3.56-8.374 13.737-12.06 22.733-8.237.308.13.61.27.906.416 2.455-2.698 6.476-3.78 10.303-2.608.463-1.475 1.064-2.94 1.82-4.374 3.787-7.2 10.36-11.77 17.014-12.62l3.003 2.715c-.045.04-.087.082-.13.12-6.072 1.874-10.483 7.528-10.483 14.213 0 .2.01.396.017.594 4.622-2.712 10.636-3.222 16.2-.857 8.99 3.825 13.398 13.713 9.838 22.086-.597 1.404-1.385 2.673-2.318 3.8" fill="#277d96"/><path d="M441.48 449.21c8.995 3.825 13.402 13.712 9.843 22.084-.598 1.406-1.385 2.675-2.32 3.803 1.898 1.98 3.15 4.605 3.65 7.52-11.397 8.5-25.81 8.878-33.334.438-3.038-3.406-4.52-7.764-4.566-12.43-.496.135-.995.266-1.5.387-17.1 4.107-33.652-1.34-40.99-12.435 1.79.195 3.592.652 5.35 1.4.714.302 1.396.648 2.05 1.025.13-.388.27-.774.433-1.156 3.56-8.373 13.737-12.06 22.733-8.235.308.132.61.27.906.416 2.455-2.697 6.476-3.778 10.302-2.606.463-1.475 1.065-2.94 1.82-4.375 3.788-7.2 10.36-11.77 17.014-12.62l3.004 2.716-.13.122c-6.07 1.872-10.482 7.526-10.482 14.21 0 .2.01.398.017.595 4.625-2.71 10.64-3.22 16.202-.855" fill="#4dd194"/><path d="M441.48 449.21c8.995 3.825 13.402 13.712 9.843 22.084-.598 1.406-1.385 2.675-2.32 3.803 1.898 1.98 3.15 4.605 3.65 7.52-11.397 8.5-25.81 8.878-33.334.438-3.038-3.406-4.52-7.764-4.566-12.43-.496.135-.995.266-1.5.387-17.1 4.107-33.652-1.34-40.99-12.435 1.79.195 3.592.652 5.35 1.4.714.302 1.396.648 2.05 1.025.13-.388.27-.774.433-1.156 3.56-8.373 13.737-12.06 22.733-8.235.308.132.61.27.906.416 2.455-2.697 6.476-3.778 10.302-2.606.463-1.475 1.065-2.94 1.82-4.375 3.788-7.2 10.36-11.77 17.014-12.62l3.004 2.716-.13.122c-6.07 1.872-10.482 7.526-10.482 14.21 0 .2.01.398.017.595 4.625-2.71 10.64-3.22 16.202-.855z" stroke="#fff" stroke-miterlimit="10" stroke-width="1.8517712399999997" fill="none"/><path d="M451.32 471.29c-.597 1.405-1.385 2.675-2.32 3.803 4.016 4.187 5.15 11.275 2.353 17.85-2.526 5.943-7.582 9.864-12.814 10.574 1.067 7.314-6.93 14.996-18.22 17.342-7.833 1.626-15.236.263-19.682-3.107-.126.07-3.78-4.28-4.573-7.08-2.91-10.286 4.24-21.315 15.973-24.633 3.554-1.006 7.12-1.184 10.447-.663-.614-4.62.506-9.17 3.535-12.625 1.827-2.084 4.145-3.538 6.725-4.372-.652-5.04 2.908-8.637 8.192-8.865 9.155-.395 11.323 7.143 11.546 7.16-.145 1.558-.523 3.11-1.163 4.616" fill="#ff4d7d"/><path d="M451.32 471.29c-.597 1.405-1.385 2.675-2.32 3.803 4.016 4.187 5.15 11.275 2.353 17.85-2.526 5.943-7.582 9.864-12.814 10.574 1.067 7.314-6.93 14.996-18.22 17.342-7.833 1.626-15.236.263-19.682-3.107-.126.07-3.78-4.28-4.573-7.08-2.91-10.286 4.24-21.315 15.973-24.633 3.554-1.006 7.12-1.184 10.447-.663-.614-4.62.506-9.17 3.535-12.625 1.827-2.084 4.145-3.538 6.725-4.372-.652-5.04 2.908-8.637 8.192-8.865 9.155-.395 11.323 7.143 11.546 7.16-.145 1.558-.523 3.11-1.163 4.616z" stroke="#fff" stroke-miterlimit="10" stroke-width="1.8517712399999997" fill="none"/><path d="M382.35 479.73c3.012 3.293 2.94 8.444-.25 11.742-2.734 2.826-6.9 3.407-10.17 1.693-2.43 2.45-5.753 3.958-9.42 3.958-.675 0-2.005-.27-2.01-.328-4.338-1.127-7.754-4.722-8.35-9.357-.39-3.046.51-5.965 2.283-8.23-1.133-3.546-1.073-7.41.45-10.995 3.56-8.372 13.74-12.06 22.734-8.235.715.304 1.396.65 2.05 1.026.02-.057 4.885 4.45 4.4 11.225-.19 2.69-.62 5.243-1.717 7.5" fill="#c7e640"/><path d="M382.35 479.73c3.012 3.293 2.94 8.444-.25 11.742-2.734 2.826-6.9 3.407-10.17 1.693-2.43 2.45-5.753 3.958-9.42 3.958-.675 0-2.005-.27-2.01-.328-4.338-1.127-7.754-4.722-8.35-9.357-.39-3.046.51-5.965 2.283-8.23-1.133-3.546-1.073-7.41.45-10.995 3.56-8.372 13.74-12.06 22.734-8.235.715.304 1.396.65 2.05 1.026.02-.057 4.885 4.45 4.4 11.225-.19 2.69-.62 5.243-1.717 7.5z" stroke="#fff" stroke-miterlimit="10" stroke-width="1.8517712399999997" fill="none"/></g></svg>