<svg xmlns="http://www.w3.org/2000/svg" height="210mm" width="297mm" viewBox="0 0 1052.3622 744.09448"><defs><clipPath id="U"><path d="M450.64 386.34c-10.677-2.262-20.185-7.39-26.84-15.046-1.42-1.63-4.117-5.01-5.393-6.752-5.177-7.07-7.92-15.776-8.62-24.745 11.46-7.084 27.707-14.503 46.274-20.686 18.347-6.107 35.602-9.89 48.96-11.14 4.73 7.447 7.955 16.08 8.024 25.17.014 2.154-.135 6.46-.3 8.607-.12 1.57-.433 3.128-.766 4.7-5.156 24.338-26.64 41.026-50.563 41.027-3.554 0-7.16-.368-10.775-1.134"/></clipPath><clipPath id="V"><path d="M416.74 377.81h103.47v-41.845H416.74v41.845z"/></clipPath><clipPath id="W"><path d="M402.19 324.8h102.18v-31.847H402.19V324.8z"/></clipPath><clipPath id="X"><path d="M419.71 386.14h103.1v-40.53h-103.1v40.53z"/></clipPath><clipPath id="Y"><path d="M408.37 364.53h107.5v-47.59h-107.5v47.59z"/></clipPath><clipPath id="m"><path d="M0 800h800V0H0v800z"/></clipPath><mask id="n" height="1" width="1" y="0" x="0" maskUnits="userSpaceOnUse"><g clip-path="url(#c)"><path fill="url(#e)" d="M325.87 380.96s-1.33-1.51-3.77-4.045c-1.226-1.26-2.71-2.795-4.46-4.508-1.743-1.72-3.723-3.644-5.935-5.69-2.17-2.082-4.638-4.224-7.19-6.534-2.62-2.246-5.34-4.648-8.255-7.018-2.913-2.368-5.897-4.838-9.046-7.202-1.562-1.195-3.12-2.417-4.712-3.607l-4.843-3.502c-3.198-2.38-6.54-4.555-9.772-6.758-.81-.55-1.618-1.094-2.422-1.638l-2.444-1.54c-1.62-1.017-3.223-2.02-4.795-3.007-1.567-.996-3.117-1.96-4.675-2.828-1.545-.893-3.055-1.764-4.526-2.61-1.474-.84-2.885-1.695-4.29-2.447-1.406-.74-2.768-1.452-4.076-2.138-2.62-1.35-4.98-2.663-7.136-3.694l-5.588-2.63-4.857-2.288 4.546-10.418 4.883 2.85 5.588 3.265c2.15 1.275 4.493 2.855 7.086 4.5l4.028 2.59c1.384.908 2.768 1.92 4.214 2.918 1.44 1.01 2.915 2.044 4.43 3.104 1.52 1.035 3.028 2.168 4.55 3.333 1.525 1.154 3.077 2.33 4.65 3.518.78.596 1.57 1.194 2.36 1.797l2.33 1.89c3.11 2.544 6.313 5.057 9.358 7.767l4.604 3.987c1.51 1.348 2.982 2.727 4.458 4.074 2.974 2.672 5.772 5.434 8.5 8.078 2.723 2.646 5.255 5.307 7.684 7.788 2.363 2.55 4.644 4.91 6.636 7.19 8.114 8.994 12.884 15.455 12.884 15.454" mask="url(#d)"/></g></mask><clipPath id="a"><path d="M223.08 380.96h102.79v-84.102H223.08v84.102z"/></clipPath><clipPath id="b"><path d="M223.08 380.96h102.79v-84.104H223.08v84.104z"/></clipPath><clipPath id="c"><path d="M325.87 380.96s-1.33-1.51-3.77-4.045c-1.226-1.26-2.71-2.795-4.46-4.508-1.743-1.72-3.723-3.644-5.935-5.69-2.17-2.082-4.638-4.224-7.19-6.534-2.62-2.246-5.34-4.648-8.255-7.018-2.913-2.368-5.897-4.838-9.046-7.202-1.562-1.195-3.12-2.417-4.712-3.607l-4.843-3.502c-3.198-2.38-6.54-4.555-9.772-6.758-.81-.55-1.618-1.094-2.422-1.638l-2.444-1.54c-1.62-1.017-3.223-2.02-4.795-3.007-1.567-.996-3.117-1.96-4.675-2.828-1.545-.893-3.055-1.764-4.526-2.61-1.474-.84-2.885-1.695-4.29-2.447-1.406-.74-2.768-1.452-4.076-2.138-2.62-1.35-4.98-2.663-7.136-3.694l-5.588-2.63-4.857-2.288 4.546-10.418 4.883 2.85 5.588 3.265c2.15 1.275 4.493 2.855 7.086 4.5l4.028 2.59c1.384.908 2.768 1.92 4.214 2.918 1.44 1.01 2.915 2.044 4.43 3.104 1.52 1.035 3.028 2.168 4.55 3.333 1.525 1.154 3.077 2.33 4.65 3.518.78.596 1.57 1.194 2.36 1.797l2.33 1.89c3.11 2.544 6.313 5.057 9.358 7.767l4.604 3.987c1.51 1.348 2.982 2.727 4.458 4.074 2.974 2.672 5.772 5.434 8.5 8.078 2.723 2.646 5.255 5.307 7.684 7.788 2.363 2.55 4.644 4.91 6.636 7.19 8.114 8.994 12.884 15.455 12.884 15.454"/></clipPath><clipPath id="f"><path d="M-24174 24974H8592V-7792h-32766v32766z"/></clipPath><linearGradient id="e" gradientUnits="userSpaceOnUse" gradientTransform="rotate(-138 231.59 128.87) scale(138.74)"><stop stop-color="#9c9aa0" offset="0"/><stop stop-color="#9c9aa0" offset=".129"/><stop stop-color="#9c9aa0" offset=".454"/><stop stop-color="#1e120d" offset="1"/></linearGradient><clipPath id="o"><path d="M223.08 380.96h102.79v-84.102H223.08v84.102z"/></clipPath><linearGradient id="p" gradientUnits="userSpaceOnUse" gradientTransform="rotate(-138 231.59 128.87) scale(138.74)"><stop stop-color="#e8eeed" offset="0"/><stop stop-color="#e8eeed" offset=".129"/><stop stop-color="#e8eeed" offset=".454"/><stop stop-color="#fff" offset="1"/></linearGradient><mask id="q" height="1" width="1" y="0" x="0" maskUnits="userSpaceOnUse"><g clip-path="url(#i)"><path fill="url(#k)" d="M305.66 418.24c17.417 13.67 39.497 22.424 39.497 22.424-24.72-1.936-45.953-15.834-45.953-15.834-57.522-28.602-97.18-97.614-97.18-97.614l7.692-6.124c54.588 69.874 95.944 97.148 95.944 97.148" mask="url(#j)"/></g></mask><clipPath id="g"><path d="M202.02 440.66h143.13V321.09H202.02v119.57z"/></clipPath><clipPath id="h"><path d="M202.02 440.66h143.13V321.09H202.02v119.57z"/></clipPath><clipPath id="i"><path d="M305.66 418.24c17.417 13.67 39.497 22.424 39.497 22.424-24.72-1.936-45.953-15.834-45.953-15.834-57.522-28.602-97.18-97.614-97.18-97.614l7.692-6.124c54.588 69.874 95.944 97.148 95.944 97.148"/></clipPath><clipPath id="l"><path d="M-24174 24974H8592V-7792h-32766v32766z"/></clipPath><linearGradient id="k" gradientUnits="userSpaceOnUse" gradientTransform="scale(188.82) rotate(-137.5 1.36 .85)"><stop stop-color="#9c9aa0" offset="0"/><stop stop-color="#9c9aa0" offset=".473"/><stop stop-color="#9c9aa0" offset=".598"/><stop stop-color="#1e120d" offset=".806"/><stop stop-color="#1e120d" offset="1"/></linearGradient><clipPath id="r"><path d="M202.02 440.66h143.13V321.09H202.02v119.57z"/></clipPath><linearGradient id="s" gradientUnits="userSpaceOnUse" gradientTransform="scale(188.82) rotate(-137.5 1.36 .85)"><stop stop-color="#e8eeed" offset="0"/><stop stop-color="#e8eeed" offset=".473"/><stop stop-color="#e8eeed" offset=".598"/><stop stop-color="#fff" offset=".806"/><stop stop-color="#fff" offset="1"/></linearGradient><clipPath id="t"><path d="M369.8 650.2h12.404v-12.404H369.8V650.2z"/></clipPath><clipPath id="u"><path d="M630.27 582.73h29.458v-29.458H630.27v29.458z"/></clipPath><clipPath id="v"><path d="M354.04 492.96h19.92v-19.92h-19.92v19.92z"/></clipPath><clipPath id="w"><path d="M489.8 427.2h12.404v-12.404H489.8V427.2z"/></clipPath><clipPath id="x"><path d="M590.8 299.2h12.404v-12.404H590.8V299.2z"/></clipPath><clipPath id="y"><path d="M386.54 237.46h18.926v-18.926H386.54v18.926z"/></clipPath><clipPath id="z"><path d="M209.8 256.2h12.404v-12.404H209.8V256.2z"/></clipPath><clipPath id="A"><path d="M134.8 343.2h12.404v-12.404H134.8V343.2z"/></clipPath><clipPath id="B"><path d="M666.8 463.2h12.404v-12.404H666.8V463.2z"/></clipPath><clipPath id="C"><path d="M123.43 528.57h23.148v-23.148H123.43v23.148z"/></clipPath><clipPath id="D"><path d="M198.13 642.9h155.48V487.42H198.13V642.9z"/></clipPath><clipPath id="E"><path d="M258.7 625.5h90.45V492.27H258.7V625.5z"/></clipPath><clipPath id="F"><path d="M224.23 602.08h36.597v-37.235H224.23v37.235z"/></clipPath><clipPath id="G"><path d="M227.39 598.91h30.093v-30.618H227.39v30.618z"/></clipPath><clipPath id="H"><path d="M265.33 558.5h7.404v-7.533h-7.404v7.533z"/></clipPath><clipPath id="I"><path d="M323.42 549.73h9.135v-9.295h-9.135v9.295z"/></clipPath><clipPath id="J"><path d="M292.26 591.88h44.93v-39.583h-44.93v39.583z"/></clipPath><clipPath id="K"><path d="M285 540.3h29.724v-29.056H285V540.3z"/></clipPath><clipPath id="L"><path d="M287.13 538h25.133v-24.57H287.13V538z"/></clipPath><clipPath id="M"><path d="M251.46 521.51h17.534v-12.457H251.46v12.457z"/></clipPath><clipPath id="N"><path d="M284.07 615.8h23.16v-16.452h-23.16V615.8z"/></clipPath><clipPath id="O"><path d="M285.86 614.52h19.59v-13.91h-19.59v13.91z"/></clipPath><clipPath id="P"><path d="M223.24 555.59h12.134v-10.506H223.24v10.506z"/></clipPath><clipPath id="Q"><path d="M263.31 617.7h7.322v-6.34h-7.322v6.34z"/></clipPath><clipPath id="R"><path d="M427.7 617.54h55.233v-70.755H427.7v70.755z"/></clipPath><clipPath id="S"><path d="M521.99 499.72h54.597v-67.475H521.99v67.475z"/></clipPath><clipPath id="T"><path d="M404.09 392.99h114.63V278.35H404.09v114.64z"/></clipPath></defs><g clip-path="url(#m)" transform="matrix(1.25 0 0 -1.25 8.65 894.63)"><path d="M211.83 292.51l-9.967 10.9-9.966 10.898s-11.918-6.635-18.93-18.626c0 0 3.88 1.407 6.28 1.544.41.024.818-.036 1.217-.207 2.705-1.177-12.28-10.996-17.765-29.42 18.84 3.82 29.96 17.866 30.887 15.064.135-.41.16-.82.1-1.23-.354-2.375-2.102-6.116-2.102-6.116 12.57 5.913 20.245 17.192 20.245 17.192" fill="#ef6541"/><path d="M217.04 293.4l-24.414 26.7 7.747 7.083 24.414-26.7-7.747-7.083zM230.69 375.26s-11.038 29.007-63.78-27.144c0 0 29.688 14.777 37.066-6.366l26.714 33.51zM275.37 326.39s27.91-13.584-32.723-61.107c0 0 17.367 28.25-3.034 37.486l35.757 23.62z" fill="#004057"/><path d="M351.35 440.73c-13.484 14.746-62.807-8.407-110.16-51.713-21.178-19.365-38.367-39.475-49.71-57.116l18.608-20.348 141.26 129.18z" fill="#bb2b1d"/><path d="M351.35 440.73c13.483-14.745-13.977-61.807-61.335-105.11-21.177-19.366-42.74-34.693-61.323-44.415l-18.608 20.35 141.27 129.17z" fill="#bb2b1d"/><path d="M251.69 330.62c-5.707-5.218-14.564-4.823-19.783.884-5.22 5.71-4.823 14.565.884 19.784 5.71 5.22 14.565 4.824 19.785-.884 5.22-5.707 4.823-14.564-.885-19.784" fill="#004057"/><path d="M250.39 339.26c.525 2.53-.123 5.264-2 7.317-3.104 3.395-8.374 3.63-11.77.526-1.75-1.6-2.653-3.775-2.7-5.972 3.375.824 9.814 1.593 16.47-1.87" fill="#4ad0e4"/><path d="M233.92 341.13c-.043-2.066.67-4.152 2.175-5.798 3.104-3.395 8.374-3.63 11.77-.526 1.342 1.23 2.182 2.797 2.525 4.453-6.656 3.462-13.095 2.693-16.47 1.87" fill="#f0f0f0"/><path d="M294.44 339.73c3.024 2.855 5.957 5.72 8.796 8.588-8.102 23.468-25.57 42.57-48.222 52.734-3.11-2.573-6.225-5.237-9.34-7.995 23.898-8.866 42.066-28.735 48.766-53.327M344.41 400.48c1.9 3.35 3.552 6.583 4.95 9.673-5.817 13.318-15.903 24.348-28.65 31.33-3.202-1.117-6.568-2.475-10.074-4.07 16.28-6.53 28.72-20.133 33.774-36.933" fill="#fff"/><path d="M278.15 325.22c3.007 2.525 6.02 5.145 9.025 7.84-8.083 23.814-25.795 43.183-48.793 53.358-2.95-2.754-5.83-5.52-8.614-8.29 23.65-8.883 41.644-28.56 48.382-52.908" fill="#fff"/><g clip-path="url(#o)" mask="url(#n)"><path fill="url(#p)" d="M325.87 380.96s-1.33-1.51-3.77-4.045c-1.225-1.26-2.71-2.795-4.46-4.508-1.743-1.72-3.723-3.644-5.935-5.69-2.17-2.082-4.638-4.224-7.19-6.535-2.62-2.245-5.34-4.647-8.255-7.017-2.914-2.37-5.897-4.838-9.046-7.202-1.562-1.195-3.12-2.417-4.712-3.607l-4.843-3.502c-3.198-2.38-6.54-4.555-9.772-6.758-.81-.55-1.618-1.094-2.422-1.638l-2.444-1.54c-1.62-1.017-3.223-2.02-4.795-3.007-1.567-.996-3.117-1.96-4.675-2.828-1.545-.893-3.056-1.764-4.526-2.612-1.474-.837-2.886-1.693-4.29-2.445-1.407-.74-2.768-1.45-4.077-2.14-2.62-1.35-4.98-2.66-7.136-3.692l-5.587-2.63-4.858-2.288 4.546-10.417 4.883 2.848 5.588 3.266c2.15 1.275 4.493 2.855 7.085 4.5l4.03 2.59c1.383.907 2.767 1.92 4.213 2.92 1.44 1.007 2.915 2.042 4.43 3.102 1.52 1.035 3.028 2.168 4.55 3.333l4.65 3.52c.78.595 1.57 1.192 2.36 1.795.774.63 1.55 1.26 2.33 1.89 3.11 2.544 6.313 5.057 9.36 7.766 1.534 1.332 3.072 2.663 4.603 3.988 1.51 1.348 2.98 2.728 4.456 4.075 2.974 2.672 5.772 5.434 8.5 8.08 2.723 2.644 5.255 5.305 7.684 7.787 2.363 2.55 4.644 4.91 6.636 7.188 8.114 8.995 12.884 15.456 12.884 15.455"/></g><g clip-path="url(#r)" mask="url(#q)"><path fill="url(#s)" d="M305.66 418.24c17.417 13.67 39.497 22.424 39.497 22.424-24.72-1.936-45.953-15.834-45.953-15.834-57.522-28.602-97.18-97.615-97.18-97.615l7.692-6.123c54.588 69.874 95.944 97.148 95.944 97.148"/></g><path d="M322.48 389.82c-7.373-6.742-18.814-6.23-25.556 1.142-6.743 7.374-6.23 18.815 1.142 25.557s18.813 6.23 25.556-1.144c6.742-7.372 6.23-18.814-1.142-25.556" fill="#004057"/><path d="M320.8 400.98c.677 3.268-.16 6.8-2.584 9.452-4.01 4.386-10.82 4.69-15.205.68-2.26-2.066-3.426-4.876-3.486-7.715 4.36 1.063 12.677 2.057 21.276-2.417" fill="#4ad0e4"/><path d="M299.52 403.39c-.056-2.67.865-5.364 2.81-7.49 4.01-4.385 10.817-4.69 15.202-.68 1.735 1.588 2.82 3.614 3.264 5.753-8.6 4.473-16.917 3.48-21.276 2.417" fill="#f0f0f0"/><path d="M421.58 542.92c.11.5.19 1.01.232 1.53.235 3.015-.81 6.053-2.854 8.322-1.35 1.485-2.984 2.553-4.902 3.206l-2.89.586c-1.69.118-3.31-.11-4.865-.675.028 2.545-.91 5.06-2.637 6.978l-2.07 1.77c-1.547.996-3.243 1.568-5.09 1.713l-2.744-.145c-1.912-.363-3.6-1.168-5.07-2.42-2.062-1.777-3.35-4.322-3.56-7.002-.05-.648-.03-1.297.045-1.938-.866.25-1.578.354-2.3.37l.06.003c-.097-.003-.187.003-.282.014l-.115.023c-1.944.137-3.795-.21-5.553-1.042-3.427-1.636-5.755-4.996-6.044-8.714-.067-.87-.015-1.735.136-2.58h50.504zM594.83 377.12c.11.5.19 1.01.232 1.53.235 3.015-.81 6.053-2.854 8.322-1.35 1.485-2.984 2.553-4.902 3.206l-2.89.586c-1.69.118-3.31-.11-4.865-.675.028 2.545-.91 5.06-2.637 6.978l-2.07 1.77c-1.547.996-3.243 1.568-5.09 1.713l-2.744-.145c-1.912-.363-3.6-1.168-5.07-2.42-2.062-1.777-3.35-4.322-3.56-7.002-.05-.648-.03-1.297.045-1.938-.866.25-1.578.354-2.3.37l.06.003c-.097-.003-.187.003-.282.014l-.115.023c-1.944.137-3.795-.21-5.553-1.042-3.427-1.636-5.755-4.996-6.044-8.714-.067-.87-.015-1.735.136-2.58h50.504zM604.27 612.88c.48 1.185.794 2.482.9 3.886.51 6.665-4.907 13.95-11.995 13.95-2.913 0-5.683-.776-7.985-2.197.04.28.072.563.095.848.016.23.023.457.028.684.098.85.034 1.708-.197 2.578-.18 1.004-.483 1.985-.904 2.943-.06.147-.123.288-.19.424-.006.014-.01.028-.017.04-.003.004-.003.007-.006.01-.377.762-.89 1.452-1.905 2.868-.66.92-1.608 1.63-2.558 2.238-1.893 1.248-3.97 1.963-6.23 2.146-2.337.166-4.56-.26-6.67-1.28-2.105-1.036-3.81-2.525-5.116-4.47l-1.472-2.977c-.333-.98-.543-1.97-.64-2.966-1.603.954-3.34 1.51-5.22 1.663l-3.084-.168c-2.147-.416-4.043-1.34-5.69-2.776-2.32-2.042-3.766-4.964-4-8.04-.007-.078-.138-.156-.142-.233-.92.152-1.96.312-.137-.086-6.08 1.335-12.935-.712-15.293-7.556-.17-.492-.3-1.006-.395-1.53h78.823zM250.78 435.74c.48 1.185.794 2.482.9 3.886.51 6.665-4.907 13.95-11.995 13.95-2.913 0-5.683-.776-7.985-2.197.04.28.072.563.095.848.016.23.023.457.028.684.098.85.034 1.708-.197 2.578-.18 1.004-.483 1.985-.904 2.943-.06.147-.123.288-.19.424-.006.014-.01.028-.017.04l-.005.01c-.377.762-.89 1.452-1.905 2.868-.66.92-1.608 1.63-2.558 2.238-1.893 1.248-3.97 1.963-6.23 2.145-2.337.168-4.56-.258-6.67-1.28-2.105-1.034-3.81-2.523-5.116-4.467l-1.472-2.977c-.333-.98-.543-1.97-.64-2.966-1.603.954-3.34 1.51-5.22 1.663l-3.084-.168c-2.147-.416-4.043-1.34-5.69-2.776-2.32-2.042-3.766-4.964-4-8.04-.007-.078-.138-.156-.142-.233-.92.152-1.96.312-.137-.086v-.002c-6.08 1.337-12.935-.71-15.293-7.554-.17-.492-.3-1.006-.395-1.53h78.823zM446.67 410.37c.48 1.185.794 2.482.9 3.886.51 6.665-4.907 13.95-11.995 13.95-2.913 0-5.683-.776-7.985-2.197.04.28.072.563.095.848.016.23.023.457.028.684.098.85.034 1.708-.197 2.578-.18 1.004-.483 1.985-.904 2.943-.06.147-.123.288-.19.424-.006.014-.01.028-.017.04l-.006.01c-.377.762-.89 1.452-1.905 2.868-.66.92-1.608 1.63-2.558 2.238-1.893 1.248-3.97 1.963-6.23 2.145-2.337.168-4.56-.258-6.67-1.28-2.105-1.034-3.81-2.523-5.116-4.467l-1.472-2.977c-.333-.98-.543-1.97-.64-2.966-1.603.954-3.34 1.51-5.22 1.663l-3.084-.168c-2.147-.416-4.043-1.34-5.69-2.776-2.32-2.042-3.766-4.964-4-8.04-.007-.078-.138-.156-.142-.233-.92.152-1.96.312-.137-.086v-.002c-6.08 1.337-12.935-.71-15.293-7.554-.17-.492-.3-1.006-.395-1.53h78.823zM250.78 612.88c.48 1.185.794 2.482.9 3.886.51 6.665-4.907 13.95-11.995 13.95-2.913 0-5.683-.776-7.985-2.197.04.28.072.563.095.848.016.23.023.457.028.684.098.85.034 1.708-.197 2.578-.18 1.004-.483 1.985-.904 2.943-.06.147-.123.288-.19.424-.006.014-.01.028-.017.04l-.005.01c-.377.762-.89 1.452-1.905 2.868-.66.92-1.608 1.63-2.558 2.238-1.893 1.248-3.97 1.963-6.23 2.146-2.337.166-4.56-.26-6.67-1.28-2.105-1.036-3.81-2.525-5.116-4.47l-1.472-2.977c-.333-.98-.543-1.97-.64-2.966-1.603.954-3.34 1.51-5.22 1.663l-3.084-.168c-2.147-.416-4.043-1.34-5.69-2.776-2.32-2.042-3.766-4.964-4-8.04-.007-.078-.138-.156-.142-.233-.92.152-1.96.312-.137-.086-6.08 1.335-12.935-.712-15.293-7.556-.17-.492-.3-1.006-.395-1.53h78.823zM393.73 272.51c.48 1.185.794 2.483.9 3.886.51 6.665-4.907 13.95-11.995 13.95-2.913 0-5.683-.776-7.985-2.197.04.28.072.563.095.848.016.23.023.457.028.684.098.85.034 1.708-.197 2.578-.18 1.004-.483 1.985-.904 2.943-.06.147-.123.288-.19.424-.006.014-.01.028-.017.04l-.006.01c-.377.762-.89 1.452-1.905 2.868-.66.92-1.608 1.63-2.558 2.238-1.893 1.25-3.97 1.963-6.23 2.145-2.337.17-4.56-.258-6.67-1.28-2.105-1.034-3.81-2.523-5.116-4.467l-1.472-2.977c-.333-.98-.543-1.97-.64-2.966-1.603.954-3.34 1.51-5.22 1.663l-3.084-.168c-2.147-.416-4.043-1.34-5.69-2.776-2.32-2.042-3.766-4.964-4-8.04-.007-.078-.138-.156-.142-.233-.92.152-1.96.312-.137-.086-6.08 1.335-12.935-.712-15.293-7.556-.17-.492-.3-1.006-.395-1.53h78.823zM378.19 653.38l-.068-8.066 7.263-3.506-8.065.07-3.507-7.265.068 8.066-7.262 3.505 8.065-.07 3.507 7.265z" fill="#fff"/><g opacity=".17" clip-path="url(#t)"><path d="M369.8 644c0 3.426 2.777 6.202 6.202 6.202 3.426 0 6.203-2.776 6.203-6.202s-2.777-6.202-6.203-6.202c-3.425 0-6.202 2.776-6.202 6.202" fill="#fff"/></g><path d="M650.2 590.28l-.162-19.154 17.248-8.326-19.153.163-8.327-17.25.162 19.154-17.25 8.326 19.155-.163 8.327 17.25z" fill="#fff"/><g opacity=".17" clip-path="url(#u)"><path d="M630.27 568c0 8.135 6.594 14.73 14.73 14.73s14.728-6.595 14.728-14.73-6.594-14.73-14.73-14.73-14.728 6.595-14.728 14.73" fill="#fff"/></g><path d="M367.51 498.07l-.11-12.953 11.664-5.63-12.952.11-5.63-11.665.11 12.953-11.665 5.63 12.952-.11 5.63 11.665z" fill="#fff"/><g opacity=".17" clip-path="url(#v)"><path d="M354.04 483c0 5.5 4.46 9.96 9.96 9.96s9.96-4.46 9.96-9.96-4.46-9.96-9.96-9.96-9.96 4.46-9.96 9.96" fill="#fff"/></g><path d="M498.19 430.38l-.068-8.066 7.263-3.506-8.065.07-3.507-7.265.068 8.066-7.262 3.505 8.065-.07 3.507 7.265z" fill="#fff"/><g opacity=".17" clip-path="url(#w)"><path d="M489.8 421c0 3.426 2.777 6.202 6.202 6.202 3.426 0 6.203-2.776 6.203-6.202s-2.777-6.202-6.203-6.202c-3.425 0-6.202 2.776-6.202 6.202" fill="#fff"/></g><path d="M599.19 302.38l-.068-8.066 7.263-3.506-8.065.07-3.507-7.265.068 8.066-7.262 3.505 8.065-.07 3.507 7.265z" fill="#fff"/><g opacity=".17" clip-path="url(#x)"><path d="M590.8 293c0 3.426 2.777 6.202 6.202 6.202 3.426 0 6.203-2.776 6.203-6.202s-2.777-6.202-6.203-6.202c-3.425 0-6.202 2.776-6.202 6.202" fill="#fff"/></g><path d="M399.34 242.32l-.104-12.306 11.082-5.35-12.306.105-5.35-11.084.104 12.307-11.082 5.35 12.306-.106 5.35 11.083z" fill="#fff"/><g opacity=".17" clip-path="url(#y)"><path d="M386.54 228c0 5.226 4.237 9.463 9.463 9.463 5.227 0 9.463-4.237 9.463-9.463s-4.236-9.463-9.463-9.463c-5.226 0-9.463 4.237-9.463 9.463" fill="#fff"/></g><path d="M218.19 259.38l-.068-8.066 7.263-3.506-8.065.07-3.507-7.265.068 8.066-7.262 3.504 8.065-.068 3.507 7.264z" fill="#fff"/><g opacity=".17" clip-path="url(#z)"><path d="M209.8 250c0 3.426 2.777 6.202 6.202 6.202 3.426 0 6.203-2.776 6.203-6.202s-2.777-6.202-6.203-6.202c-3.425 0-6.202 2.776-6.202 6.202" fill="#fff"/></g><path d="M143.19 346.38l-.068-8.066 7.263-3.506-8.065.07-3.507-7.265.068 8.066-7.262 3.505 8.065-.07 3.507 7.265z" fill="#fff"/><g opacity=".17" clip-path="url(#A)"><path d="M134.8 337c0 3.426 2.777 6.202 6.202 6.202 3.426 0 6.203-2.776 6.203-6.202s-2.777-6.202-6.203-6.202c-3.425 0-6.202 2.776-6.202 6.202" fill="#fff"/></g><path d="M675.19 466.38l-.068-8.066 7.263-3.506-8.065.07-3.507-7.265.068 8.066-7.262 3.505 8.065-.07 3.507 7.265z" fill="#fff"/><g opacity=".17" clip-path="url(#B)"><path d="M666.8 457c0 3.426 2.777 6.202 6.202 6.202 3.426 0 6.203-2.776 6.203-6.202s-2.777-6.202-6.203-6.202c-3.425 0-6.202 2.776-6.202 6.202" fill="#fff"/></g><path d="M139.08 534.51l-.128-15.05 13.554-6.542-15.05.127-6.543-13.554.127 15.05-13.553 6.543 15.05-.127 6.543 13.554z" fill="#fff"/><g opacity=".17" clip-path="url(#C)"><path d="M123.43 517c0 6.392 5.182 11.574 11.574 11.574 6.39 0 11.573-5.182 11.573-11.574s-5.182-11.574-11.573-11.574c-6.392 0-11.574 5.182-11.574 11.574" fill="#fff"/></g><g opacity=".1" clip-path="url(#D)"><path d="M198.13 565.16c0 42.934 34.805 77.74 77.738 77.74 42.934 0 77.74-34.806 77.74-77.74s-34.806-77.738-77.74-77.738c-42.935 0-77.74 34.804-77.74 77.738" fill="#f9f9f7"/></g><path d="M202.71 565.16c0 40.402 32.753 73.156 73.155 73.156 40.403 0 73.155-32.754 73.155-73.156 0-40.403-32.752-73.154-73.155-73.154-40.402 0-73.155 32.75-73.155 73.154" fill="#e9e8e8"/><g opacity=".2" clip-path="url(#E)"><path d="M317.24 625.5s51.318-104.96-58.54-131.46c0 0 63.816-16.467 87.53 51.043 0 0 16.51 47.22-28.99 80.416" fill="#c6c4c4"/></g><g opacity=".25" clip-path="url(#F)"><path d="M226 572.85c-3.922 9.187-1.313 23.696 7.873 27.62 9.186 3.923 21.848.524 25.772-8.66 3.923-9.188-2.377-20.686-11.565-24.608-9.185-3.923-18.157-3.54-22.08 5.648"/></g><path d="M224.47 572.85c-3.922 9.187-1.313 23.696 7.873 27.62 9.186 3.923 21.848.524 25.772-8.66 3.923-9.188-2.377-20.686-11.565-24.608-9.185-3.923-18.157-3.54-22.08 5.648" fill="#bcbec0"/><g opacity=".25" clip-path="url(#G)"><path d="M228.84 574.88c-3.226 7.556-1.08 19.485 6.473 22.712 7.552 3.226 17.966.43 21.19-7.122 3.228-7.553-1.955-17.007-9.507-20.233-7.554-3.228-14.93-2.908-18.156 4.643"/></g><path d="M227.31 574.88c-3.226 7.556-1.08 19.485 6.473 22.712 7.552 3.226 17.966.43 21.19-7.122 3.228-7.553-1.955-17.007-9.507-20.233-7.554-3.228-14.93-2.908-18.156 4.643" fill="#aaadaf"/><g opacity=".25" clip-path="url(#H)"><path d="M265.69 552.59c-.795 1.858-.267 4.794 1.592 5.586 1.858.795 4.42.108 5.212-1.75.797-1.86-.48-4.185-2.34-4.98-1.858-.792-3.674-.713-4.464 1.144"/></g><path d="M264.16 552.59c-.795 1.858-.267 4.794 1.592 5.586 1.858.795 4.42.108 5.212-1.75.797-1.86-.48-4.185-2.34-4.98-1.858-.792-3.674-.713-4.464 1.144" fill="#bcbec0"/><g opacity=".25" clip-path="url(#I)"><path d="M323.87 542.43c-.98 2.293-.327 5.914 1.964 6.894 2.293.98 5.455.13 6.432-2.162.983-2.293-.594-5.162-2.886-6.143-2.293-.98-4.53-.884-5.51 1.41"/></g><path d="M322.33 542.43c-.98 2.293-.327 5.914 1.964 6.894 2.293.98 5.455.13 6.432-2.162.983-2.293-.594-5.162-2.886-6.143-2.293-.98-4.53-.884-5.51 1.41" fill="#bcbec0"/><g opacity=".25" clip-path="url(#J)"><path d="M294.09 559.71c-4.78 11.194.046 23.726 11.48 28.61 11.43 4.88 25.652 6.073 30.432-5.12 4.783-11.192-5.693-21.374-17.122-26.255-11.434-4.882-20.01-8.427-24.79 2.765"/><path d="M297.2 561.83c-4.043 9.465.04 20.062 9.707 24.19 9.666 4.13 21.69 5.14 25.732-4.326 4.045-9.463-4.816-18.073-14.478-22.203-9.67-4.125-16.922-7.123-20.962 2.34"/></g><path d="M292.56 559.71c-4.78 11.194.046 23.726 11.48 28.61 11.43 4.88 25.652 6.073 30.432-5.12 4.783-11.192-5.693-21.374-17.122-26.255-11.434-4.882-20.01-8.427-24.79 2.765" fill="#bcbec0"/><path d="M295.67 561.83c-4.043 9.465.04 20.062 9.707 24.19 9.666 4.13 21.69 5.14 25.732-4.326 4.045-9.463-4.816-18.073-14.478-22.203-9.67-4.125-16.922-7.123-20.962 2.34" fill="#aaadaf"/><g opacity=".25" clip-path="url(#K)"><path d="M311.13 514.27c-6.67-4.963-15.765-3.758-20.836 3.053-5.07 6.81-8.132 16.066-1.462 21.025 6.667 4.968 15.102-.362 20.173-7.172 5.07-6.812 8.794-11.943 2.125-16.906"/></g><path d="M309.6 514.27c-6.67-4.963-15.765-3.758-20.836 3.053-5.07 6.81-8.132 16.066-1.462 21.025 6.667 4.968 15.102-.362 20.173-7.172 5.07-6.812 8.794-11.943 2.125-16.906" fill="#bcbec0"/><g opacity=".25" clip-path="url(#L)"><path d="M309.22 516c-5.64-4.198-13.328-3.177-17.616 2.583-4.285 5.76-6.88 13.582-1.24 17.778 5.64 4.202 12.775-.306 17.06-6.065 4.286-5.76 7.435-10.098 1.796-14.295"/></g><path d="M307.69 516c-5.64-4.198-13.328-3.177-17.616 2.583-4.285 5.76-6.88 13.582-1.24 17.778 5.64 4.202 12.775-.306 17.06-6.065 4.286-5.76 7.435-10.098 1.796-14.295" fill="#aaadaf"/><g opacity=".25" clip-path="url(#M)"><path d="M251.48 514.01c.257 4.436 3.87 7.744 8.398 7.483 4.53-.264 9.372-2.184 9.112-6.618-.254-4.435-5.333-6.06-9.86-5.798-4.53.264-7.91.5-7.65 4.933"/></g><path d="M249.95 514.01c.257 4.436 3.87 7.744 8.398 7.483 4.53-.264 9.372-2.184 9.112-6.618-.254-4.435-5.333-6.06-9.86-5.798-4.53.264-7.91.5-7.65 4.933" fill="#bcbec0"/><path d="M251.3 514.2c.22 3.748 3.277 6.547 7.107 6.325 3.83-.223 7.92-1.846 7.704-5.596s-4.51-5.123-8.338-4.902c-3.828.222-6.687.422-6.472 4.172" fill="#aaadaf"/><g opacity=".25" clip-path="url(#N)"><path d="M284.08 605.9c.338 5.858 5.113 10.23 11.093 9.884 5.983-.347 12.38-2.885 12.036-8.742-.337-5.857-7.048-8-13.026-7.656-5.984.346-10.446.66-10.104 6.514"/></g><path d="M282.55 605.9c.338 5.858 5.113 10.23 11.093 9.884 5.983-.347 12.38-2.885 12.036-8.742-.337-5.857-7.048-8-13.026-7.656-5.984.346-10.446.66-10.104 6.514" fill="#bcbec0"/><g opacity=".25" clip-path="url(#O)"><path d="M285.88 606.15c.29 4.952 4.327 8.65 9.385 8.355s10.462-2.438 10.178-7.39c-.287-4.956-5.96-6.766-11.016-6.474-5.057.293-8.832.558-8.547 5.51"/></g><path d="M284.35 606.15c.29 4.952 4.327 8.65 9.385 8.355s10.462-2.438 10.178-7.39c-.287-4.956-5.96-6.766-11.016-6.474-5.057.293-8.832.558-8.547 5.51" fill="#aaadaf"/><g opacity=".25" clip-path="url(#P)"><path d="M224.16 553.6c2.103 2.4 5.61 2.68 8.06.533 2.45-2.148 4.345-5.374 2.242-7.77-2.1-2.402-5.695-1.08-8.144 1.066-2.452 2.148-4.262 3.774-2.158 6.17"/></g><path d="M222.63 553.6c2.103 2.4 5.61 2.68 8.06.533 2.45-2.148 4.345-5.374 2.242-7.77-2.1-2.402-5.695-1.08-8.144 1.066-2.452 2.148-4.262 3.774-2.158 6.17" fill="#bcbec0"/><path d="M223.48 553.11c1.78 2.027 4.745 2.264 6.818.45 2.072-1.818 3.673-4.545 1.896-6.574-1.778-2.03-4.817-.91-6.89.904-2.07 1.817-3.6 3.19-1.824 5.22" fill="#aaadaf"/><path d="M261.73 616.86c1.5 1.712 4.003 1.912 5.75.38 1.75-1.53 3.1-3.834 1.6-5.546-1.5-1.712-4.064-.77-5.81.762-1.748 1.534-3.04 2.693-1.54 4.404" fill="#bcbec0"/><g opacity=".25" clip-path="url(#Q)"><path d="M263.87 616.51c1.27 1.444 3.386 1.615 4.865.32 1.478-1.298 2.62-3.243 1.353-4.69-1.27-1.45-3.436-.65-4.914.645-1.48 1.296-2.573 2.277-1.304 3.725"/></g><path d="M262.34 616.51c1.27 1.444 3.386 1.615 4.865.32 1.478-1.298 2.62-3.243 1.353-4.69-1.27-1.45-3.436-.65-4.914.645-1.48 1.296-2.573 2.277-1.304 3.725" fill="#aaadaf"/><path d="M477.14 495.01c-.373-.93-1.433-1.382-2.368-1.007-.936.374-1.39 1.433-1.02 2.363.375.93 1.435 1.382 2.37 1.008s1.39-1.433 1.018-2.364M542.25 532.62c-.372-.93-1.433-1.382-2.368-1.007s-1.39 1.433-1.018 2.363c.373.93 1.433 1.383 2.368 1.008.936-.374 1.39-1.433 1.018-2.364M547.76 473.63c-.91-2.3-3.424-3.44-5.62-2.55-2.195.89-3.237 3.48-2.33 5.778.91 2.3 3.426 3.443 5.62 2.55 2.196-.892 3.24-3.478 2.33-5.778" fill="#fff"/><path d="M572.77 554.23l-18.343-15.057c.75.616.977 1.786.748 3.35-.148 1-.48 2.166-.98 3.448-.34.868-.754 1.79-1.24 2.75-.596 1.175-1.296 2.415-2.095 3.69-1.368 2.19-3.02 4.492-4.907 6.79-7.307 8.904-15.36 14.372-17.99 12.215l18.346 15.057 26.46-32.242z" fill="#b0b0b0"/><path d="M554.43 539.17l-26.462 32.242c2.627 2.157 10.682-3.312 17.988-12.215 7.308-8.905 11.1-17.87 8.474-20.027" fill="#b0b0b0"/><path d="M554.43 539.17c-2.627-2.156-10.68 3.313-17.99 12.216-7.307 8.904-11.1 17.87-8.472 20.026 2.627 2.157 10.682-3.312 17.988-12.215 7.308-8.905 11.1-17.87 8.474-20.027" fill="#989695"/><path d="M572.51 554.01c-.75-.614-1.94-.61-3.43-.08-.953.34-2.03.892-3.19 1.633-.786.502-1.608 1.088-2.455 1.753-1.037.813-2.115 1.74-3.212 2.774-1.88 1.77-3.815 3.837-5.703 6.137-7.306 8.902-11.1 17.87-8.472 20.024.088.074.182.14.282.193 2.885 1.595 10.644-3.802 17.708-12.407 1.885-2.298 3.54-4.6 4.905-6.79.8-1.276 1.5-2.514 2.094-3.69.486-.962.9-1.88 1.24-2.75.5-1.28.834-2.446.98-3.447.203-1.382.05-2.454-.503-3.11-.074-.09-.155-.167-.244-.24" fill="#b0b0b0"/><path d="M552.29 540.15c-.832-.682-2.372-.377-4.324.704-2.31 1.277-5.194 3.64-8.16 6.735-1.12 1.166-2.25 2.44-3.365 3.8-6.565 8-10.116 15.94-7.93 17.735 2.185 1.793 9.28-3.24 15.846-11.24 1.115-1.357 2.145-2.716 3.072-4.042 2.46-3.51 4.213-6.8 5.015-9.314.68-2.126.68-3.697-.153-4.38" fill="#e2e2e2"/><path d="M482.12 539.18l-60.213 79.21 30.837 26.07 64.293-75.756-34.917-29.524z" fill="#008dd0"/><path d="M428.69 609.45l-.484.607 31.267 26.528.485-.606-31.268-26.53z" fill="#e2e2e2"/><path d="M446.32 639.04l.6.508 61.92-77.766-.6-.507-61.92 77.765zM436.56 630.78l2.187 1.848 66.717-83.786-2.187-1.848-66.717 83.786zM428.74 624.17l.6.505 61.92-77.763-.598-.506-61.922 77.764z" fill="#e2e2e2"/><path d="M435.12 600.34l-.484.607 32.035 27.16.485-.61-32.035-27.157zM442.18 591.75l-.484.606 32.17 27.27.486-.606-32.172-27.27zM448.9 582.87l-.484.608 32.65 27.662.483-.608-32.65-27.662zM455.64 574.01l-.485.608 33.11 28.04.485-.607-33.11-28.04zM462.4 565.16l-.484.607 33.55 28.403.486-.607L462.4 565.16zM469.14 556.3l-.484.608 33.998 28.768.482-.61L469.14 556.3zM475.85 547.42l-.484.607L509.86 577.2l.48-.605-34.49-29.175z" fill="#e2e2e2"/><g clip-path="url(#R)"><path d="M427.7 617.55c.242-.303 55.232-67.262 55.232-67.262l-.73-3.494L427.7 617.55z" fill="#b0b0b0"/></g><path d="M501.47 498.44l-23.78 28.974 50.815 41.708 23.78-28.975-50.815-41.707z" fill="#e2e2e2"/><path d="M552.44 544.53l-53.055-43.543-6.585 8.024 54.625 44.835c2.46-3.51 4.213-6.8 5.015-9.315" fill="#cac8c8"/><path d="M573.26 557.36l-18.082-14.84c-.365 2.504-1.896 6.017-4.314 9.888l18.08 14.84c2.42-3.87 3.95-7.384 4.316-9.888" fill="#989695"/><path d="M501.51 495.75c-2.186-1.794-9.88 3.968-17.188 12.873-7.308 8.903-11.46 17.574-9.274 19.37 2.185 1.792 9.88-3.97 17.188-12.874 7.307-8.906 11.46-17.576 9.274-19.37" fill="#b0b0b0"/><path d="M501 490.95c-2.614-2.145-11.818 4.747-20.557 15.395-8.74 10.65-13.705 21.02-11.09 23.164 2.612 2.145 11.815-4.75 20.555-15.396 8.74-10.648 13.705-21.02 11.092-23.164" fill="#989695"/><path d="M572.28 560.81l-18.08-14.84c-.34.866-.755 1.787-1.242 2.75l18.08 14.84c.487-.963.902-1.883 1.242-2.75" fill="#807f7d"/><path d="M487.92 503.13l-6.185-5.076c.253.206.34.586.285 1.088-.036.323-.132.694-.28 1.102-.1.276-.227.57-.374.873-.18.372-.396.764-.643 1.167-.423.69-.936 1.413-1.526 2.133-2.288 2.79-4.862 4.458-5.748 3.73l6.184 5.076 8.286-10.093z" fill="#b0b0b0"/><path d="M487.84 503.05c-.253-.208-.642-.22-1.124-.068-.308.1-.655.265-1.026.49-.252.153-.513.333-.783.537-.33.248-.672.536-1.02.856-.593.55-1.204 1.195-1.794 1.914-2.288 2.788-3.425 5.637-2.538 6.365.03.023.06.046.094.064.963.548 3.44-1.102 5.65-3.796.592-.72 1.105-1.444 1.528-2.133.246-.403.46-.795.642-1.168.15-.303.273-.596.375-.872.148-.408.243-.78.28-1.1.05-.445-.013-.792-.203-1.01-.024-.03-.052-.056-.082-.08" fill="#b0b0b0"/><path d="M488.12 504.14l-6.097-5.004c-.09.805-.55 1.92-1.296 3.142l6.096 5.004c.746-1.222 1.207-2.338 1.297-3.142" fill="#989695"/><path d="M487.84 505.24l-6.096-5.003c-.1.276-.227.57-.374.873l6.096 5.003c.15-.304.272-.596.374-.873" fill="#807f7d"/><path d="M479.42 504.59c-13.182 16.06-36.89 18.395-52.953 5.213l47.74-58.166c16.062 13.183 18.396 36.89 5.213 52.953" fill="#e2e2e2"/><path d="M472.14 454.16l-3.7 4.508c15.21 12.485 19.134 33.164 9.503 47.503.684-.683 1.336-1.404 1.96-2.165 11.774-14.345 8.3-36.662-7.763-49.845" fill="#cac8c8"/><path d="M474.54 451.23c-2.587-2.124-15.25 9.014-28.394 24.945-.125.15-.25.304-.377.458-.5.607-.992 1.215-1.48 1.818-12.43 15.457-20.34 29.29-17.826 31.355 2.516 2.065 14.542-8.392 27.276-23.598.497-.596.996-1.197 1.495-1.805l.375-.46c13.063-15.996 21.52-30.587 18.93-32.712" fill="#989695"/><path d="M473.95 450.75c-2.587-2.124-15.25 9.013-28.393 24.945l-.377.458c-.5.607-.99 1.215-1.48 1.818-12.43 15.456-20.34 29.29-17.826 31.355 2.517 2.065 14.54-8.392 27.276-23.6.497-.594.997-1.195 1.495-1.803.126-.154.252-.307.375-.46 13.064-15.996 21.52-30.588 18.93-32.712" fill="#989695"/><path d="M455.61 483.94l-10.645-8.738-1.863 2.27 10.638 8.73c.497-.594.996-1.195 1.495-1.803.125-.155.25-.307.375-.46" fill="#807f7d"/><path d="M446.1 472.93c-1.686-1.382-4.172-1.137-5.554.548-1.382 1.684-1.138 4.17.547 5.552 1.683 1.382 4.17 1.138 5.553-.545 1.383-1.685 1.137-4.172-.546-5.555M496.96 545.97l1.34-1.633 11.22 9.208-1.34 1.634-11.22-9.21z" fill="#e2e2e2"/><path d="M514.97 501l56.536-80.194 39.056 35.45-61.657 73.888L514.97 501z" fill="#008dd0"/><path d="M564.52 430.71l.463-.596 39.34 33.578-.467.596-39.336-33.578z" fill="#e2e2e2"/><path d="M599.98 446.71l.582.5-59.614 76.093-.582-.5 59.614-76.093zM590.49 438.57l2.125 1.824-64.23 81.985-2.124-1.826 64.23-81.984zM582.89 432.03l.582.5-59.612 76.093-.584-.5 59.614-76.093z" fill="#e2e2e2"/><path d="M558.29 439.59l.464-.596 38.594 32.968-.464.595-38.594-32.967zM552.01 448.42l.464-.596 38.01 32.488-.464.595-38.01-32.487zM545.81 457.33l.463-.596 37.283 31.89-.464.596-37.282-31.89zM539.54 466.17l.465-.595 36.622 31.348-.465.595-36.622-31.348zM533.29 475.04l.465-.595 35.87 30.733-.464.595-35.87-30.733zM527.1 483.94l.464-.594 35.198 30.18-.464.595-35.198-30.18zM520.78 492.75l.465-.594 34.574 29.667-.467.595-34.573-29.668z" fill="#e2e2e2"/><g clip-path="url(#S)"><path d="M576.59 432.25c-.233.297-51.24 67.475-51.24 67.475l-3.357-.067 54.597-67.408z" fill="#b0b0b0"/></g><path d="M523.43 513.73l-1.342 1.634 11.22 9.21 1.34-1.636-11.218-9.208z" fill="#e2e2e2"/><g opacity=".1" clip-path="url(#T)"><path d="M405.43 347.93c6.77 30.916 37.32 50.49 68.236 43.722 30.917-6.77 50.494-37.32 43.724-68.237s-37.32-50.49-68.238-43.72c-30.916 6.77-50.492 37.32-43.722 68.235" fill="#f9f9f7"/></g><path d="M456.12 319.13c-38.27 12.742-66.74 30.747-63.588 40.214 3.15 9.465 36.73 6.81 75.002-5.932 38.268-12.743 66.738-30.747 63.588-40.212-3.154-9.467-36.73-6.812-75.002 5.93m13.363 40.133c-51.337 17.095-96.383 20.656-100.61 7.954-4.228-12.696 33.958-36.845 85.298-53.942 51.337-17.09 96.384-20.65 100.61-7.95 4.23 12.697-33.96 36.842-85.297 53.938" fill="#e15444"/><path d="M455.91 316.79c-47.357 15.562-83.396 36.352-79.6 47.607 3.8 11.25 45.27 7.758 92.632-7.802 47.358-15.562 82.673-37.298 78.877-48.55-3.802-11.254-44.547-6.815-91.91 8.745m13.433 40.982c-50.104 16.464-93.98 20.158-98 8.25-4.014-11.902 34.066-33.948 84.17-50.414 50.102-16.458 93.253-21.098 97.27-9.192 4.017 11.903-33.34 34.894-83.44 51.356" fill="#c6413e"/><path d="M454.11 313.26c-16.43 5.47-31.503 11.667-44.28 17.977.182-2.07.474-4.147.917-6.232 5.922-27.954 33.384-45.815 61.337-39.894 11.17 2.367 20.716 8.18 27.792 16.077-13.897 2.614-29.513 6.664-45.766 12.073" fill="#f4c02f"/><path d="M512.74 341.75c-.12 1.57-.434 3.13-.767 4.7-5.922 27.954-33.38 45.816-61.338 39.893-10.676-2.26-20.185-7.388-26.84-15.045-1.418-1.63-4.117-5.01-5.392-6.752-5.177-7.07-7.92-15.777-8.62-24.745 11.46-7.083 27.706-14.503 46.273-20.686 18.347-6.107 35.602-9.89 48.96-11.14 4.73 7.447 7.954 16.08 8.024 25.17.016 2.153-.133 6.46-.298 8.606" fill="#f2c549"/></g><g clip-path="url(#U)" transform="matrix(1.25 0 0 -1.25 8.65 894.63)"><g opacity=".8" clip-path="url(#V)"><path d="M423.23 377.81s45.83-33.44 96.978-35.048l-1.085-6.797s-72.737 10.36-102.38 40.53" fill="#f4cf67"/></g><g opacity=".8" clip-path="url(#W)"><path d="M408.28 324.8s46.973-27.385 96.094-25.63l-.412-6.217s-70.6 4.81-101.77 30.25" fill="#f4cf67"/></g><g opacity=".8" clip-path="url(#X)"><path d="M423.41 385.46s48.25-33.724 99.398-35.333l-.722-4.523s-72.736 10.36-102.38 40.53" fill="#f4cf67"/></g><g opacity=".6" clip-path="url(#Y)"><path d="M411.54 364.53s53.178-34.242 104.33-35.85l-2.64-11.74s-75.22 7.983-104.86 38.153" fill="#f4cf67"/></g></g></svg>